G04*
G04 #@! TF.GenerationSoftware,Altium Limited,Altium Designer,24.5.1 (21)*
G04*
G04 Layer_Color=16777215*
%FSLAX44Y44*%
%MOMM*%
G71*
G04*
G04 #@! TF.SameCoordinates,79976FDF-1E63-4D3E-BD55-D118F6E1C880*
G04*
G04*
G04 #@! TF.FilePolarity,Positive*
G04*
G01*
G75*
%ADD10R,0.9500X1.6000*%
%ADD11R,1.6000X0.9500*%
%ADD12R,0.7500X1.1500*%
%ADD13R,1.4000X1.4000*%
%ADD14R,1.3000X0.3500*%
D10*
X558500Y1695000D02*
D03*
X531500D02*
D03*
X713500D02*
D03*
X686500D02*
D03*
X863500D02*
D03*
X836500D02*
D03*
X1018500D02*
D03*
X991500D02*
D03*
X1168500D02*
D03*
X1141500D02*
D03*
X1318500D02*
D03*
X1291500D02*
D03*
X1473500D02*
D03*
X1446500D02*
D03*
X1628500D02*
D03*
X1601500D02*
D03*
X1778500D02*
D03*
X1751500D02*
D03*
X1913500Y1845000D02*
D03*
X1886500D02*
D03*
X1473500Y1525000D02*
D03*
X1446500D02*
D03*
X1318500D02*
D03*
X1291500D02*
D03*
X1168500D02*
D03*
X1141500D02*
D03*
X1018500D02*
D03*
X991500D02*
D03*
X863500D02*
D03*
X836500D02*
D03*
X713500D02*
D03*
X686500D02*
D03*
X558500D02*
D03*
X531500D02*
D03*
X403500D02*
D03*
X376500D02*
D03*
X253500D02*
D03*
X226500D02*
D03*
X113500Y1845000D02*
D03*
X86500D02*
D03*
X253500Y1695000D02*
D03*
X226500D02*
D03*
X558500Y1360000D02*
D03*
X531500D02*
D03*
X713500D02*
D03*
X686500D02*
D03*
X863500D02*
D03*
X836500D02*
D03*
X1018500D02*
D03*
X991500D02*
D03*
X1168500D02*
D03*
X1141500D02*
D03*
X1318500D02*
D03*
X1291500D02*
D03*
X1473500D02*
D03*
X1446500D02*
D03*
X1628500D02*
D03*
X1601500D02*
D03*
X1778500D02*
D03*
X1751500D02*
D03*
X1778500Y1525000D02*
D03*
X1751500D02*
D03*
X1628500D02*
D03*
X1601500D02*
D03*
X1473500Y1195000D02*
D03*
X1446500D02*
D03*
X1318500D02*
D03*
X1291500D02*
D03*
X1168500D02*
D03*
X1141500D02*
D03*
X1018500D02*
D03*
X991500D02*
D03*
X863500D02*
D03*
X836500D02*
D03*
X713500D02*
D03*
X686500D02*
D03*
X558500D02*
D03*
X531500D02*
D03*
X403500D02*
D03*
X376500D02*
D03*
X253500D02*
D03*
X226500D02*
D03*
X253500Y1360000D02*
D03*
X226500D02*
D03*
X403500D02*
D03*
X376500D02*
D03*
X558500Y1025000D02*
D03*
X531500D02*
D03*
X713500D02*
D03*
X686500D02*
D03*
X863500D02*
D03*
X836500D02*
D03*
X1018500D02*
D03*
X991500D02*
D03*
X1168500D02*
D03*
X1141500D02*
D03*
X1318500D02*
D03*
X1291500D02*
D03*
X1473500D02*
D03*
X1446500D02*
D03*
X1628500D02*
D03*
X1601500D02*
D03*
X1778500D02*
D03*
X1751500D02*
D03*
X1778500Y1195000D02*
D03*
X1751500D02*
D03*
X1628500D02*
D03*
X1601500D02*
D03*
X1473500Y860000D02*
D03*
X1446500D02*
D03*
X1318500D02*
D03*
X1291500D02*
D03*
X1168500D02*
D03*
X1141500D02*
D03*
X1018500D02*
D03*
X991500D02*
D03*
X863500D02*
D03*
X836500D02*
D03*
X713500D02*
D03*
X686500D02*
D03*
X558500D02*
D03*
X531500D02*
D03*
X403500D02*
D03*
X376500D02*
D03*
X253500D02*
D03*
X226500D02*
D03*
X253500Y1025000D02*
D03*
X226500D02*
D03*
X403500D02*
D03*
X376500D02*
D03*
X558500Y695000D02*
D03*
X531500D02*
D03*
X713500D02*
D03*
X686500D02*
D03*
X863500D02*
D03*
X836500D02*
D03*
X1018500D02*
D03*
X991500D02*
D03*
X1168500D02*
D03*
X1141500D02*
D03*
X1318500D02*
D03*
X1291500D02*
D03*
X1473500D02*
D03*
X1446500D02*
D03*
X1628500D02*
D03*
X1601500D02*
D03*
X1778500D02*
D03*
X1751500D02*
D03*
X1778500Y860000D02*
D03*
X1751500D02*
D03*
X1628500D02*
D03*
X1601500D02*
D03*
X1473500Y525000D02*
D03*
X1446500D02*
D03*
X1318500D02*
D03*
X1291500D02*
D03*
X1168500D02*
D03*
X1141500D02*
D03*
X1018500D02*
D03*
X991500D02*
D03*
X863500D02*
D03*
X836500D02*
D03*
X713500D02*
D03*
X686500D02*
D03*
X558500D02*
D03*
X531500D02*
D03*
X403500D02*
D03*
X376500D02*
D03*
X253500D02*
D03*
X226500D02*
D03*
X253500Y695000D02*
D03*
X226500D02*
D03*
X403500D02*
D03*
X376500D02*
D03*
X558500Y360000D02*
D03*
X531500D02*
D03*
X713500D02*
D03*
X686500D02*
D03*
X863500D02*
D03*
X836500D02*
D03*
X1018500D02*
D03*
X991500D02*
D03*
X1168500D02*
D03*
X1141500D02*
D03*
X1318500D02*
D03*
X1291500D02*
D03*
X1473500D02*
D03*
X1446500D02*
D03*
X1628500D02*
D03*
X1601500D02*
D03*
X1778500D02*
D03*
X1751500D02*
D03*
X1778500Y525000D02*
D03*
X1751500D02*
D03*
X1628500D02*
D03*
X1601500D02*
D03*
X1318500Y190000D02*
D03*
X1291500D02*
D03*
X1168500D02*
D03*
X1141500D02*
D03*
X1018500D02*
D03*
X991500D02*
D03*
X863500D02*
D03*
X836500D02*
D03*
X712233Y190635D02*
D03*
X685233D02*
D03*
X558500Y190000D02*
D03*
X531500D02*
D03*
X403500D02*
D03*
X376500D02*
D03*
X253500D02*
D03*
X226500D02*
D03*
X253500Y360000D02*
D03*
X226500D02*
D03*
X403500D02*
D03*
X376500D02*
D03*
X1473500Y190000D02*
D03*
X1446500D02*
D03*
X1633500D02*
D03*
X1606500D02*
D03*
X1778500D02*
D03*
X1751500D02*
D03*
X403500Y1695000D02*
D03*
X376500D02*
D03*
D11*
X145000Y113500D02*
D03*
Y86500D02*
D03*
X1855000Y103500D02*
D03*
Y76500D02*
D03*
D12*
X1022000Y1055000D02*
D03*
X990000Y1103000D02*
D03*
X1022000D02*
D03*
X990000Y1055000D02*
D03*
X867000D02*
D03*
X835000Y1103000D02*
D03*
X867000D02*
D03*
X835000Y1055000D02*
D03*
X717000D02*
D03*
X685000Y1103000D02*
D03*
X717000D02*
D03*
X685000Y1055000D02*
D03*
X562000D02*
D03*
X530000Y1103000D02*
D03*
X562000D02*
D03*
X530000Y1055000D02*
D03*
X407000D02*
D03*
X375000Y1103000D02*
D03*
X407000D02*
D03*
X375000Y1055000D02*
D03*
X257000D02*
D03*
X225000Y1103000D02*
D03*
X257000D02*
D03*
X225000Y1055000D02*
D03*
X257000Y890000D02*
D03*
X225000Y938000D02*
D03*
X257000D02*
D03*
X225000Y890000D02*
D03*
X407000D02*
D03*
X375000Y938000D02*
D03*
X407000D02*
D03*
X375000Y890000D02*
D03*
X562000D02*
D03*
X530000Y938000D02*
D03*
X562000D02*
D03*
X530000Y890000D02*
D03*
X717000D02*
D03*
X685000Y938000D02*
D03*
X717000D02*
D03*
X685000Y890000D02*
D03*
X867000D02*
D03*
X835000Y938000D02*
D03*
X867000D02*
D03*
X835000Y890000D02*
D03*
X1022000D02*
D03*
X990000Y938000D02*
D03*
X1022000D02*
D03*
X990000Y890000D02*
D03*
X1172000D02*
D03*
X1140000Y938000D02*
D03*
X1172000D02*
D03*
X1140000Y890000D02*
D03*
X1322000D02*
D03*
X1290000Y938000D02*
D03*
X1322000D02*
D03*
X1290000Y890000D02*
D03*
X1477000D02*
D03*
X1445000Y938000D02*
D03*
X1477000D02*
D03*
X1445000Y890000D02*
D03*
X1632000D02*
D03*
X1600000Y938000D02*
D03*
X1632000D02*
D03*
X1600000Y890000D02*
D03*
X1782000D02*
D03*
X1750000Y938000D02*
D03*
X1782000D02*
D03*
X1750000Y890000D02*
D03*
X1782000Y725000D02*
D03*
X1750000Y773000D02*
D03*
X1782000D02*
D03*
X1750000Y725000D02*
D03*
X1632000D02*
D03*
X1600000Y773000D02*
D03*
X1632000D02*
D03*
X1600000Y725000D02*
D03*
X1477000D02*
D03*
X1445000Y773000D02*
D03*
X1477000D02*
D03*
X1445000Y725000D02*
D03*
X1322000D02*
D03*
X1290000Y773000D02*
D03*
X1322000D02*
D03*
X1290000Y725000D02*
D03*
X1172000D02*
D03*
X1140000Y773000D02*
D03*
X1172000D02*
D03*
X1140000Y725000D02*
D03*
X1022000D02*
D03*
X990000Y773000D02*
D03*
X1022000D02*
D03*
X990000Y725000D02*
D03*
X867000D02*
D03*
X835000Y773000D02*
D03*
X867000D02*
D03*
X835000Y725000D02*
D03*
X717000D02*
D03*
X685000Y773000D02*
D03*
X717000D02*
D03*
X685000Y725000D02*
D03*
X562000D02*
D03*
X530000Y773000D02*
D03*
X562000D02*
D03*
X530000Y725000D02*
D03*
X407000D02*
D03*
X375000Y773000D02*
D03*
X407000D02*
D03*
X375000Y725000D02*
D03*
X257000D02*
D03*
X225000Y773000D02*
D03*
X257000D02*
D03*
X225000Y725000D02*
D03*
X257000Y555000D02*
D03*
X225000Y603000D02*
D03*
X257000D02*
D03*
X225000Y555000D02*
D03*
X407000D02*
D03*
X375000Y603000D02*
D03*
X407000D02*
D03*
X375000Y555000D02*
D03*
X562000D02*
D03*
X530000Y603000D02*
D03*
X562000D02*
D03*
X530000Y555000D02*
D03*
X717000D02*
D03*
X685000Y603000D02*
D03*
X717000D02*
D03*
X685000Y555000D02*
D03*
X867000D02*
D03*
X835000Y603000D02*
D03*
X867000D02*
D03*
X835000Y555000D02*
D03*
X1022000D02*
D03*
X990000Y603000D02*
D03*
X1022000D02*
D03*
X990000Y555000D02*
D03*
X1172000D02*
D03*
X1140000Y603000D02*
D03*
X1172000D02*
D03*
X1140000Y555000D02*
D03*
X1322000D02*
D03*
X1290000Y603000D02*
D03*
X1322000D02*
D03*
X1290000Y555000D02*
D03*
X1477000D02*
D03*
X1445000Y603000D02*
D03*
X1477000D02*
D03*
X1445000Y555000D02*
D03*
X1632000D02*
D03*
X1600000Y603000D02*
D03*
X1632000D02*
D03*
X1600000Y555000D02*
D03*
X1782000D02*
D03*
X1750000Y603000D02*
D03*
X1782000D02*
D03*
X1750000Y555000D02*
D03*
X1782000Y390000D02*
D03*
X1750000Y438000D02*
D03*
X1782000D02*
D03*
X1750000Y390000D02*
D03*
X1632000D02*
D03*
X1600000Y438000D02*
D03*
X1632000D02*
D03*
X1600000Y390000D02*
D03*
X1477000D02*
D03*
X1445000Y438000D02*
D03*
X1477000D02*
D03*
X1445000Y390000D02*
D03*
X1322000D02*
D03*
X1290000Y438000D02*
D03*
X1322000D02*
D03*
X1290000Y390000D02*
D03*
X1172000D02*
D03*
X1140000Y438000D02*
D03*
X1172000D02*
D03*
X1140000Y390000D02*
D03*
X1022000D02*
D03*
X990000Y438000D02*
D03*
X1022000D02*
D03*
X990000Y390000D02*
D03*
X867000D02*
D03*
X835000Y438000D02*
D03*
X867000D02*
D03*
X835000Y390000D02*
D03*
X717000D02*
D03*
X685000Y438000D02*
D03*
X717000D02*
D03*
X685000Y390000D02*
D03*
X562000D02*
D03*
X530000Y438000D02*
D03*
X562000D02*
D03*
X530000Y390000D02*
D03*
X407000D02*
D03*
X375000Y438000D02*
D03*
X407000D02*
D03*
X375000Y390000D02*
D03*
X257000D02*
D03*
X225000Y438000D02*
D03*
X257000D02*
D03*
X225000Y390000D02*
D03*
X116000Y76000D02*
D03*
X84000Y124000D02*
D03*
X116000D02*
D03*
X84000Y76000D02*
D03*
X257000Y220000D02*
D03*
X225000Y268000D02*
D03*
X257000D02*
D03*
X225000Y220000D02*
D03*
X407000D02*
D03*
X375000Y268000D02*
D03*
X407000D02*
D03*
X375000Y220000D02*
D03*
X562000D02*
D03*
X530000Y268000D02*
D03*
X562000D02*
D03*
X530000Y220000D02*
D03*
X717000D02*
D03*
X685000Y268000D02*
D03*
X717000D02*
D03*
X685000Y220000D02*
D03*
X867000D02*
D03*
X835000Y268000D02*
D03*
X867000D02*
D03*
X835000Y220000D02*
D03*
X1022000D02*
D03*
X990000Y268000D02*
D03*
X1022000D02*
D03*
X990000Y220000D02*
D03*
X1172000D02*
D03*
X1140000Y268000D02*
D03*
X1172000D02*
D03*
X1140000Y220000D02*
D03*
X1290000Y268000D02*
D03*
X1322000D02*
D03*
X1290000Y220000D02*
D03*
X1322000D02*
D03*
X1916000Y1876000D02*
D03*
X1884000Y1924000D02*
D03*
X1916000D02*
D03*
X1884000Y1876000D02*
D03*
X1782000Y1725000D02*
D03*
X1750000Y1773000D02*
D03*
X1782000D02*
D03*
X1750000Y1725000D02*
D03*
X1632000D02*
D03*
X1600000Y1773000D02*
D03*
X1632000D02*
D03*
X1600000Y1725000D02*
D03*
X1477000D02*
D03*
X1445000Y1773000D02*
D03*
X1477000D02*
D03*
X1445000Y1725000D02*
D03*
X1322000D02*
D03*
X1290000Y1773000D02*
D03*
X1322000D02*
D03*
X1290000Y1725000D02*
D03*
X1172000D02*
D03*
X1140000Y1773000D02*
D03*
X1172000D02*
D03*
X1140000Y1725000D02*
D03*
X1022000D02*
D03*
X990000Y1773000D02*
D03*
X1022000D02*
D03*
X990000Y1725000D02*
D03*
X867000D02*
D03*
X835000Y1773000D02*
D03*
X867000D02*
D03*
X835000Y1725000D02*
D03*
X717000D02*
D03*
X685000Y1773000D02*
D03*
X717000D02*
D03*
X685000Y1725000D02*
D03*
X562000D02*
D03*
X530000Y1773000D02*
D03*
X562000D02*
D03*
X530000Y1725000D02*
D03*
X407000D02*
D03*
X375000Y1773000D02*
D03*
X407000D02*
D03*
X375000Y1725000D02*
D03*
X257000D02*
D03*
X225000Y1773000D02*
D03*
X257000D02*
D03*
X225000Y1725000D02*
D03*
X116000Y1876000D02*
D03*
X84000Y1924000D02*
D03*
X116000D02*
D03*
X84000Y1876000D02*
D03*
X257000Y1555000D02*
D03*
X225000Y1603000D02*
D03*
X257000D02*
D03*
X225000Y1555000D02*
D03*
X407000D02*
D03*
X375000Y1603000D02*
D03*
X407000D02*
D03*
X375000Y1555000D02*
D03*
X562000D02*
D03*
X530000Y1603000D02*
D03*
X562000D02*
D03*
X530000Y1555000D02*
D03*
X717000D02*
D03*
X685000Y1603000D02*
D03*
X717000D02*
D03*
X685000Y1555000D02*
D03*
X867000D02*
D03*
X835000Y1603000D02*
D03*
X867000D02*
D03*
X835000Y1555000D02*
D03*
X1022000D02*
D03*
X990000Y1603000D02*
D03*
X1022000D02*
D03*
X990000Y1555000D02*
D03*
X1172000D02*
D03*
X1140000Y1603000D02*
D03*
X1172000D02*
D03*
X1140000Y1555000D02*
D03*
X1322000D02*
D03*
X1290000Y1603000D02*
D03*
X1322000D02*
D03*
X1290000Y1555000D02*
D03*
X1477000D02*
D03*
X1445000Y1603000D02*
D03*
X1477000D02*
D03*
X1445000Y1555000D02*
D03*
X1632000D02*
D03*
X1600000Y1603000D02*
D03*
X1632000D02*
D03*
X1600000Y1555000D02*
D03*
X1782000D02*
D03*
X1750000Y1603000D02*
D03*
X1782000D02*
D03*
X1750000Y1555000D02*
D03*
X1782000Y1390000D02*
D03*
X1750000Y1438000D02*
D03*
X1782000D02*
D03*
X1750000Y1390000D02*
D03*
X1632000Y1389537D02*
D03*
X1600000Y1437537D02*
D03*
X1632000D02*
D03*
X1600000Y1389537D02*
D03*
X1477000D02*
D03*
X1445000Y1437537D02*
D03*
X1477000D02*
D03*
X1445000Y1389537D02*
D03*
X1322000D02*
D03*
X1290000Y1437537D02*
D03*
X1322000D02*
D03*
X1290000Y1389537D02*
D03*
X1172000D02*
D03*
X1140000Y1437537D02*
D03*
X1172000D02*
D03*
X1140000Y1389537D02*
D03*
X1022000D02*
D03*
X990000Y1437537D02*
D03*
X1022000D02*
D03*
X990000Y1389537D02*
D03*
X867000D02*
D03*
X835000Y1437537D02*
D03*
X867000D02*
D03*
X835000Y1389537D02*
D03*
X717000D02*
D03*
X685000Y1437537D02*
D03*
X717000D02*
D03*
X685000Y1389537D02*
D03*
X562000D02*
D03*
X530000Y1437537D02*
D03*
X562000D02*
D03*
X530000Y1389537D02*
D03*
X407000D02*
D03*
X375000Y1437537D02*
D03*
X407000D02*
D03*
X375000Y1389537D02*
D03*
X257000D02*
D03*
X225000Y1437537D02*
D03*
X257000D02*
D03*
X225000Y1389537D02*
D03*
X257000Y1225000D02*
D03*
X225000Y1273000D02*
D03*
X257000D02*
D03*
X225000Y1225000D02*
D03*
X407000D02*
D03*
X375000Y1273000D02*
D03*
X407000D02*
D03*
X375000Y1225000D02*
D03*
X562000D02*
D03*
X530000Y1273000D02*
D03*
X562000D02*
D03*
X530000Y1225000D02*
D03*
X717000D02*
D03*
X685000Y1273000D02*
D03*
X717000D02*
D03*
X685000Y1225000D02*
D03*
X867000D02*
D03*
X835000Y1273000D02*
D03*
X867000D02*
D03*
X835000Y1225000D02*
D03*
X1022000D02*
D03*
X990000Y1273000D02*
D03*
X1022000D02*
D03*
X990000Y1225000D02*
D03*
X1172000D02*
D03*
X1140000Y1273000D02*
D03*
X1172000D02*
D03*
X1140000Y1225000D02*
D03*
X1322000D02*
D03*
X1290000Y1273000D02*
D03*
X1322000D02*
D03*
X1290000Y1225000D02*
D03*
X1477000D02*
D03*
X1445000Y1273000D02*
D03*
X1477000D02*
D03*
X1445000Y1225000D02*
D03*
X1632000D02*
D03*
X1600000Y1273000D02*
D03*
X1632000D02*
D03*
X1600000Y1225000D02*
D03*
X1782000D02*
D03*
X1750000Y1273000D02*
D03*
X1782000D02*
D03*
X1750000Y1225000D02*
D03*
X1782000Y1055000D02*
D03*
X1750000Y1103000D02*
D03*
X1782000D02*
D03*
X1750000Y1055000D02*
D03*
X1632000D02*
D03*
X1600000Y1103000D02*
D03*
X1632000D02*
D03*
X1600000Y1055000D02*
D03*
X1477000D02*
D03*
X1445000Y1103000D02*
D03*
X1477000D02*
D03*
X1445000Y1055000D02*
D03*
X1322000D02*
D03*
X1290000Y1103000D02*
D03*
X1322000D02*
D03*
X1290000Y1055000D02*
D03*
X1172000D02*
D03*
X1140000Y1103000D02*
D03*
X1172000D02*
D03*
X1140000Y1055000D02*
D03*
X1444603Y269000D02*
D03*
X1476603D02*
D03*
Y221000D02*
D03*
X1444603D02*
D03*
X1605257Y269000D02*
D03*
X1637256D02*
D03*
Y221000D02*
D03*
X1605257D02*
D03*
X1750000Y269000D02*
D03*
X1782000D02*
D03*
Y221000D02*
D03*
X1750000D02*
D03*
X1884000Y76000D02*
D03*
X1916000D02*
D03*
Y124000D02*
D03*
X1884000D02*
D03*
D13*
X20500Y210250D02*
D03*
X20500Y238750D02*
D03*
Y262750D02*
D03*
X20500Y291250D02*
D03*
D14*
X47250Y244250D02*
D03*
X47250Y257250D02*
D03*
Y263750D02*
D03*
Y250750D02*
D03*
Y237750D02*
D03*
M02*
