M48
;Layer_Color=9474304
;FILE_FORMAT=4:4
METRIC,LZ
;TYPE=PLATED
T01F00S00C0.4000
T02F00S00C0.7000
T03F00S00C0.7112
T04F00S00C0.8000
T05F00S00C1.0000
T06F00S00C1.1000
T08F00S00C1.7000
T09F00S00C2.0000
;TYPE=NON_PLATED
T10F00S00C1.3000
T11F00S00C3.2000
%
T01
X01916245Y00143073
X01925Y0022
X01875Y00102358
X01765Y0021
X0162
X0146
X01305
X01155
X01005
X0085
X007
X00545
X0039
X00715Y00045
X0024Y0021
X0007Y00225
X00069255Y0023775
X00115Y0014
X00121223Y00107775
X0007Y0025
X00255Y00285
X0024Y0038
X00255Y00455
X0024Y00545
X00255Y0062
X0012Y00515
X0013Y005
X0008
X0039Y00545
X00405Y0062
X0056
X00545Y00545
X0056Y00455
X00545Y0038
X0056Y00285
X00715
X007Y0038
X00715Y00455
X007Y00545
X00715Y0062
X00405Y00455
X0039Y0038
X00405Y00285
X00865
X0085Y0038
X00865Y00455
X0085Y00545
X00865Y0062
X0102
X01005Y00545
X0102Y00455
X01005Y0038
X0102Y00285
X0117
X01155Y0038
X0117Y00455
X01155Y00545
X0117Y0062
X0132
X01305Y00545
X0132Y00455
X01305Y0038
X0132Y00285
X01475
X0146Y0038
X01475Y00455
X0146Y00545
X01475Y0062
X0163
X01615Y00545
X0163Y00455
X01615Y0038
X01635Y00285
X0178
X01765071Y00380184
X0178Y00455
X01765Y00545
X0178Y0062
X0187Y0041
X0193Y00385
Y0025
X0199Y0076
Y00915
X0178Y00955
X01765Y0088
X01785Y00795
X01765Y00715
X01615
X0163Y00795
X01615Y0088
X0163Y00955
X01475
X0146Y0088
X01475Y0079
X0146Y00715
X01305
X0132Y0079
X01305Y0088
X0132Y00955
X0117
X01155Y0088
X0117Y0079
X01155Y00715
X01005
X0102Y0079
X01005Y0088
X0102Y00955
X00865
X0085Y0088
X00865Y0079
X0085Y00715
X007
X00715Y0079
X007Y0088
X00715Y00955
X0056
X00545Y0088
X0056Y0079
X00545Y00715
X0039
X00405Y0079
X0039Y0088
X00405Y00955
X00255
X0024Y0088
X00255Y0079
X0024Y00715
Y01045
X00255Y0112
X0024Y01215
X00255Y0129
X0024Y01385
X00035Y011
X00405Y0112
X0039Y01045
X00545
X0056Y0112
X00545Y01215
X0056Y0129
X00545Y0138
X007
X00715Y0129
X007Y01215
X00715Y0112
X007Y01045
X0039Y01215
X00405Y0129
X0039Y0138
X0085
X00865Y0129
X0085Y01215
X00865Y0112
X0085Y01045
X01005
X0102Y0112
X01005Y01215
X0102Y0129
X01005Y0138
X01155
X0119Y0143
X01345
X01305Y0138
X0132Y0129
X01305Y01215
X0132Y0112
X01305Y01045
X01155
X0117Y0112
X01155Y01215
X0117Y0129
X01475
X0146Y01215
X01475Y0112
X0146Y01045
Y0138
X01495Y0143
X0165
X01615Y0138
X01632289Y01291715
X01615Y01215
X0163Y0112
X01615Y01045
X01765
X0178Y0112
X01765Y01215
X01780968Y01292289
X01765Y0138
X01815Y0139
X0199Y01075
X01985Y0152
X01925Y01825
X0181Y01775
X01775Y018
X01765Y01715
X0178Y01625
X01765Y01545
X0179Y0146
X01615Y01545
X0163Y01625
X01615Y01715
X0163Y01795
X01475
X0146Y01715
X01475Y01625
X0146Y01545
X01305
X0132Y01625
X0125Y0164
X0118
X0117Y01625
X01155Y01545
Y01715
X0117Y01795
X0132
X01305Y01715
X01005
X0102Y01795
X00865
X0085Y01715
X00865067Y01624666
X0085Y01545
X00865Y0146
X0102
X01005Y01545
X0102Y01625
X00715
X007Y01545
X00715Y0146
X0056
X00545Y01545
X0056Y01625
X00545Y01715
X0056Y01795
X00565Y01815
X00615Y018
X0071Y01795
X007Y01715
X0039
X00405Y01795
Y01625
X0039Y01545
X00405Y0146
X00255
X0024Y01545
X00255Y01625
X0024Y01715
X00255Y01795
X0013Y01565
X001Y01865
X00115Y01945
X0031Y0186
X0058Y01925
X01205Y0191
X0123
X0125Y01965
X01505Y01955
X01405Y01835
X0166Y01865
Y0191
X01915Y01945
T02
X00045Y0023
Y002715
X003961Y0191
X0043
T03
X01965Y0017
X00205Y0006
Y0025
Y0041
X0013
X00105Y00315
X00275Y00635
Y00725
Y0097
Y01055
X0028Y01305
Y0139
X01915Y01265
X01875Y0175
X0178
X01755Y0167
X0191Y01815
X00925Y0145
X00505Y01725
X00205Y01745
X00185Y01605
X00085Y01785
Y01975
X00185Y01875
X00205Y01895
X01815Y0185
T04
X01925073Y00200396
X01902573
X01830001Y002008
X01800001Y002008
X01799999Y000992
X01829999
X0183Y0025
Y002754
Y003008
Y003262
X01844999Y003592
X01885Y0036
X0191Y00385
X01885Y0041
X01845001Y004608
X01885Y006
X0191Y00625
X01912Y003262
Y003008
Y002754
Y002499
X01885Y0065
X01849999Y006542
X01850001Y007558
X0185Y007842
Y008858
X018542Y01290001
X018542Y01330001
X018542Y01370001
X0187Y01415
X01915Y01415
X019558Y01369999
X019558Y01329999
Y01289999
X01915Y014658
X0187
X007Y018142
X00654999Y018142
X00614999Y018142
X005781Y01824
X005527Y01824
X005273
X005019Y01824
Y01906
X005273Y01906
X005527
X005782Y01906
X00615001Y019158
X00655001Y019158
X007Y019158
X01525001Y019558
X01570001
X01615001
X01614999Y018542
X01569999
X01524999
X016792Y01865
Y0191
X0173
Y01865
T05
X0199Y0078
Y0083
Y0094
Y0099
X011046Y013073
X010792
X010538
X010284
X01003
X009776
X009522
X009268
X009014
X00876
X0113
X011554
X011808
X012062
X012316
X01257
X012824Y013073
X013078Y013073
X013332
X013586
X0199Y0115
Y011
X01925Y01525
X018996
X018742Y01525
X01358523Y01484966
X01333123
X01307723
X01282323Y01484966
X01256923Y01484966
X01231523Y01484966
X01206123
X01180723Y01484966
X011554Y01485
X0113
X011046Y01485
X010792
X010538Y01485
X010284
X01003
X009776Y01485
X009522Y01485
X009268
X009014
X00876
X00155Y014892
Y015146
Y0154
Y015654
X01229Y01985
X01249
X01269
X01685
X01705
X01725
X0178Y019054
Y0188
Y018546
T06
X019508Y0159
X018492
X0184Y018242
Y019258
T08
X01208Y01985
X0129
X01664
X01746
T09
X0189Y00455
Y00555
T10
X01965Y0077
Y0084
X01965Y0093
X01965Y01
Y0109
Y0116
T11
X0195Y0005
X0005
Y0195
X0195
M30
