%TF.GenerationSoftware,Altium Limited,Altium Designer,24.5.1 (21)*%
G04 Layer_Color=255*
%FSLAX45Y45*%
%MOMM*%
%TF.SameCoordinates,D7596F51-2DA0-4622-90E6-AC5F46AEA47A*%
%TF.FilePolarity,Positive*%
%TF.FileFunction,Pads,Top*%
%TF.Part,Single*%
G01*
G75*
%TA.AperFunction,SMDPad,CuDef*%
%ADD10R,0.95000X1.35000*%
%ADD11R,1.20000X1.80000*%
%ADD12R,1.80000X1.20000*%
%ADD13R,1.90000X1.90000*%
%ADD14R,1.35000X0.40000*%
%TA.AperFunction,ComponentPad*%
%ADD19C,1.50000*%
G04:AMPARAMS|DCode=20|XSize=2.5mm|YSize=2.8mm|CornerRadius=1.25mm|HoleSize=0mm|Usage=FLASHONLY|Rotation=270.000|XOffset=0mm|YOffset=0mm|HoleType=Round|Shape=RoundedRectangle|*
%AMROUNDEDRECTD20*
21,1,2.50000,0.30000,0,0,270.0*
21,1,0.00000,2.80000,0,0,270.0*
1,1,2.50000,-0.15000,0.00000*
1,1,2.50000,-0.15000,0.00000*
1,1,2.50000,0.15000,0.00000*
1,1,2.50000,0.15000,0.00000*
%
%ADD20ROUNDEDRECTD20*%
%ADD21C,1.60000*%
%ADD22C,1.90000*%
%ADD23C,1.70000*%
%TA.AperFunction,ViaPad*%
%ADD24C,1.00000*%
%TA.AperFunction,ComponentPad*%
%ADD25C,2.15000*%
%ADD26C,1.45000*%
%ADD27C,3.50000*%
%ADD28C,1.80000*%
%ADD29R,1.50000X1.50000*%
%ADD30R,1.50000X1.50000*%
%ADD31R,1.30000X1.30000*%
%ADD32C,1.30000*%
%ADD33C,0.70000*%
%TA.AperFunction,WasherPad*%
%ADD34C,3.20000*%
D10*
X10220000Y10550000D02*
D03*
X9900000Y11030000D02*
D03*
X10220000D02*
D03*
X9900000Y10550000D02*
D03*
X8670000D02*
D03*
X8350000Y11030000D02*
D03*
X8670000D02*
D03*
X8350000Y10550000D02*
D03*
X7170000D02*
D03*
X6850000Y11030000D02*
D03*
X7170000D02*
D03*
X6850000Y10550000D02*
D03*
X5620000D02*
D03*
X5300000Y11030000D02*
D03*
X5620000D02*
D03*
X5300000Y10550000D02*
D03*
X4070000D02*
D03*
X3750000Y11030000D02*
D03*
X4070000D02*
D03*
X3750000Y10550000D02*
D03*
X2570000D02*
D03*
X2250000Y11030000D02*
D03*
X2570000D02*
D03*
X2250000Y10550000D02*
D03*
X2570000Y8900000D02*
D03*
X2250000Y9380000D02*
D03*
X2570000D02*
D03*
X2250000Y8900000D02*
D03*
X4070000D02*
D03*
X3750000Y9380000D02*
D03*
X4070000D02*
D03*
X3750000Y8900000D02*
D03*
X5620000D02*
D03*
X5300000Y9380000D02*
D03*
X5620000D02*
D03*
X5300000Y8900000D02*
D03*
X7170000D02*
D03*
X6850000Y9380000D02*
D03*
X7170000D02*
D03*
X6850000Y8900000D02*
D03*
X8670000D02*
D03*
X8350000Y9380000D02*
D03*
X8670000D02*
D03*
X8350000Y8900000D02*
D03*
X10220000D02*
D03*
X9900000Y9380000D02*
D03*
X10220000D02*
D03*
X9900000Y8900000D02*
D03*
X11720000D02*
D03*
X11400000Y9380000D02*
D03*
X11720000D02*
D03*
X11400000Y8900000D02*
D03*
X13220000D02*
D03*
X12900000Y9380000D02*
D03*
X13220000D02*
D03*
X12900000Y8900000D02*
D03*
X14770000D02*
D03*
X14450000Y9380000D02*
D03*
X14770000D02*
D03*
X14450000Y8900000D02*
D03*
X16320000D02*
D03*
X16000000Y9380000D02*
D03*
X16320000D02*
D03*
X16000000Y8900000D02*
D03*
X17820000D02*
D03*
X17500000Y9380000D02*
D03*
X17820000D02*
D03*
X17500000Y8900000D02*
D03*
X17820000Y7250000D02*
D03*
X17500000Y7730000D02*
D03*
X17820000D02*
D03*
X17500000Y7250000D02*
D03*
X16320000D02*
D03*
X16000000Y7730000D02*
D03*
X16320000D02*
D03*
X16000000Y7250000D02*
D03*
X14770000D02*
D03*
X14450000Y7730000D02*
D03*
X14770000D02*
D03*
X14450000Y7250000D02*
D03*
X13220000D02*
D03*
X12900000Y7730000D02*
D03*
X13220000D02*
D03*
X12900000Y7250000D02*
D03*
X11720000D02*
D03*
X11400000Y7730000D02*
D03*
X11720000D02*
D03*
X11400000Y7250000D02*
D03*
X10220000D02*
D03*
X9900000Y7730000D02*
D03*
X10220000D02*
D03*
X9900000Y7250000D02*
D03*
X8670000D02*
D03*
X8350000Y7730000D02*
D03*
X8670000D02*
D03*
X8350000Y7250000D02*
D03*
X7170000D02*
D03*
X6850000Y7730000D02*
D03*
X7170000D02*
D03*
X6850000Y7250000D02*
D03*
X5620000D02*
D03*
X5300000Y7730000D02*
D03*
X5620000D02*
D03*
X5300000Y7250000D02*
D03*
X4070000D02*
D03*
X3750000Y7730000D02*
D03*
X4070000D02*
D03*
X3750000Y7250000D02*
D03*
X2570000D02*
D03*
X2250000Y7730000D02*
D03*
X2570000D02*
D03*
X2250000Y7250000D02*
D03*
X2570000Y5550000D02*
D03*
X2250000Y6030000D02*
D03*
X2570000D02*
D03*
X2250000Y5550000D02*
D03*
X4070000D02*
D03*
X3750000Y6030000D02*
D03*
X4070000D02*
D03*
X3750000Y5550000D02*
D03*
X5620000D02*
D03*
X5300000Y6030000D02*
D03*
X5620000D02*
D03*
X5300000Y5550000D02*
D03*
X7170000D02*
D03*
X6850000Y6030000D02*
D03*
X7170000D02*
D03*
X6850000Y5550000D02*
D03*
X8670000D02*
D03*
X8350000Y6030000D02*
D03*
X8670000D02*
D03*
X8350000Y5550000D02*
D03*
X10220000D02*
D03*
X9900000Y6030000D02*
D03*
X10220000D02*
D03*
X9900000Y5550000D02*
D03*
X11720000D02*
D03*
X11400000Y6030000D02*
D03*
X11720000D02*
D03*
X11400000Y5550000D02*
D03*
X13220000D02*
D03*
X12900000Y6030000D02*
D03*
X13220000D02*
D03*
X12900000Y5550000D02*
D03*
X14770000D02*
D03*
X14450000Y6030000D02*
D03*
X14770000D02*
D03*
X14450000Y5550000D02*
D03*
X16320000D02*
D03*
X16000000Y6030000D02*
D03*
X16320000D02*
D03*
X16000000Y5550000D02*
D03*
X17820000D02*
D03*
X17500000Y6030000D02*
D03*
X17820000D02*
D03*
X17500000Y5550000D02*
D03*
X17820000Y3900000D02*
D03*
X17500000Y4380000D02*
D03*
X17820000D02*
D03*
X17500000Y3900000D02*
D03*
X16320000D02*
D03*
X16000000Y4380000D02*
D03*
X16320000D02*
D03*
X16000000Y3900000D02*
D03*
X14770000D02*
D03*
X14450000Y4380000D02*
D03*
X14770000D02*
D03*
X14450000Y3900000D02*
D03*
X13220000D02*
D03*
X12900000Y4380000D02*
D03*
X13220000D02*
D03*
X12900000Y3900000D02*
D03*
X11720000D02*
D03*
X11400000Y4380000D02*
D03*
X11720000D02*
D03*
X11400000Y3900000D02*
D03*
X10220000D02*
D03*
X9900000Y4380000D02*
D03*
X10220000D02*
D03*
X9900000Y3900000D02*
D03*
X8670000D02*
D03*
X8350000Y4380000D02*
D03*
X8670000D02*
D03*
X8350000Y3900000D02*
D03*
X7170000D02*
D03*
X6850000Y4380000D02*
D03*
X7170000D02*
D03*
X6850000Y3900000D02*
D03*
X5620000D02*
D03*
X5300000Y4380000D02*
D03*
X5620000D02*
D03*
X5300000Y3900000D02*
D03*
X4070000D02*
D03*
X3750000Y4380000D02*
D03*
X4070000D02*
D03*
X3750000Y3900000D02*
D03*
X2570000D02*
D03*
X2250000Y4380000D02*
D03*
X2570000D02*
D03*
X2250000Y3900000D02*
D03*
X1160000Y760000D02*
D03*
X840000Y1240000D02*
D03*
X1160000D02*
D03*
X840000Y760000D02*
D03*
X2570000Y2200000D02*
D03*
X2250000Y2680000D02*
D03*
X2570000D02*
D03*
X2250000Y2200000D02*
D03*
X4070000D02*
D03*
X3750000Y2680000D02*
D03*
X4070000D02*
D03*
X3750000Y2200000D02*
D03*
X5620000D02*
D03*
X5300000Y2680000D02*
D03*
X5620000D02*
D03*
X5300000Y2200000D02*
D03*
X7170000D02*
D03*
X6850000Y2680000D02*
D03*
X7170000D02*
D03*
X6850000Y2200000D02*
D03*
X8670000D02*
D03*
X8350000Y2680000D02*
D03*
X8670000D02*
D03*
X8350000Y2200000D02*
D03*
X10220000D02*
D03*
X9900000Y2680000D02*
D03*
X10220000D02*
D03*
X9900000Y2200000D02*
D03*
X11720000D02*
D03*
X11400000Y2680000D02*
D03*
X11720000D02*
D03*
X11400000Y2200000D02*
D03*
X12900000Y2680000D02*
D03*
X13220000D02*
D03*
X12900000Y2200000D02*
D03*
X13220000D02*
D03*
X19160001Y18760001D02*
D03*
X18839999Y19239999D02*
D03*
X19160001D02*
D03*
X18839999Y18760001D02*
D03*
X17820000Y17250000D02*
D03*
X17500000Y17730000D02*
D03*
X17820000D02*
D03*
X17500000Y17250000D02*
D03*
X16320000D02*
D03*
X16000000Y17730000D02*
D03*
X16320000D02*
D03*
X16000000Y17250000D02*
D03*
X14770000D02*
D03*
X14450000Y17730000D02*
D03*
X14770000D02*
D03*
X14450000Y17250000D02*
D03*
X13220000D02*
D03*
X12900000Y17730000D02*
D03*
X13220000D02*
D03*
X12900000Y17250000D02*
D03*
X11720000D02*
D03*
X11400000Y17730000D02*
D03*
X11720000D02*
D03*
X11400000Y17250000D02*
D03*
X10220000D02*
D03*
X9900000Y17730000D02*
D03*
X10220000D02*
D03*
X9900000Y17250000D02*
D03*
X8670000D02*
D03*
X8350000Y17730000D02*
D03*
X8670000D02*
D03*
X8350000Y17250000D02*
D03*
X7170000D02*
D03*
X6850000Y17730000D02*
D03*
X7170000D02*
D03*
X6850000Y17250000D02*
D03*
X5620000D02*
D03*
X5300000Y17730000D02*
D03*
X5620000D02*
D03*
X5300000Y17250000D02*
D03*
X4070000D02*
D03*
X3750000Y17730000D02*
D03*
X4070000D02*
D03*
X3750000Y17250000D02*
D03*
X2570000D02*
D03*
X2250000Y17730000D02*
D03*
X2570000D02*
D03*
X2250000Y17250000D02*
D03*
X1160000Y18760001D02*
D03*
X840000Y19239999D02*
D03*
X1160000D02*
D03*
X840000Y18760001D02*
D03*
X2570000Y15550000D02*
D03*
X2250000Y16030000D02*
D03*
X2570000D02*
D03*
X2250000Y15550000D02*
D03*
X4070000D02*
D03*
X3750000Y16030000D02*
D03*
X4070000D02*
D03*
X3750000Y15550000D02*
D03*
X5620000D02*
D03*
X5300000Y16030000D02*
D03*
X5620000D02*
D03*
X5300000Y15550000D02*
D03*
X7170000D02*
D03*
X6850000Y16030000D02*
D03*
X7170000D02*
D03*
X6850000Y15550000D02*
D03*
X8670000D02*
D03*
X8350000Y16030000D02*
D03*
X8670000D02*
D03*
X8350000Y15550000D02*
D03*
X10220000D02*
D03*
X9900000Y16030000D02*
D03*
X10220000D02*
D03*
X9900000Y15550000D02*
D03*
X11720000D02*
D03*
X11400000Y16030000D02*
D03*
X11720000D02*
D03*
X11400000Y15550000D02*
D03*
X13220000D02*
D03*
X12900000Y16030000D02*
D03*
X13220000D02*
D03*
X12900000Y15550000D02*
D03*
X14770000D02*
D03*
X14450000Y16030000D02*
D03*
X14770000D02*
D03*
X14450000Y15550000D02*
D03*
X16320000D02*
D03*
X16000000Y16030000D02*
D03*
X16320000D02*
D03*
X16000000Y15550000D02*
D03*
X17820000D02*
D03*
X17500000Y16030000D02*
D03*
X17820000D02*
D03*
X17500000Y15550000D02*
D03*
X17820000Y13900000D02*
D03*
X17500000Y14380000D02*
D03*
X17820000D02*
D03*
X17500000Y13900000D02*
D03*
X16320000Y13895369D02*
D03*
X16000000Y14375369D02*
D03*
X16320000D02*
D03*
X16000000Y13895369D02*
D03*
X14770000D02*
D03*
X14450000Y14375369D02*
D03*
X14770000D02*
D03*
X14450000Y13895369D02*
D03*
X13220000D02*
D03*
X12900000Y14375369D02*
D03*
X13220000D02*
D03*
X12900000Y13895369D02*
D03*
X11720000D02*
D03*
X11400000Y14375369D02*
D03*
X11720000D02*
D03*
X11400000Y13895369D02*
D03*
X10220000D02*
D03*
X9900000Y14375369D02*
D03*
X10220000D02*
D03*
X9900000Y13895369D02*
D03*
X8670000D02*
D03*
X8350000Y14375369D02*
D03*
X8670000D02*
D03*
X8350000Y13895369D02*
D03*
X7170000D02*
D03*
X6850000Y14375369D02*
D03*
X7170000D02*
D03*
X6850000Y13895369D02*
D03*
X5620000D02*
D03*
X5300000Y14375369D02*
D03*
X5620000D02*
D03*
X5300000Y13895369D02*
D03*
X4070000D02*
D03*
X3750000Y14375369D02*
D03*
X4070000D02*
D03*
X3750000Y13895369D02*
D03*
X2570000D02*
D03*
X2250000Y14375369D02*
D03*
X2570000D02*
D03*
X2250000Y13895369D02*
D03*
X2570000Y12250000D02*
D03*
X2250000Y12730000D02*
D03*
X2570000D02*
D03*
X2250000Y12250000D02*
D03*
X4070000D02*
D03*
X3750000Y12730000D02*
D03*
X4070000D02*
D03*
X3750000Y12250000D02*
D03*
X5620000D02*
D03*
X5300000Y12730000D02*
D03*
X5620000D02*
D03*
X5300000Y12250000D02*
D03*
X7170000D02*
D03*
X6850000Y12730000D02*
D03*
X7170000D02*
D03*
X6850000Y12250000D02*
D03*
X8670000D02*
D03*
X8350000Y12730000D02*
D03*
X8670000D02*
D03*
X8350000Y12250000D02*
D03*
X10220000D02*
D03*
X9900000Y12730000D02*
D03*
X10220000D02*
D03*
X9900000Y12250000D02*
D03*
X11720000D02*
D03*
X11400000Y12730000D02*
D03*
X11720000D02*
D03*
X11400000Y12250000D02*
D03*
X13220000D02*
D03*
X12900000Y12730000D02*
D03*
X13220000D02*
D03*
X12900000Y12250000D02*
D03*
X14770000D02*
D03*
X14450000Y12730000D02*
D03*
X14770000D02*
D03*
X14450000Y12250000D02*
D03*
X16320000D02*
D03*
X16000000Y12730000D02*
D03*
X16320000D02*
D03*
X16000000Y12250000D02*
D03*
X17820000D02*
D03*
X17500000Y12730000D02*
D03*
X17820000D02*
D03*
X17500000Y12250000D02*
D03*
X17820000Y10550000D02*
D03*
X17500000Y11030000D02*
D03*
X17820000D02*
D03*
X17500000Y10550000D02*
D03*
X16320000D02*
D03*
X16000000Y11030000D02*
D03*
X16320000D02*
D03*
X16000000Y10550000D02*
D03*
X14770000D02*
D03*
X14450000Y11030000D02*
D03*
X14770000D02*
D03*
X14450000Y10550000D02*
D03*
X13220000D02*
D03*
X12900000Y11030000D02*
D03*
X13220000D02*
D03*
X12900000Y10550000D02*
D03*
X11720000D02*
D03*
X11400000Y11030000D02*
D03*
X11720000D02*
D03*
X11400000Y10550000D02*
D03*
X14446030Y2690000D02*
D03*
X14766029D02*
D03*
Y2210000D02*
D03*
X14446030D02*
D03*
X16052565Y2690000D02*
D03*
X16372565D02*
D03*
Y2210000D02*
D03*
X16052565D02*
D03*
X17500000Y2690000D02*
D03*
X17820000D02*
D03*
Y2210000D02*
D03*
X17500000D02*
D03*
X18839999Y760000D02*
D03*
X19160001D02*
D03*
Y1240000D02*
D03*
X18839999D02*
D03*
D11*
X5580000Y16950000D02*
D03*
X5320000D02*
D03*
X7130000D02*
D03*
X6870000D02*
D03*
X8630000D02*
D03*
X8370000D02*
D03*
X10180000D02*
D03*
X9920000D02*
D03*
X11680000D02*
D03*
X11420000D02*
D03*
X13180000D02*
D03*
X12920000D02*
D03*
X14730000D02*
D03*
X14470000D02*
D03*
X16280000D02*
D03*
X16020000D02*
D03*
X17780000D02*
D03*
X17520000D02*
D03*
X19130000Y18450000D02*
D03*
X18870000D02*
D03*
X14730000Y15250000D02*
D03*
X14470000D02*
D03*
X13180000D02*
D03*
X12920000D02*
D03*
X11680000D02*
D03*
X11420000D02*
D03*
X10180000D02*
D03*
X9920000D02*
D03*
X8630000D02*
D03*
X8370000D02*
D03*
X7130000D02*
D03*
X6870000D02*
D03*
X5580000D02*
D03*
X5320000D02*
D03*
X4030000D02*
D03*
X3770000D02*
D03*
X2530000D02*
D03*
X2270000D02*
D03*
X1130000Y18450000D02*
D03*
X870000D02*
D03*
X2530000Y16950000D02*
D03*
X2270000D02*
D03*
X5580000Y13600000D02*
D03*
X5320000D02*
D03*
X7130000D02*
D03*
X6870000D02*
D03*
X8630000D02*
D03*
X8370000D02*
D03*
X10180000D02*
D03*
X9920000D02*
D03*
X11680000D02*
D03*
X11420000D02*
D03*
X13180000D02*
D03*
X12920000D02*
D03*
X14730000D02*
D03*
X14470000D02*
D03*
X16280000D02*
D03*
X16020000D02*
D03*
X17780000D02*
D03*
X17520000D02*
D03*
X17780000Y15250000D02*
D03*
X17520000D02*
D03*
X16280000D02*
D03*
X16020000D02*
D03*
X14730000Y11950000D02*
D03*
X14470000D02*
D03*
X13180000D02*
D03*
X12920000D02*
D03*
X11680000D02*
D03*
X11420000D02*
D03*
X10180000D02*
D03*
X9920000D02*
D03*
X8630000D02*
D03*
X8370000D02*
D03*
X7130000D02*
D03*
X6870000D02*
D03*
X5580000D02*
D03*
X5320000D02*
D03*
X4030000D02*
D03*
X3770000D02*
D03*
X2530000D02*
D03*
X2270000D02*
D03*
X2530000Y13600000D02*
D03*
X2270000D02*
D03*
X4030000D02*
D03*
X3770000D02*
D03*
X5580000Y10250000D02*
D03*
X5320000D02*
D03*
X7130000D02*
D03*
X6870000D02*
D03*
X8630000D02*
D03*
X8370000D02*
D03*
X10180000D02*
D03*
X9920000D02*
D03*
X11680000D02*
D03*
X11420000D02*
D03*
X13180000D02*
D03*
X12920000D02*
D03*
X14730000D02*
D03*
X14470000D02*
D03*
X16280000D02*
D03*
X16020000D02*
D03*
X17780000D02*
D03*
X17520000D02*
D03*
X17780000Y11950000D02*
D03*
X17520000D02*
D03*
X16280000D02*
D03*
X16020000D02*
D03*
X14730000Y8600000D02*
D03*
X14470000D02*
D03*
X13180000D02*
D03*
X12920000D02*
D03*
X11680000D02*
D03*
X11420000D02*
D03*
X10180000D02*
D03*
X9920000D02*
D03*
X8630000D02*
D03*
X8370000D02*
D03*
X7130000D02*
D03*
X6870000D02*
D03*
X5580000D02*
D03*
X5320000D02*
D03*
X4030000D02*
D03*
X3770000D02*
D03*
X2530000D02*
D03*
X2270000D02*
D03*
X2530000Y10250000D02*
D03*
X2270000D02*
D03*
X4030000D02*
D03*
X3770000D02*
D03*
X5580000Y6950000D02*
D03*
X5320000D02*
D03*
X7130000D02*
D03*
X6870000D02*
D03*
X8630000D02*
D03*
X8370000D02*
D03*
X10180000D02*
D03*
X9920000D02*
D03*
X11680000D02*
D03*
X11420000D02*
D03*
X13180000D02*
D03*
X12920000D02*
D03*
X14730000D02*
D03*
X14470000D02*
D03*
X16280000D02*
D03*
X16020000D02*
D03*
X17780000D02*
D03*
X17520000D02*
D03*
X17780000Y8600000D02*
D03*
X17520000D02*
D03*
X16280000D02*
D03*
X16020000D02*
D03*
X14730000Y5250000D02*
D03*
X14470000D02*
D03*
X13180000D02*
D03*
X12920000D02*
D03*
X11680000D02*
D03*
X11420000D02*
D03*
X10180000D02*
D03*
X9920000D02*
D03*
X8630000D02*
D03*
X8370000D02*
D03*
X7130000D02*
D03*
X6870000D02*
D03*
X5580000D02*
D03*
X5320000D02*
D03*
X4030000D02*
D03*
X3770000D02*
D03*
X2530000D02*
D03*
X2270000D02*
D03*
X2530000Y6950000D02*
D03*
X2270000D02*
D03*
X4030000D02*
D03*
X3770000D02*
D03*
X5580000Y3600000D02*
D03*
X5320000D02*
D03*
X7130000D02*
D03*
X6870000D02*
D03*
X8630000D02*
D03*
X8370000D02*
D03*
X10180000D02*
D03*
X9920000D02*
D03*
X11680000D02*
D03*
X11420000D02*
D03*
X13180000D02*
D03*
X12920000D02*
D03*
X14730000D02*
D03*
X14470000D02*
D03*
X16280000D02*
D03*
X16020000D02*
D03*
X17780000D02*
D03*
X17520000D02*
D03*
X17780000Y5250000D02*
D03*
X17520000D02*
D03*
X16280000D02*
D03*
X16020000D02*
D03*
X13180000Y1900000D02*
D03*
X12920000D02*
D03*
X11680000D02*
D03*
X11420000D02*
D03*
X10180000D02*
D03*
X9920000D02*
D03*
X8630000D02*
D03*
X8370000D02*
D03*
X7117327Y1906353D02*
D03*
X6857327D02*
D03*
X5580000Y1900000D02*
D03*
X5320000D02*
D03*
X4030000D02*
D03*
X3770000D02*
D03*
X2530000D02*
D03*
X2270000D02*
D03*
X2530000Y3600000D02*
D03*
X2270000D02*
D03*
X4030000D02*
D03*
X3770000D02*
D03*
X14730000Y1900000D02*
D03*
X14470000D02*
D03*
X16330000D02*
D03*
X16070000D02*
D03*
X17780000D02*
D03*
X17520000D02*
D03*
X4030000Y16950000D02*
D03*
X3770000D02*
D03*
D12*
X1450000Y1130000D02*
D03*
Y870000D02*
D03*
X18550000Y1030000D02*
D03*
Y770000D02*
D03*
D13*
X205000Y2102500D02*
D03*
X205000Y2387500D02*
D03*
Y2627500D02*
D03*
X205000Y2912500D02*
D03*
D14*
X472501Y2442500D02*
D03*
X472500Y2572500D02*
D03*
Y2637500D02*
D03*
Y2507500D02*
D03*
Y2377500D02*
D03*
D19*
X18449992Y3592000D02*
D03*
X18450008Y4608000D02*
D03*
X18542000Y12900008D02*
D03*
X19558000Y12899992D02*
D03*
X19025726Y2003956D02*
D03*
X19250726D02*
D03*
X6549992Y18142000D02*
D03*
X6550008Y19158000D02*
D03*
X18300000Y3262000D02*
D03*
Y2754000D02*
D03*
Y2500000D02*
D03*
Y3008000D02*
D03*
X19120000Y2499000D02*
D03*
Y3262000D02*
D03*
Y2754000D02*
D03*
Y3008000D02*
D03*
X16150008Y19558000D02*
D03*
X16149992Y18542000D02*
D03*
X15699992D02*
D03*
X15700008Y19558000D02*
D03*
X15249992Y18542000D02*
D03*
X15250008Y19558000D02*
D03*
X19100000Y6250000D02*
D03*
X18850000Y6000000D02*
D03*
X17999992Y992000D02*
D03*
X18000008Y2008000D02*
D03*
X18299992Y992000D02*
D03*
X18300008Y2008000D02*
D03*
X18499992Y6542000D02*
D03*
X18500008Y7558000D02*
D03*
X19100000Y3850000D02*
D03*
X18850000Y3600000D02*
D03*
X1550000Y15146001D02*
D03*
Y15400000D02*
D03*
Y15653999D02*
D03*
X18541998Y13300008D02*
D03*
X19558000Y13299992D02*
D03*
X19557999Y13699992D02*
D03*
X18542000Y13700008D02*
D03*
X6150008Y19158000D02*
D03*
X6149992Y18142000D02*
D03*
X5273000Y19060001D02*
D03*
X5527000D02*
D03*
X5019000Y19060001D02*
D03*
X5782000D02*
D03*
X5273000Y18239999D02*
D03*
X5781000Y18239999D02*
D03*
X5527000Y18239999D02*
D03*
X5019000Y18239999D02*
D03*
D20*
X694500Y5312000D02*
D03*
Y3998000D02*
D03*
D21*
X19150000Y14150000D02*
D03*
Y14658000D02*
D03*
X18699998Y14150000D02*
D03*
Y14658000D02*
D03*
X7000000Y19158000D02*
D03*
Y18142000D02*
D03*
X18500000Y7842000D02*
D03*
Y8858000D02*
D03*
X17300000Y19100000D02*
D03*
X16792000D02*
D03*
X17300000Y18650000D02*
D03*
X16792000D02*
D03*
D22*
X18742000Y15249998D02*
D03*
X18996001Y15250000D02*
D03*
X19250000D02*
D03*
X17800000Y18800000D02*
D03*
Y19053999D02*
D03*
Y18546001D02*
D03*
D23*
X18492000Y15900000D02*
D03*
X19508000D02*
D03*
X18400000Y19258000D02*
D03*
Y18242000D02*
D03*
D24*
X4299999Y19100000D02*
D03*
X3960999D02*
D03*
D25*
X12899998Y19850000D02*
D03*
X12079999D02*
D03*
X17460001D02*
D03*
X16639999D02*
D03*
D26*
X12289999D02*
D03*
X12489999D02*
D03*
X12689999D02*
D03*
X16850000D02*
D03*
X17050000D02*
D03*
X17250000D02*
D03*
D27*
X18900000Y5550000D02*
D03*
Y4550000D02*
D03*
D28*
X13077229Y14849657D02*
D03*
X12823230Y14849657D02*
D03*
X12569230Y14849657D02*
D03*
X12315230Y14849657D02*
D03*
X13077998Y13073001D02*
D03*
X12823999Y13073001D02*
D03*
X12570000Y13073001D02*
D03*
X12316000D02*
D03*
X12062000D02*
D03*
X11807999D02*
D03*
X11553999D02*
D03*
X8760000Y14850000D02*
D03*
X9014000D02*
D03*
X9268000D02*
D03*
X9521999D02*
D03*
X9776000Y14850000D02*
D03*
X10030000Y14850000D02*
D03*
X10284000D02*
D03*
X10791999Y14850000D02*
D03*
X8760001Y13073001D02*
D03*
X9013999D02*
D03*
X9267999D02*
D03*
X9776000D02*
D03*
X10284000D02*
D03*
X10538000D02*
D03*
X10791999D02*
D03*
X11046000D02*
D03*
X11299999D02*
D03*
X11554000Y14850000D02*
D03*
X11046000Y14850000D02*
D03*
X11300000Y14850000D02*
D03*
X11807230Y14849657D02*
D03*
X12061230Y14849657D02*
D03*
X10538000Y14850000D02*
D03*
X13585999Y13073001D02*
D03*
X13585229Y14849657D02*
D03*
X13331230D02*
D03*
X9521999Y13073001D02*
D03*
X13332001D02*
D03*
X10030000D02*
D03*
D29*
X18850000Y6500000D02*
D03*
Y4100000D02*
D03*
D30*
X1550000Y14892000D02*
D03*
D31*
X19900000Y9900000D02*
D03*
Y8300000D02*
D03*
Y11500000D02*
D03*
D32*
Y9400000D02*
D03*
Y7800000D02*
D03*
Y11000000D02*
D03*
D33*
X450000Y2715000D02*
D03*
Y2300000D02*
D03*
D34*
X500000Y500000D02*
D03*
X19500000Y19500000D02*
D03*
X500000D02*
D03*
X19500000Y500000D02*
D03*
%TF.MD5,58915a99d4398fea7b18d9cf02fe7685*%
M02*
