%TF.GenerationSoftware,Altium Limited,Altium Designer,24.5.1 (21)*%
G04 Layer_Color=2752767*
%FSLAX45Y45*%
%MOMM*%
%TF.SameCoordinates,D7596F51-2DA0-4622-90E6-AC5F46AEA47A*%
%TF.FilePolarity,Positive*%
%TF.FileFunction,Drawing*%
%TF.Part,Single*%
G01*
G75*
%TA.AperFunction,NonConductor*%
%ADD87C,0.12700*%
%ADD88C,0.16933*%
%ADD89C,0.10160*%
D87*
X18449992Y3541200D02*
X18399191Y3642800D01*
X18500792D01*
X18449992Y3541200D01*
X18450008Y4557200D02*
X18399208Y4658800D01*
X18500809D01*
X18450008Y4557200D01*
X18542000Y12849208D02*
X18491200Y12950809D01*
X18592799D01*
X18542000Y12849208D01*
X19558000Y12849191D02*
X19507201Y12950792D01*
X19608800D01*
X19558000Y12849191D01*
X19150000Y14099200D02*
X19099200Y14200800D01*
X19200800D01*
X19150000Y14099200D01*
Y14607201D02*
X19099200Y14708800D01*
X19200800D01*
X19150000Y14607201D01*
X18699998Y14099200D02*
X18649199Y14200800D01*
X18750800D01*
X18699998Y14099200D01*
Y14607201D02*
X18649199Y14708800D01*
X18750800D01*
X18699998Y14607201D01*
X18466600Y15874600D02*
Y15849200D01*
X18517400D01*
Y15874600D01*
X18542799D01*
Y15925400D01*
X18517400D01*
Y15950800D01*
X18466600D01*
Y15925400D01*
X18441200D01*
Y15874600D01*
X18466600D01*
X19482600D02*
Y15849200D01*
X19533400D01*
Y15874600D01*
X19558800D01*
Y15925400D01*
X19533400D01*
Y15950800D01*
X19482600D01*
Y15925400D01*
X19457201D01*
Y15874600D01*
X19482600D01*
X4249199Y19049200D02*
X4274599Y19100000D01*
X4249199Y19150800D01*
X4299999Y19125400D01*
X4350799Y19150800D01*
X4325399Y19100000D01*
X4350799Y19049200D01*
X4299999Y19074600D01*
X4249199Y19049200D01*
X3910199D02*
X3935599Y19100000D01*
X3910199Y19150800D01*
X3960999Y19125400D01*
X4011799Y19150800D01*
X3986399Y19100000D01*
X4011799Y19049200D01*
X3960999Y19074600D01*
X3910199Y19049200D01*
X19025726Y1953156D02*
X18974927Y2054756D01*
X19076526D01*
X19025726Y1953156D01*
X19250726D02*
X19199927Y2054756D01*
X19301526D01*
X19250726Y1953156D01*
X12849199Y19850000D02*
X12899998Y19900800D01*
X12950800Y19850000D01*
X12899998Y19799200D01*
X12849199Y19850000D01*
X12029199D02*
X12079999Y19900800D01*
X12130799Y19850000D01*
X12079999Y19799200D01*
X12029199Y19850000D01*
X6549992Y18091200D02*
X6499192Y18192799D01*
X6600792D01*
X6549992Y18091200D01*
X6550008Y19107201D02*
X6499208Y19208800D01*
X6600808D01*
X6550008Y19107201D01*
X7000000Y19107201D02*
X6949200Y19208800D01*
X7050800D01*
X7000000Y19107201D01*
Y18091200D02*
X6949200Y18192799D01*
X7050800D01*
X7000000Y18091200D01*
X18849200Y5499200D02*
Y5600800D01*
X18950800D01*
Y5499200D01*
X18849200D01*
X18869521Y5519520D02*
Y5580480D01*
X18930479D01*
Y5519520D01*
X18869521D01*
X18849200Y4499200D02*
Y4600800D01*
X18950800D01*
Y4499200D01*
X18849200D01*
X18869521Y4519520D02*
Y4580480D01*
X18930479D01*
Y4519520D01*
X18869521D01*
X18300000Y3211200D02*
X18249200Y3312800D01*
X18350800D01*
X18300000Y3211200D01*
Y2703200D02*
X18249200Y2804800D01*
X18350800D01*
X18300000Y2703200D01*
Y2449200D02*
X18249200Y2550800D01*
X18350800D01*
X18300000Y2449200D01*
Y2957200D02*
X18249200Y3058800D01*
X18350800D01*
X18300000Y2957200D01*
X19120000Y2448200D02*
X19069200Y2549800D01*
X19170799D01*
X19120000Y2448200D01*
Y3211200D02*
X19069200Y3312800D01*
X19170799D01*
X19120000Y3211200D01*
Y2703200D02*
X19069200Y2804800D01*
X19170799D01*
X19120000Y2703200D01*
Y2957200D02*
X19069200Y3058800D01*
X19170799D01*
X19120000Y2957200D01*
X18500000Y7791200D02*
X18449200Y7892800D01*
X18550800D01*
X18500000Y7791200D01*
Y8807200D02*
X18449200Y8908800D01*
X18550800D01*
X18500000Y8807200D01*
X17409200Y19850000D02*
X17460001Y19900800D01*
X17510800Y19850000D01*
X17460001Y19799200D01*
X17409200Y19850000D01*
X16589200D02*
X16639999Y19900800D01*
X16690800Y19850000D01*
X16639999Y19799200D01*
X16589200Y19850000D01*
X17300000Y19049200D02*
X17249200Y19150800D01*
X17350800D01*
X17300000Y19049200D01*
X16792000D02*
X16741200Y19150800D01*
X16842799D01*
X16792000Y19049200D01*
X17300000Y18599200D02*
X17249200Y18700800D01*
X17350800D01*
X17300000Y18599200D01*
X16792000D02*
X16741200Y18700800D01*
X16842799D01*
X16792000Y18599200D01*
X18374600Y19232600D02*
Y19207201D01*
X18425400D01*
Y19232600D01*
X18450800D01*
Y19283400D01*
X18425400D01*
Y19308800D01*
X18374600D01*
Y19283400D01*
X18349200D01*
Y19232600D01*
X18374600D01*
Y18216600D02*
Y18191200D01*
X18425400D01*
Y18216600D01*
X18450800D01*
Y18267400D01*
X18425400D01*
Y18292799D01*
X18374600D01*
Y18267400D01*
X18349200D01*
Y18216600D01*
X18374600D01*
X16150008Y19507201D02*
X16099208Y19608800D01*
X16200809D01*
X16150008Y19507201D01*
X16149992Y18491200D02*
X16099191Y18592799D01*
X16200792D01*
X16149992Y18491200D01*
X15699992D02*
X15649191Y18592799D01*
X15750792D01*
X15699992Y18491200D01*
X15700008Y19507201D02*
X15649208Y19608800D01*
X15750809D01*
X15700008Y19507201D01*
X15249992Y18491200D02*
X15199191Y18592799D01*
X15300792D01*
X15249992Y18491200D01*
X15250008Y19507201D02*
X15199208Y19608800D01*
X15300809D01*
X15250008Y19507201D01*
X19100000Y6199200D02*
X19049200Y6300800D01*
X19150800D01*
X19100000Y6199200D01*
X18850000Y5949200D02*
X18799200Y6050800D01*
X18900800D01*
X18850000Y5949200D01*
Y6449200D02*
X18799200Y6550800D01*
X18900800D01*
X18850000Y6449200D01*
X17999992Y941200D02*
X17949191Y1042800D01*
X18050792D01*
X17999992Y941200D01*
X18000008Y1957200D02*
X17949208Y2058800D01*
X18050809D01*
X18000008Y1957200D01*
X18299992Y941200D02*
X18249191Y1042800D01*
X18350792D01*
X18299992Y941200D01*
X18300008Y1957200D02*
X18249208Y2058800D01*
X18350809D01*
X18300008Y1957200D01*
X18499992Y6491200D02*
X18449191Y6592800D01*
X18550792D01*
X18499992Y6491200D01*
X18500008Y7507200D02*
X18449208Y7608800D01*
X18550809D01*
X18500008Y7507200D01*
X19100000Y3799200D02*
X19049200Y3900800D01*
X19150800D01*
X19100000Y3799200D01*
X18850000Y3549200D02*
X18799200Y3650800D01*
X18900800D01*
X18850000Y3549200D01*
Y4049200D02*
X18799200Y4150800D01*
X18900800D01*
X18850000Y4049200D01*
X19599200Y9249200D02*
X19624600D01*
X19650000Y9274600D01*
X19675400Y9249200D01*
X19700800D01*
Y9274600D01*
X19675400Y9300000D01*
X19700800Y9325400D01*
Y9350800D01*
X19675400D01*
X19650000Y9325400D01*
X19624600Y9350800D01*
X19599200D01*
Y9325400D01*
X19624600Y9300000D01*
X19599200Y9274600D01*
Y9249200D01*
X19599200Y9949200D02*
X19624600D01*
X19650000Y9974600D01*
X19675400Y9949200D01*
X19700800D01*
Y9974600D01*
X19675400Y10000000D01*
X19700800Y10025400D01*
Y10050800D01*
X19675400D01*
X19650000Y10025400D01*
X19624600Y10050800D01*
X19599200D01*
Y10025400D01*
X19624600Y10000000D01*
X19599200Y9974600D01*
Y9949200D01*
Y7649200D02*
X19624600D01*
X19650000Y7674600D01*
X19675400Y7649200D01*
X19700800D01*
Y7674600D01*
X19675400Y7700000D01*
X19700800Y7725400D01*
Y7750800D01*
X19675400D01*
X19650000Y7725400D01*
X19624600Y7750800D01*
X19599200D01*
Y7725400D01*
X19624600Y7700000D01*
X19599200Y7674600D01*
Y7649200D01*
Y8349200D02*
X19624600D01*
X19650000Y8374600D01*
X19675400Y8349200D01*
X19700800D01*
Y8374600D01*
X19675400Y8400000D01*
X19700800Y8425400D01*
Y8450800D01*
X19675400D01*
X19650000Y8425400D01*
X19624600Y8450800D01*
X19599200D01*
Y8425400D01*
X19624600Y8400000D01*
X19599200Y8374600D01*
Y8349200D01*
Y10849200D02*
X19624600D01*
X19650000Y10874600D01*
X19675400Y10849200D01*
X19700800D01*
Y10874600D01*
X19675400Y10900000D01*
X19700800Y10925400D01*
Y10950800D01*
X19675400D01*
X19650000Y10925400D01*
X19624600Y10950800D01*
X19599200D01*
Y10925400D01*
X19624600Y10900000D01*
X19599200Y10874600D01*
Y10849200D01*
Y11549200D02*
X19624600D01*
X19650000Y11574600D01*
X19675400Y11549200D01*
X19700800D01*
Y11574600D01*
X19675400Y11600000D01*
X19700800Y11625400D01*
Y11650800D01*
X19675400D01*
X19650000Y11625400D01*
X19624600Y11650800D01*
X19599200D01*
Y11625400D01*
X19624600Y11600000D01*
X19599200Y11574600D01*
Y11549200D01*
X18541998Y13249208D02*
X18491199Y13350809D01*
X18592799D01*
X18541998Y13249208D01*
X19558000Y13249191D02*
X19507201Y13350792D01*
X19608800D01*
X19558000Y13249191D01*
X19557999Y13649191D02*
X19507199Y13750792D01*
X19608800D01*
X19557999Y13649191D01*
X18542000Y13649208D02*
X18491200Y13750809D01*
X18592799D01*
X18542000Y13649208D01*
X6150008Y19107201D02*
X6099208Y19208800D01*
X6200808D01*
X6150008Y19107201D01*
X6149992Y18091200D02*
X6099192Y18192799D01*
X6200792D01*
X6149992Y18091200D01*
X5273000Y19009200D02*
X5222200Y19110800D01*
X5323800D01*
X5273000Y19009200D01*
X5527000D02*
X5476200Y19110800D01*
X5577800D01*
X5527000Y19009200D01*
X5019000Y19009200D02*
X4968200Y19110800D01*
X5069800D01*
X5019000Y19009200D01*
X5782000D02*
X5731200Y19110800D01*
X5832800D01*
X5782000Y19009200D01*
X5273000Y18189200D02*
X5222200Y18290800D01*
X5323800D01*
X5273000Y18189200D01*
X5781000Y18189200D02*
X5730200Y18290800D01*
X5831800D01*
X5781000Y18189200D01*
X5527000Y18189200D02*
X5476200Y18290800D01*
X5577800D01*
X5527000Y18189200D01*
X5019000Y18189200D02*
X4968200Y18290800D01*
X5069800D01*
X5019000Y18189200D01*
X399200Y2664200D02*
X424600Y2715000D01*
X399200Y2765800D01*
X450000Y2740400D01*
X500800Y2765800D01*
X475400Y2715000D01*
X500800Y2664200D01*
X450000Y2689600D01*
X399200Y2664200D01*
Y2249200D02*
X424600Y2300000D01*
X399200Y2350800D01*
X450000Y2325400D01*
X500800Y2350800D01*
X475400Y2300000D01*
X500800Y2249200D01*
X450000Y2274600D01*
X399200Y2249200D01*
X500000Y449200D02*
X525400Y474600D01*
X550800D01*
X525400Y500000D01*
X550800Y525400D01*
X525400D01*
X500000Y550800D01*
X474600Y525400D01*
X449200D01*
X474600Y500000D01*
X449200Y474600D01*
X474600D01*
X500000Y449200D01*
X19500000Y19449200D02*
X19525400Y19474600D01*
X19550800D01*
X19525400Y19500000D01*
X19550800Y19525400D01*
X19525400D01*
X19500000Y19550800D01*
X19474600Y19525400D01*
X19449200D01*
X19474600Y19500000D01*
X19449200Y19474600D01*
X19474600D01*
X19500000Y19449200D01*
X500000D02*
X525400Y19474600D01*
X550800D01*
X525400Y19500000D01*
X550800Y19525400D01*
X525400D01*
X500000Y19550800D01*
X474600Y19525400D01*
X449200D01*
X474600Y19500000D01*
X449200Y19474600D01*
X474600D01*
X500000Y19449200D01*
X19500000Y449200D02*
X19525400Y474600D01*
X19550800D01*
X19525400Y500000D01*
X19550800Y525400D01*
X19525400D01*
X19500000Y550800D01*
X19474600Y525400D01*
X19449200D01*
X19474600Y500000D01*
X19449200Y474600D01*
X19474600D01*
X19500000Y449200D01*
X19650000Y1649200D02*
X19599200Y1750800D01*
X19700800D01*
X19650000Y1649200D01*
Y1669520D02*
X19619521Y1730480D01*
X19680479D01*
X19650000Y1669520D01*
X19150000Y12599200D02*
X19099200Y12700800D01*
X19200800D01*
X19150000Y12599200D01*
Y12619520D02*
X19119521Y12680480D01*
X19180479D01*
X19150000Y12619520D01*
X9250000Y14449200D02*
X9199200Y14550800D01*
X9300800D01*
X9250000Y14449200D01*
Y14469521D02*
X9219520Y14530479D01*
X9280480D01*
X9250000Y14469521D01*
X641751Y2326700D02*
Y2428300D01*
X743351D01*
Y2326700D01*
X641751D01*
X649200Y2449200D02*
Y2550800D01*
X750800D01*
Y2449200D01*
X649200D01*
Y2199200D02*
Y2300800D01*
X750800D01*
Y2199200D01*
X649200D01*
X19249200Y2449200D02*
Y2550800D01*
X19350800D01*
Y2449200D01*
X19249200D01*
Y3799200D02*
Y3900800D01*
X19350800D01*
Y3799200D01*
X19249200D01*
X18649200Y4049200D02*
Y4150800D01*
X18750800D01*
Y4049200D01*
X18649200D01*
X17599200Y10399200D02*
Y10500800D01*
X17700800D01*
Y10399200D01*
X17599200D01*
X16099200D02*
Y10500800D01*
X16200800D01*
Y10399200D01*
X16099200D01*
X14549200D02*
Y10500800D01*
X14650800D01*
Y10399200D01*
X14549200D01*
X12999200D02*
Y10500800D01*
X13100800D01*
Y10399200D01*
X12999200D01*
X11499200D02*
Y10500800D01*
X11600800D01*
Y10399200D01*
X11499200D01*
X9999200D02*
Y10500800D01*
X10100800D01*
Y10399200D01*
X9999200D01*
X8449200D02*
Y10500800D01*
X8550800D01*
Y10399200D01*
X8449200D01*
X6949200D02*
Y10500800D01*
X7050800D01*
Y10399200D01*
X6949200D01*
X5399200D02*
Y10500800D01*
X5500800D01*
Y10399200D01*
X5399200D01*
X3849200D02*
Y10500800D01*
X3950800D01*
Y10399200D01*
X3849200D01*
X2349200D02*
Y10500800D01*
X2450800D01*
Y10399200D01*
X2349200D01*
X19799200Y15149200D02*
Y15250800D01*
X19900800D01*
Y15149200D01*
X19799200D01*
X299200Y10949200D02*
Y11050800D01*
X400800D01*
Y10949200D01*
X299200D01*
X13999200Y18299200D02*
Y18400800D01*
X14100800D01*
Y18299200D01*
X13999200D01*
X3049200Y18549200D02*
Y18650800D01*
X3150800D01*
Y18549200D01*
X3049200D01*
X7099200Y399200D02*
Y500800D01*
X7200800D01*
Y399200D01*
X7099200D01*
X19099200Y19399200D02*
Y19500800D01*
X19200800D01*
Y19399200D01*
X19099200D01*
X19199200Y18199200D02*
Y18300800D01*
X19300800D01*
Y18199200D01*
X19199200D01*
X18049200Y17699200D02*
Y17800800D01*
X18150800D01*
Y17699200D01*
X18049200D01*
X17599200Y17099200D02*
Y17200800D01*
X17700800D01*
Y17099200D01*
X17599200D01*
X16099200D02*
Y17200800D01*
X16200800D01*
Y17099200D01*
X16099200D01*
X14549200D02*
Y17200800D01*
X14650800D01*
Y17099200D01*
X14549200D01*
X12999200D02*
Y17200800D01*
X13100800D01*
Y17099200D01*
X12999200D01*
X11499200D02*
Y17200800D01*
X11600800D01*
Y17099200D01*
X11499200D01*
X9999200D02*
Y17200800D01*
X10100800D01*
Y17099200D01*
X9999200D01*
X8449200D02*
Y17200800D01*
X8550800D01*
Y17099200D01*
X8449200D01*
X6949200D02*
Y17200800D01*
X7050800D01*
Y17099200D01*
X6949200D01*
X2349200Y15399200D02*
Y15500800D01*
X2450800D01*
Y15399200D01*
X2349200D01*
X3849200D02*
Y15500800D01*
X3950800D01*
Y15399200D01*
X3849200D01*
X5399200D02*
Y15500800D01*
X5500800D01*
Y15399200D01*
X5399200D01*
X6949200D02*
Y15500800D01*
X7050800D01*
Y15399200D01*
X6949200D01*
X8449200D02*
Y15500800D01*
X8550800D01*
Y15399200D01*
X8449200D01*
X9999200D02*
Y15500800D01*
X10100800D01*
Y15399200D01*
X9999200D01*
X11499200D02*
Y15500800D01*
X11600800D01*
Y15399200D01*
X11499200D01*
X12999200D02*
Y15500800D01*
X13100800D01*
Y15399200D01*
X12999200D01*
X14549200D02*
Y15500800D01*
X14650800D01*
Y15399200D01*
X14549200D01*
X16099200D02*
Y15500800D01*
X16200800D01*
Y15399200D01*
X16099200D01*
X17599200D02*
Y15500800D01*
X17700800D01*
Y15399200D01*
X17599200D01*
X18099200Y13849200D02*
Y13950800D01*
X18200800D01*
Y13849200D01*
X18099200D01*
X17599200Y13749200D02*
Y13850800D01*
X17700800D01*
Y13749200D01*
X17599200D01*
X16099200D02*
Y13850800D01*
X16200800D01*
Y13749200D01*
X16099200D01*
X14549200D02*
Y13850800D01*
X14650800D01*
Y13749200D01*
X14549200D01*
X12999200D02*
Y13850800D01*
X13100800D01*
Y13749200D01*
X12999200D01*
X11499200D02*
Y13850800D01*
X11600800D01*
Y13749200D01*
X11499200D01*
X9999200D02*
Y13850800D01*
X10100800D01*
Y13749200D01*
X9999200D01*
X8449200D02*
Y13850800D01*
X8550800D01*
Y13749200D01*
X8449200D01*
X6949200D02*
Y13850800D01*
X7050800D01*
Y13749200D01*
X6949200D01*
X5399200D02*
Y13850800D01*
X5500800D01*
Y13749200D01*
X5399200D01*
X3849200D02*
Y13850800D01*
X3950800D01*
Y13749200D01*
X3849200D01*
X2349200Y13799200D02*
Y13900800D01*
X2450800D01*
Y13799200D01*
X2349200D01*
Y12099200D02*
Y12200800D01*
X2450800D01*
Y12099200D01*
X2349200D01*
X3849200D02*
Y12200800D01*
X3950800D01*
Y12099200D01*
X3849200D01*
X5399200D02*
Y12200800D01*
X5500800D01*
Y12099200D01*
X5399200D01*
X6949200D02*
Y12200800D01*
X7050800D01*
Y12099200D01*
X6949200D01*
X8449200D02*
Y12200800D01*
X8550800D01*
Y12099200D01*
X8449200D01*
X9999200D02*
Y12200800D01*
X10100800D01*
Y12099200D01*
X9999200D01*
X11499200D02*
Y12200800D01*
X11600800D01*
Y12099200D01*
X11499200D01*
X12999200D02*
Y12200800D01*
X13100800D01*
Y12099200D01*
X12999200D01*
X14549200D02*
Y12200800D01*
X14650800D01*
Y12099200D01*
X14549200D01*
X16099200D02*
Y12200800D01*
X16200800D01*
Y12099200D01*
X16099200D01*
X17599200D02*
Y12200800D01*
X17700800D01*
Y12099200D01*
X17599200D01*
Y8749200D02*
Y8850800D01*
X17700800D01*
Y8749200D01*
X17599200D01*
X16099200D02*
Y8850800D01*
X16200800D01*
Y8749200D01*
X16099200D01*
X14549200D02*
Y8850800D01*
X14650800D01*
Y8749200D01*
X14549200D01*
X12999200D02*
Y8850800D01*
X13100800D01*
Y8749200D01*
X12999200D01*
X11499200D02*
Y8850800D01*
X11600800D01*
Y8749200D01*
X11499200D01*
X9999200D02*
Y8850800D01*
X10100800D01*
Y8749200D01*
X9999200D01*
X8449200D02*
Y8850800D01*
X8550800D01*
Y8749200D01*
X8449200D01*
X6949200D02*
Y8850800D01*
X7050800D01*
Y8749200D01*
X6949200D01*
X5399200D02*
Y8850800D01*
X5500800D01*
Y8749200D01*
X5399200D01*
X3849200D02*
Y8850800D01*
X3950800D01*
Y8749200D01*
X3849200D01*
X2349200D02*
Y8850800D01*
X2450800D01*
Y8749200D01*
X2349200D01*
Y7099200D02*
Y7200800D01*
X2450800D01*
Y7099200D01*
X2349200D01*
X3849200D02*
Y7200800D01*
X3950800D01*
Y7099200D01*
X3849200D01*
X5399200D02*
Y7200800D01*
X5500800D01*
Y7099200D01*
X5399200D01*
X6949200D02*
Y7200800D01*
X7050800D01*
Y7099200D01*
X6949200D01*
X8449200D02*
Y7200800D01*
X8550800D01*
Y7099200D01*
X8449200D01*
X9999200D02*
Y7200800D01*
X10100800D01*
Y7099200D01*
X9999200D01*
X11499200D02*
Y7200800D01*
X11600800D01*
Y7099200D01*
X11499200D01*
X12999200D02*
Y7200800D01*
X13100800D01*
Y7099200D01*
X12999200D01*
X14549200D02*
Y7200800D01*
X14650800D01*
Y7099200D01*
X14549200D01*
X16099200D02*
Y7200800D01*
X16200800D01*
Y7099200D01*
X16099200D01*
X17599200D02*
Y7200800D01*
X17700800D01*
Y7099200D01*
X17599200D01*
Y5399200D02*
Y5500800D01*
X17700800D01*
Y5399200D01*
X17599200D01*
X16099200D02*
Y5500800D01*
X16200800D01*
Y5399200D01*
X16099200D01*
X14549200D02*
Y5500800D01*
X14650800D01*
Y5399200D01*
X14549200D01*
X12999200D02*
Y5500800D01*
X13100800D01*
Y5399200D01*
X12999200D01*
X11499200D02*
Y5500800D01*
X11600800D01*
Y5399200D01*
X11499200D01*
X9999200D02*
Y5500800D01*
X10100800D01*
Y5399200D01*
X9999200D01*
X8449200D02*
Y5500800D01*
X8550800D01*
Y5399200D01*
X8449200D01*
X6949200D02*
Y5500800D01*
X7050800D01*
Y5399200D01*
X6949200D01*
X5399200D02*
Y5500800D01*
X5500800D01*
Y5399200D01*
X5399200D01*
X3849200D02*
Y5500800D01*
X3950800D01*
Y5399200D01*
X3849200D01*
X2349200D02*
Y5500800D01*
X2450800D01*
Y5399200D01*
X2349200D01*
Y3749200D02*
Y3850800D01*
X2450800D01*
Y3749200D01*
X2349200D01*
X3849200D02*
Y3850800D01*
X3950800D01*
Y3749200D01*
X3849200D01*
X5399200D02*
Y3850800D01*
X5500800D01*
Y3749200D01*
X5399200D01*
X6949200D02*
Y3850800D01*
X7050800D01*
Y3749200D01*
X6949200D01*
X8449200D02*
Y3850800D01*
X8550800D01*
Y3749200D01*
X8449200D01*
X9999200D02*
Y3850800D01*
X10100800D01*
Y3749200D01*
X9999200D01*
X11499200D02*
Y3850800D01*
X11600800D01*
Y3749200D01*
X11499200D01*
X12999200D02*
Y3850800D01*
X13100800D01*
Y3749200D01*
X12999200D01*
X14549200D02*
Y3850800D01*
X14650800D01*
Y3749200D01*
X14549200D01*
X16099200D02*
Y3850800D01*
X16200800D01*
Y3749200D01*
X16099200D01*
X17599911Y3751039D02*
Y3852639D01*
X17701512D01*
Y3751039D01*
X17599911D01*
X18699200Y972775D02*
Y1074375D01*
X18800800D01*
Y972775D01*
X18699200D01*
X17599200Y2049200D02*
Y2150800D01*
X17700800D01*
Y2049200D01*
X17599200D01*
X16149200D02*
Y2150800D01*
X16250800D01*
Y2049200D01*
X16149200D01*
X14549200D02*
Y2150800D01*
X14650800D01*
Y2049200D01*
X14549200D01*
X12999200D02*
Y2150800D01*
X13100800D01*
Y2049200D01*
X12999200D01*
X11499200D02*
Y2150800D01*
X11600800D01*
Y2049200D01*
X11499200D01*
X9999200D02*
Y2150800D01*
X10100800D01*
Y2049200D01*
X9999200D01*
X8449200D02*
Y2150800D01*
X8550800D01*
Y2049200D01*
X8449200D01*
X6949200D02*
Y2150800D01*
X7050800D01*
Y2049200D01*
X6949200D01*
X5399200D02*
Y2150800D01*
X5500800D01*
Y2049200D01*
X5399200D01*
X3849200D02*
Y2150800D01*
X3950800D01*
Y2049200D01*
X3849200D01*
X2349200D02*
Y2150800D01*
X2450800D01*
Y2049200D01*
X2349200D01*
X1161427Y1026946D02*
Y1128546D01*
X1263027D01*
Y1026946D01*
X1161427D01*
X1099200Y1349200D02*
Y1450800D01*
X1200800D01*
Y1349200D01*
X1099200D01*
X1149200Y5099200D02*
Y5200800D01*
X1250800D01*
Y5099200D01*
X1149200D01*
X1249200Y4949200D02*
Y5050800D01*
X1350800D01*
Y4949200D01*
X1249200D01*
X749200D02*
Y5050800D01*
X850800D01*
Y4949200D01*
X749200D01*
X19111652Y1379929D02*
Y1481529D01*
X19213251D01*
Y1379929D01*
X19111652D01*
X19199200Y2149200D02*
Y2250800D01*
X19300800D01*
Y2149200D01*
X19199200D01*
X17749200Y2799200D02*
Y2900800D01*
X17850800D01*
Y2799200D01*
X17749200D01*
X16299200D02*
Y2900800D01*
X16400800D01*
Y2799200D01*
X16299200D01*
X14699200D02*
Y2900800D01*
X14800800D01*
Y2799200D01*
X14699200D01*
X13149200D02*
Y2900800D01*
X13250800D01*
Y2799200D01*
X13149200D01*
X11649200D02*
Y2900800D01*
X11750800D01*
Y2799200D01*
X11649200D01*
X10149200D02*
Y2900800D01*
X10250800D01*
Y2799200D01*
X10149200D01*
X8599200D02*
Y2900800D01*
X8700800D01*
Y2799200D01*
X8599200D01*
X7099200D02*
Y2900800D01*
X7200800D01*
Y2799200D01*
X7099200D01*
X5549200D02*
Y2900800D01*
X5650800D01*
Y2799200D01*
X5549200D01*
X3999200D02*
Y2900800D01*
X4100800D01*
Y2799200D01*
X3999200D01*
X2499200D02*
Y2900800D01*
X2600800D01*
Y2799200D01*
X2499200D01*
Y4499200D02*
Y4600800D01*
X2600800D01*
Y4499200D01*
X2499200D01*
X3999200D02*
Y4600800D01*
X4100800D01*
Y4499200D01*
X3999200D01*
X5549200D02*
Y4600800D01*
X5650800D01*
Y4499200D01*
X5549200D01*
X7099200D02*
Y4600800D01*
X7200800D01*
Y4499200D01*
X7099200D01*
X8599200D02*
Y4600800D01*
X8700800D01*
Y4499200D01*
X8599200D01*
X10149200D02*
Y4600800D01*
X10250800D01*
Y4499200D01*
X10149200D01*
X11649200D02*
Y4600800D01*
X11750800D01*
Y4499200D01*
X11649200D01*
X13149200D02*
Y4600800D01*
X13250800D01*
Y4499200D01*
X13149200D01*
X14699200D02*
Y4600800D01*
X14800800D01*
Y4499200D01*
X14699200D01*
X16249200D02*
Y4600800D01*
X16350800D01*
Y4499200D01*
X16249200D01*
X17749200D02*
Y4600800D01*
X17850800D01*
Y4499200D01*
X17749200D01*
Y6149200D02*
Y6250800D01*
X17850800D01*
Y6149200D01*
X17749200D01*
X16249200D02*
Y6250800D01*
X16350800D01*
Y6149200D01*
X16249200D01*
X14699200D02*
Y6250800D01*
X14800800D01*
Y6149200D01*
X14699200D01*
X13149200D02*
Y6250800D01*
X13250800D01*
Y6149200D01*
X13149200D01*
X11649200D02*
Y6250800D01*
X11750800D01*
Y6149200D01*
X11649200D01*
X10149200D02*
Y6250800D01*
X10250800D01*
Y6149200D01*
X10149200D01*
X8599200D02*
Y6250800D01*
X8700800D01*
Y6149200D01*
X8599200D01*
X7099200D02*
Y6250800D01*
X7200800D01*
Y6149200D01*
X7099200D01*
X5549200D02*
Y6250800D01*
X5650800D01*
Y6149200D01*
X5549200D01*
X3999200D02*
Y6250800D01*
X4100800D01*
Y6149200D01*
X3999200D01*
X2499200D02*
Y6250800D01*
X2600800D01*
Y6149200D01*
X2499200D01*
X2750000Y6299200D02*
X2699200Y6400800D01*
X2800800D01*
X2750000Y6299200D01*
Y6319520D02*
X2719520Y6380480D01*
X2780480D01*
X2750000Y6319520D01*
X17799200Y7899200D02*
Y8000800D01*
X17900800D01*
Y7899200D01*
X17799200D01*
X16249200D02*
Y8000800D01*
X16350800D01*
Y7899200D01*
X16249200D01*
X14699200Y7849200D02*
Y7950800D01*
X14800800D01*
Y7849200D01*
X14699200D01*
X13149200D02*
Y7950800D01*
X13250800D01*
Y7849200D01*
X13149200D01*
X11649200D02*
Y7950800D01*
X11750800D01*
Y7849200D01*
X11649200D01*
X10149200D02*
Y7950800D01*
X10250800D01*
Y7849200D01*
X10149200D01*
X8599200D02*
Y7950800D01*
X8700800D01*
Y7849200D01*
X8599200D01*
X7099200D02*
Y7950800D01*
X7200800D01*
Y7849200D01*
X7099200D01*
X5549200D02*
Y7950800D01*
X5650800D01*
Y7849200D01*
X5549200D01*
X3999200D02*
Y7950800D01*
X4100800D01*
Y7849200D01*
X3999200D01*
X2499200D02*
Y7950800D01*
X2600800D01*
Y7849200D01*
X2499200D01*
Y9499200D02*
Y9600800D01*
X2600800D01*
Y9499200D01*
X2499200D01*
X2750000Y9649200D02*
X2699200Y9750800D01*
X2800800D01*
X2750000Y9649200D01*
Y9669520D02*
X2719520Y9730480D01*
X2780480D01*
X2750000Y9669520D01*
X3999200Y9499200D02*
Y9600800D01*
X4100800D01*
Y9499200D01*
X3999200D01*
X5549200D02*
Y9600800D01*
X5650800D01*
Y9499200D01*
X5549200D01*
X7099200D02*
Y9600800D01*
X7200800D01*
Y9499200D01*
X7099200D01*
X8599200D02*
Y9600800D01*
X8700800D01*
Y9499200D01*
X8599200D01*
X10149200D02*
Y9600800D01*
X10250800D01*
Y9499200D01*
X10149200D01*
X11649200D02*
Y9600800D01*
X11750800D01*
Y9499200D01*
X11649200D01*
X13149200D02*
Y9600800D01*
X13250800D01*
Y9499200D01*
X13149200D01*
X14699200D02*
Y9600800D01*
X14800800D01*
Y9499200D01*
X14699200D01*
X16249200D02*
Y9600800D01*
X16350800D01*
Y9499200D01*
X16249200D01*
X17749200D02*
Y9600800D01*
X17850800D01*
Y9499200D01*
X17749200D01*
Y11149200D02*
Y11250800D01*
X17850800D01*
Y11149200D01*
X17749200D01*
X16249200D02*
Y11250800D01*
X16350800D01*
Y11149200D01*
X16249200D01*
X14699200D02*
Y11250800D01*
X14800800D01*
Y11149200D01*
X14699200D01*
X13149200D02*
Y11250800D01*
X13250800D01*
Y11149200D01*
X13149200D01*
X11649200D02*
Y11250800D01*
X11750800D01*
Y11149200D01*
X11649200D01*
X10149200D02*
Y11250800D01*
X10250800D01*
Y11149200D01*
X10149200D01*
X8599200D02*
Y11250800D01*
X8700800D01*
Y11149200D01*
X8599200D01*
X7099200D02*
Y11250800D01*
X7200800D01*
Y11149200D01*
X7099200D01*
X5549200D02*
Y11250800D01*
X5650800D01*
Y11149200D01*
X5549200D01*
X3999200D02*
Y11250800D01*
X4100800D01*
Y11149200D01*
X3999200D01*
X2499200D02*
Y11250800D01*
X2600800D01*
Y11149200D01*
X2499200D01*
Y12849200D02*
Y12950800D01*
X2600800D01*
Y12849200D01*
X2499200D01*
X3999200D02*
Y12950800D01*
X4100800D01*
Y12849200D01*
X3999200D01*
X5549200D02*
Y12950800D01*
X5650800D01*
Y12849200D01*
X5549200D01*
X7099200D02*
Y12950800D01*
X7200800D01*
Y12849200D01*
X7099200D01*
X8599200D02*
Y12950800D01*
X8700800D01*
Y12849200D01*
X8599200D01*
X10149200D02*
Y12950800D01*
X10250800D01*
Y12849200D01*
X10149200D01*
X11649200D02*
Y12950800D01*
X11750800D01*
Y12849200D01*
X11649200D01*
X13149200D02*
Y12950800D01*
X13250800D01*
Y12849200D01*
X13149200D01*
X14699200D02*
Y12950800D01*
X14800800D01*
Y12849200D01*
X14699200D01*
X16272086Y12866348D02*
Y12967949D01*
X16373686D01*
Y12866348D01*
X16272086D01*
X17758881Y12872089D02*
Y12973688D01*
X17860480D01*
Y12872089D01*
X17758881D01*
X17849200Y14549200D02*
Y14650800D01*
X17950800D01*
Y14549200D01*
X17849200D01*
X16449200Y14249200D02*
Y14350800D01*
X16550800D01*
Y14249200D01*
X16449200D01*
X14899200D02*
Y14350800D01*
X15000800D01*
Y14249200D01*
X14899200D01*
X11849200D02*
Y14350800D01*
X11950800D01*
Y14249200D01*
X11849200D01*
X10149200Y14549200D02*
Y14650800D01*
X10250800D01*
Y14549200D01*
X10149200D01*
X8599200D02*
Y14650800D01*
X8700800D01*
Y14549200D01*
X8599200D01*
X7099200D02*
Y14650800D01*
X7200800D01*
Y14549200D01*
X7099200D01*
X5549200D02*
Y14650800D01*
X5650800D01*
Y14549200D01*
X5549200D01*
X3999200D02*
Y14650800D01*
X4100800D01*
Y14549200D01*
X3999200D01*
X2499200D02*
Y14650800D01*
X2600800D01*
Y14549200D01*
X2499200D01*
Y16199200D02*
Y16300800D01*
X2600800D01*
Y16199200D01*
X2499200D01*
X3999200D02*
Y16300800D01*
X4100800D01*
Y16199200D01*
X3999200D01*
X5549200D02*
Y16300800D01*
X5650800D01*
Y16199200D01*
X5549200D01*
X7099200D02*
Y16300800D01*
X7200800D01*
Y16199200D01*
X7099200D01*
X8599872Y16195857D02*
Y16297458D01*
X8701472D01*
Y16195857D01*
X8599872D01*
X10149200Y16199200D02*
Y16300800D01*
X10250800D01*
Y16199200D01*
X10149200D01*
X11649200D02*
Y16300800D01*
X11750800D01*
Y16199200D01*
X11649200D01*
X11749200Y16349200D02*
Y16450800D01*
X11850800D01*
Y16349200D01*
X11749200D01*
X12449200D02*
Y16450800D01*
X12550800D01*
Y16349200D01*
X12449200D01*
X13149200Y16199200D02*
Y16300800D01*
X13250800D01*
Y16199200D01*
X13149200D01*
X14699200D02*
Y16300800D01*
X14800800D01*
Y16199200D01*
X14699200D01*
X16249200D02*
Y16300800D01*
X16350800D01*
Y16199200D01*
X16249200D01*
X17749200D02*
Y16300800D01*
X17850800D01*
Y16199200D01*
X17749200D01*
X17699200Y17949200D02*
Y18050800D01*
X17800800D01*
Y17949200D01*
X17699200D01*
X16249200Y17899200D02*
Y18000800D01*
X16350800D01*
Y17899200D01*
X16249200D01*
X14699200D02*
Y18000800D01*
X14800800D01*
Y17899200D01*
X14699200D01*
X13149200D02*
Y18000800D01*
X13250800D01*
Y17899200D01*
X13149200D01*
X11649200D02*
Y18000800D01*
X11750800D01*
Y17899200D01*
X11649200D01*
X10149200D02*
Y18000800D01*
X10250800D01*
Y17899200D01*
X10149200D01*
X8599200D02*
Y18000800D01*
X8700800D01*
Y17899200D01*
X8599200D01*
X7049200D02*
Y18000800D01*
X7150800D01*
Y17899200D01*
X7049200D01*
X5549200D02*
Y18000800D01*
X5650800D01*
Y17899200D01*
X5549200D01*
X3999200D02*
Y18000800D01*
X4100800D01*
Y17899200D01*
X3999200D01*
X2499200D02*
Y18000800D01*
X2600800D01*
Y17899200D01*
X2499200D01*
X5399200Y17099200D02*
Y17200800D01*
X5500800D01*
Y17099200D01*
X5399200D01*
X3849200D02*
Y17200800D01*
X3950800D01*
Y17099200D01*
X3849200D01*
X1050000Y3099200D02*
X999200Y3200800D01*
X1100800D01*
X1050000Y3099200D01*
Y3119520D02*
X1019520Y3180480D01*
X1080480D01*
X1050000Y3119520D01*
X850000Y17799200D02*
X799200Y17900800D01*
X900800D01*
X850000Y17799200D01*
Y17819521D02*
X819520Y17880479D01*
X880480D01*
X850000Y17819521D01*
Y19699200D02*
X799200Y19800800D01*
X900800D01*
X850000Y19699200D01*
Y19719521D02*
X819520Y19780479D01*
X880480D01*
X850000Y19719521D01*
X2349200Y17099200D02*
Y17200800D01*
X2450800D01*
Y17099200D01*
X2349200D01*
X949200Y18599200D02*
Y18700800D01*
X1050800D01*
Y18599200D01*
X949200D01*
X1099200Y19399200D02*
Y19500800D01*
X1200800D01*
Y19399200D01*
X1099200D01*
X5050000Y17199200D02*
X4999200Y17300800D01*
X5100800D01*
X5050000Y17199200D01*
Y17219521D02*
X5019520Y17280479D01*
X5080480D01*
X5050000Y17219521D01*
X2800000Y12999200D02*
X2749200Y13100800D01*
X2850800D01*
X2800000Y12999200D01*
Y13019521D02*
X2769520Y13080479D01*
X2830480D01*
X2800000Y13019521D01*
Y13849200D02*
X2749200Y13950800D01*
X2850800D01*
X2800000Y13849200D01*
Y13869521D02*
X2769520Y13930479D01*
X2830480D01*
X2800000Y13869521D01*
X2750000Y10499200D02*
X2699200Y10600800D01*
X2800800D01*
X2750000Y10499200D01*
Y10519520D02*
X2719520Y10580480D01*
X2780480D01*
X2750000Y10519520D01*
Y7199200D02*
X2699200Y7300800D01*
X2800800D01*
X2750000Y7199200D01*
Y7219520D02*
X2719520Y7280480D01*
X2780480D01*
X2750000Y7219520D01*
X2050000Y2449200D02*
X1999200Y2550800D01*
X2100800D01*
X2050000Y2449200D01*
Y2469520D02*
X2019520Y2530480D01*
X2080480D01*
X2050000Y2469520D01*
Y549200D02*
X1999200Y650800D01*
X2100800D01*
X2050000Y549200D01*
Y569520D02*
X2019520Y630480D01*
X2080480D01*
X2050000Y569520D01*
X19100000Y18099200D02*
X19049200Y18200800D01*
X19150800D01*
X19100000Y18099200D01*
Y18119521D02*
X19069521Y18180479D01*
X19130479D01*
X19100000Y18119521D01*
X1300000Y4049200D02*
X1249200Y4150800D01*
X1350800D01*
X1300000Y4049200D01*
Y4069520D02*
X1269520Y4130480D01*
X1330480D01*
X1300000Y4069520D01*
X2050000Y4049200D02*
X1999200Y4150800D01*
X2100800D01*
X2050000Y4049200D01*
Y4069520D02*
X2019520Y4130480D01*
X2080480D01*
X2050000Y4069520D01*
X1850000Y18699200D02*
X1799200Y18800800D01*
X1900800D01*
X1850000Y18699200D01*
Y18719521D02*
X1819520Y18780479D01*
X1880480D01*
X1850000Y18719521D01*
Y15999200D02*
X1799200Y16100800D01*
X1900800D01*
X1850000Y15999200D01*
Y16019521D02*
X1819520Y16080479D01*
X1880480D01*
X1850000Y16019521D01*
X2050000Y18899200D02*
X1999200Y19000800D01*
X2100800D01*
X2050000Y18899200D01*
Y18919521D02*
X2019520Y18980479D01*
X2080480D01*
X2050000Y18919521D01*
Y17399200D02*
X1999200Y17500800D01*
X2100800D01*
X2050000Y17399200D01*
Y17419521D02*
X2019520Y17480479D01*
X2080480D01*
X2050000Y17419521D01*
X18150000Y18449200D02*
X18099200Y18550800D01*
X18200800D01*
X18150000Y18449200D01*
Y18469521D02*
X18119521Y18530479D01*
X18180479D01*
X18150000Y18469521D01*
X18750000Y17449200D02*
X18699200Y17550800D01*
X18800800D01*
X18750000Y17449200D01*
Y17469521D02*
X18719521Y17530479D01*
X18780479D01*
X18750000Y17469521D01*
X17800000Y17449200D02*
X17749200Y17550800D01*
X17850800D01*
X17800000Y17449200D01*
Y17469521D02*
X17769521Y17530479D01*
X17830479D01*
X17800000Y17469521D01*
X17550000Y16649200D02*
X17499200Y16750800D01*
X17600800D01*
X17550000Y16649200D01*
Y16669521D02*
X17519521Y16730479D01*
X17580479D01*
X17550000Y16669521D01*
X12249200Y19049200D02*
Y19150800D01*
X12350800D01*
Y19049200D01*
X12249200D01*
X13399200Y14249200D02*
Y14350800D01*
X13500800D01*
Y14249200D01*
X13399200D01*
X19849200Y7549200D02*
Y7650800D01*
X19950800D01*
Y7549200D01*
X19849200D01*
Y9099200D02*
Y9200800D01*
X19950800D01*
Y9099200D01*
X19849200D01*
Y10699200D02*
Y10800800D01*
X19950800D01*
Y10699200D01*
X19849200D01*
X11999200Y19049200D02*
Y19150800D01*
X12100800D01*
Y19049200D01*
X11999200D01*
X16549200Y18599200D02*
Y18700800D01*
X16650800D01*
Y18599200D01*
X16549200D01*
X14999200Y19499200D02*
Y19600800D01*
X15100800D01*
Y19499200D01*
X14999200D01*
X16549200Y19049200D02*
Y19150800D01*
X16650800D01*
Y19049200D01*
X16549200D01*
X12449200Y19599200D02*
Y19700800D01*
X12550800D01*
Y19599200D01*
X12449200D01*
X1249200Y15599200D02*
Y15700800D01*
X1350800D01*
Y15599200D01*
X1249200D01*
X5749200Y19199200D02*
Y19300800D01*
X5850800D01*
Y19199200D01*
X5749200D01*
X5599200Y18099200D02*
Y18200800D01*
X5700800D01*
Y18099200D01*
X5599200D01*
X6099200Y17949200D02*
Y18050800D01*
X6200800D01*
Y17949200D01*
X6099200D01*
D88*
X745300Y5312000D02*
G03*
X745300Y5312000I-50800J0D01*
G01*
Y3998000D02*
G03*
X745300Y3998000I-50800J0D01*
G01*
X18792799Y15249998D02*
G03*
X18792799Y15249998I-50800J0D01*
G01*
X19046800Y15250000D02*
G03*
X19046800Y15250000I-50800J0D01*
G01*
X19300800D02*
G03*
X19300800Y15250000I-50800J0D01*
G01*
X12340799Y19850000D02*
G03*
X12340799Y19850000I-50800J0D01*
G01*
X12540799D02*
G03*
X12540799Y19850000I-50800J0D01*
G01*
X12740799D02*
G03*
X12740799Y19850000I-50800J0D01*
G01*
X16900800D02*
G03*
X16900800Y19850000I-50800J0D01*
G01*
X17100800D02*
G03*
X17100800Y19850000I-50800J0D01*
G01*
X17300800D02*
G03*
X17300800Y19850000I-50800J0D01*
G01*
X17850800Y18800000D02*
G03*
X17850800Y18800000I-50800J0D01*
G01*
Y19053999D02*
G03*
X17850800Y19053999I-50800J0D01*
G01*
Y18546001D02*
G03*
X17850800Y18546001I-50800J0D01*
G01*
X13128029Y14849657D02*
G03*
X13128029Y14849657I-50800J0D01*
G01*
X12874030Y14849657D02*
G03*
X12874030Y14849657I-50800J0D01*
G01*
X12620030Y14849657D02*
G03*
X12620030Y14849657I-50800J0D01*
G01*
X12366030Y14849657D02*
G03*
X12366030Y14849657I-50800J0D01*
G01*
X13128799Y13073001D02*
G03*
X13128799Y13073001I-50800J0D01*
G01*
X12874799Y13073001D02*
G03*
X12874799Y13073001I-50800J0D01*
G01*
X12620800Y13073001D02*
G03*
X12620800Y13073001I-50800J0D01*
G01*
X12366800D02*
G03*
X12366800Y13073001I-50800J0D01*
G01*
X12112800D02*
G03*
X12112800Y13073001I-50800J0D01*
G01*
X11858799D02*
G03*
X11858799Y13073001I-50800J0D01*
G01*
X11604799D02*
G03*
X11604799Y13073001I-50800J0D01*
G01*
X8810800Y14850000D02*
G03*
X8810800Y14850000I-50800J0D01*
G01*
X9064800D02*
G03*
X9064800Y14850000I-50800J0D01*
G01*
X9318800D02*
G03*
X9318800Y14850000I-50800J0D01*
G01*
X9572799D02*
G03*
X9572799Y14850000I-50800J0D01*
G01*
X9826800Y14850000D02*
G03*
X9826800Y14850000I-50800J0D01*
G01*
X10080800Y14850000D02*
G03*
X10080800Y14850000I-50800J0D01*
G01*
X10334800D02*
G03*
X10334800Y14850000I-50800J0D01*
G01*
X10842799Y14850000D02*
G03*
X10842799Y14850000I-50800J0D01*
G01*
X8810801Y13073001D02*
G03*
X8810801Y13073001I-50800J0D01*
G01*
X9064799D02*
G03*
X9064799Y13073001I-50800J0D01*
G01*
X9318799D02*
G03*
X9318799Y13073001I-50800J0D01*
G01*
X9826800D02*
G03*
X9826800Y13073001I-50800J0D01*
G01*
X10334800D02*
G03*
X10334800Y13073001I-50800J0D01*
G01*
X10588800D02*
G03*
X10588800Y13073001I-50800J0D01*
G01*
X10842799D02*
G03*
X10842799Y13073001I-50800J0D01*
G01*
X11096800D02*
G03*
X11096800Y13073001I-50800J0D01*
G01*
X11350799D02*
G03*
X11350799Y13073001I-50800J0D01*
G01*
X11604800Y14850000D02*
G03*
X11604800Y14850000I-50800J0D01*
G01*
X11096800Y14850000D02*
G03*
X11096800Y14850000I-50800J0D01*
G01*
X11350800Y14850000D02*
G03*
X11350800Y14850000I-50800J0D01*
G01*
X11858030Y14849657D02*
G03*
X11858030Y14849657I-50800J0D01*
G01*
X12112030Y14849657D02*
G03*
X12112030Y14849657I-50800J0D01*
G01*
X10588800Y14850000D02*
G03*
X10588800Y14850000I-50800J0D01*
G01*
X13636800Y13073001D02*
G03*
X13636800Y13073001I-50800J0D01*
G01*
X13636031Y14849657D02*
G03*
X13636031Y14849657I-50800J0D01*
G01*
X13382030D02*
G03*
X13382030Y14849657I-50800J0D01*
G01*
X9572799Y13073001D02*
G03*
X9572799Y13073001I-50800J0D01*
G01*
X13382800D02*
G03*
X13382800Y13073001I-50800J0D01*
G01*
X10080800D02*
G03*
X10080800Y13073001I-50800J0D01*
G01*
X1600800Y15146001D02*
G03*
X1600800Y15146001I-50800J0D01*
G01*
Y14892000D02*
G03*
X1600800Y14892000I-50800J0D01*
G01*
Y15400000D02*
G03*
X1600800Y15400000I-50800J0D01*
G01*
Y15653999D02*
G03*
X1600800Y15653999I-50800J0D01*
G01*
X19950800Y9900000D02*
G03*
X19950800Y9900000I-50800J0D01*
G01*
Y9400000D02*
G03*
X19950800Y9400000I-50800J0D01*
G01*
Y8300000D02*
G03*
X19950800Y8300000I-50800J0D01*
G01*
Y7800000D02*
G03*
X19950800Y7800000I-50800J0D01*
G01*
Y11500000D02*
G03*
X19950800Y11500000I-50800J0D01*
G01*
Y11000000D02*
G03*
X19950800Y11000000I-50800J0D01*
G01*
D89*
X724980Y5312000D02*
G03*
X724980Y5312000I-30480J0D01*
G01*
Y3998000D02*
G03*
X724980Y3998000I-30480J0D01*
G01*
%TF.MD5,45904cfcce2497be62620df029bf8456*%
M02*
