%TF.GenerationSoftware,Altium Limited,Altium Designer,24.5.1 (21)*%
G04 Layer_Physical_Order=2*
G04 Layer_Color=16711680*
%FSLAX45Y45*%
%MOMM*%
%TF.SameCoordinates,D7596F51-2DA0-4622-90E6-AC5F46AEA47A*%
%TF.FilePolarity,Positive*%
%TF.FileFunction,Copper,L2,Bot,Signal*%
%TF.Part,Single*%
G01*
G75*
%TA.AperFunction,Conductor*%
%ADD15C,0.50000*%
%ADD16C,0.75000*%
%ADD17C,1.00000*%
%TA.AperFunction,ComponentPad*%
%ADD19C,1.50000*%
G04:AMPARAMS|DCode=20|XSize=2.5mm|YSize=2.8mm|CornerRadius=1.25mm|HoleSize=0mm|Usage=FLASHONLY|Rotation=270.000|XOffset=0mm|YOffset=0mm|HoleType=Round|Shape=RoundedRectangle|*
%AMROUNDEDRECTD20*
21,1,2.50000,0.30000,0,0,270.0*
21,1,0.00000,2.80000,0,0,270.0*
1,1,2.50000,-0.15000,0.00000*
1,1,2.50000,-0.15000,0.00000*
1,1,2.50000,0.15000,0.00000*
1,1,2.50000,0.15000,0.00000*
%
%ADD20ROUNDEDRECTD20*%
%ADD21C,1.60000*%
%ADD22C,1.90000*%
%ADD23C,1.70000*%
%TA.AperFunction,ViaPad*%
%ADD24C,1.00000*%
%TA.AperFunction,ComponentPad*%
%ADD25C,2.15000*%
%ADD26C,1.45000*%
%ADD27C,3.50000*%
%ADD28C,1.80000*%
%ADD29R,1.50000X1.50000*%
%ADD30R,1.50000X1.50000*%
%ADD31R,1.30000X1.30000*%
%ADD32C,1.30000*%
%ADD33C,0.70000*%
%TA.AperFunction,WasherPad*%
%ADD34C,3.20000*%
%TA.AperFunction,ViaPad*%
%ADD35C,1.20000*%
%ADD36C,0.70000*%
%TA.AperFunction,SMDPad,CuDef*%
%ADD37R,2.88000X1.12000*%
%TA.AperFunction,TestPad*%
%ADD38C,3.00000*%
%TA.AperFunction,SMDPad,CuDef*%
%ADD39C,3.00000*%
G36*
X19974512Y11605000D02*
X19795000D01*
Y11487717D01*
X19622844Y11315561D01*
X19428497D01*
X19418376Y11339999D01*
X19397581Y11371118D01*
X19371118Y11397582D01*
X19339999Y11418376D01*
X19305421Y11432698D01*
X19268713Y11440000D01*
X19231287D01*
X19194579Y11432698D01*
X19160002Y11418376D01*
X19128882Y11397582D01*
X19102419Y11371118D01*
X19081625Y11339999D01*
X19071503Y11315561D01*
X18327156D01*
X14946358Y14696358D01*
X14932780Y14706776D01*
X14916969Y14713327D01*
X14900000Y14715561D01*
X13640396D01*
X13637411Y14730560D01*
X13646808Y14734451D01*
X13668100Y14748679D01*
X13686208Y14766788D01*
X13700433Y14788078D01*
X13710234Y14811737D01*
X13715230Y14836853D01*
Y14862460D01*
X13710234Y14887576D01*
X13700433Y14911235D01*
X13686208Y14932527D01*
X13668100Y14950633D01*
X13646808Y14964861D01*
X13623149Y14974660D01*
X13598035Y14979655D01*
X13572426D01*
X13547310Y14974660D01*
X13523653Y14964861D01*
X13502361Y14950633D01*
X13484253Y14932527D01*
X13470026Y14911235D01*
X13460226Y14887576D01*
X13458279Y14877786D01*
X13442883Y14877283D01*
X13438393Y14894044D01*
X13423253Y14920268D01*
X13401842Y14941679D01*
X13375618Y14956819D01*
X13346370Y14964656D01*
X13346230D01*
Y14849657D01*
Y14734657D01*
X13346370D01*
X13375618Y14742494D01*
X13401842Y14757634D01*
X13423253Y14779045D01*
X13438393Y14805267D01*
X13442883Y14822031D01*
X13458279Y14821527D01*
X13460226Y14811737D01*
X13470026Y14788078D01*
X13484253Y14766788D01*
X13502361Y14748679D01*
X13523653Y14734451D01*
X13533047Y14730560D01*
X13530064Y14715561D01*
X13132394D01*
X13129411Y14730560D01*
X13138808Y14734451D01*
X13160098Y14748679D01*
X13178207Y14766788D01*
X13192435Y14788078D01*
X13202232Y14811737D01*
X13204181Y14821529D01*
X13219576Y14822034D01*
X13224068Y14805267D01*
X13239207Y14779045D01*
X13260619Y14757634D01*
X13286842Y14742494D01*
X13316090Y14734657D01*
X13316229D01*
Y14849657D01*
Y14964656D01*
X13316090D01*
X13286842Y14956819D01*
X13260619Y14941679D01*
X13239207Y14920268D01*
X13224068Y14894044D01*
X13219576Y14877280D01*
X13204181Y14877785D01*
X13202232Y14887576D01*
X13192435Y14911235D01*
X13178207Y14932527D01*
X13160098Y14950633D01*
X13138808Y14964861D01*
X13115149Y14974660D01*
X13090033Y14979655D01*
X13064426D01*
X13039310Y14974660D01*
X13015651Y14964861D01*
X12994359Y14950633D01*
X12976253Y14932527D01*
X12962025Y14911235D01*
X12958348Y14902356D01*
X12942113D01*
X12938434Y14911234D01*
X12924207Y14932526D01*
X12906100Y14950633D01*
X12884808Y14964861D01*
X12861150Y14974660D01*
X12836034Y14979655D01*
X12810426D01*
X12785311Y14974660D01*
X12761652Y14964861D01*
X12740360Y14950633D01*
X12722253Y14932526D01*
X12708026Y14911234D01*
X12704348Y14902356D01*
X12688112D01*
X12684434Y14911235D01*
X12670207Y14932527D01*
X12652100Y14950633D01*
X12630808Y14964861D01*
X12607150Y14974661D01*
X12582034Y14979657D01*
X12556426D01*
X12531311Y14974661D01*
X12507652Y14964861D01*
X12486360Y14950633D01*
X12468253Y14932527D01*
X12454026Y14911235D01*
X12450348Y14902354D01*
X12434112D01*
X12430434Y14911235D01*
X12416207Y14932527D01*
X12398100Y14950633D01*
X12376808Y14964861D01*
X12353149Y14974660D01*
X12328034Y14979655D01*
X12305160D01*
X12296486Y14992197D01*
X12346359Y15042068D01*
X12356777Y15055646D01*
X12363327Y15071458D01*
X12365561Y15088428D01*
Y18172844D01*
X12736358Y18543642D01*
X12746776Y18557219D01*
X12750552Y18566333D01*
X12755421Y18567302D01*
X12789999Y18581625D01*
X12821118Y18602419D01*
X12847581Y18628882D01*
X12868376Y18660002D01*
X12882698Y18694579D01*
X12889999Y18731287D01*
Y18768713D01*
X12882698Y18805421D01*
X12868376Y18839999D01*
X12847581Y18871118D01*
X12821118Y18897581D01*
X12789999Y18918376D01*
X12755560Y18932642D01*
Y19755096D01*
X12765754Y19764108D01*
X12781219Y19762274D01*
X12785428Y19755974D01*
X12805972Y19735429D01*
X12830132Y19719287D01*
X12856975Y19708168D01*
X12885472Y19702499D01*
X12914526D01*
X12943024Y19708168D01*
X12969865Y19719287D01*
X12994025Y19735429D01*
X13014571Y19755974D01*
X13030711Y19780133D01*
X13041830Y19806976D01*
X13047499Y19835472D01*
Y19864526D01*
X13041830Y19893024D01*
X13030711Y19919867D01*
X13014571Y19944026D01*
X12999084Y19959512D01*
X13005296Y19974512D01*
X16534702D01*
X16540915Y19959512D01*
X16525429Y19944026D01*
X16509288Y19919867D01*
X16498169Y19893024D01*
X16492500Y19864526D01*
Y19835472D01*
X16498169Y19806976D01*
X16509288Y19780133D01*
X16525429Y19755974D01*
X16545975Y19735429D01*
X16570132Y19719287D01*
X16596976Y19708168D01*
X16625473Y19702499D01*
X16654527D01*
X16683025Y19708168D01*
X16709868Y19719287D01*
X16734026Y19735429D01*
X16754572Y19755974D01*
X16760162Y19764342D01*
X16775089Y19765813D01*
X16780923Y19759978D01*
X16806577Y19745168D01*
X16835188Y19737500D01*
X16864812D01*
X16893423Y19745168D01*
X16919077Y19759978D01*
X16934447Y19775346D01*
X16951729Y19776840D01*
X16954440Y19775896D01*
X16959224Y19770929D01*
Y19349998D01*
X16962317Y19326505D01*
X16971387Y19304611D01*
X16985812Y19285811D01*
X17180000Y19091621D01*
Y19088181D01*
X17184612Y19064996D01*
X17193658Y19043159D01*
X17206790Y19023505D01*
X17223505Y19006790D01*
X17243159Y18993657D01*
X17264996Y18984612D01*
X17288181Y18980000D01*
X17311819D01*
X17335004Y18984612D01*
X17356841Y18993657D01*
X17376495Y19006790D01*
X17378929Y19009224D01*
X17672424D01*
X17680365Y18990054D01*
X17695139Y18967943D01*
X17713942Y18949139D01*
X17734662Y18935295D01*
X17735951Y18927000D01*
X17734662Y18918706D01*
X17713942Y18904861D01*
X17695139Y18886057D01*
X17689868Y18878169D01*
X17450000D01*
X17429768Y18875505D01*
X17410915Y18867696D01*
X17394727Y18855273D01*
X17309451Y18770000D01*
X17288181D01*
X17264996Y18765388D01*
X17243159Y18756342D01*
X17223505Y18743210D01*
X17206790Y18726495D01*
X17193658Y18706841D01*
X17184612Y18685004D01*
X17180000Y18661819D01*
Y18640549D01*
X16967621Y18428169D01*
X16382379D01*
X16264992Y18545557D01*
Y18557140D01*
X16257155Y18586388D01*
X16242015Y18612611D01*
X16220602Y18634023D01*
X16194380Y18649162D01*
X16165132Y18657001D01*
X16134853D01*
X16105605Y18649162D01*
X16079379Y18634023D01*
X16057970Y18612611D01*
X16042828Y18586388D01*
X16034991Y18557140D01*
Y18526860D01*
X16042828Y18497612D01*
X16057970Y18471388D01*
X16079379Y18449977D01*
X16105605Y18434837D01*
X16134853Y18427000D01*
X16162453D01*
X16294727Y18294727D01*
X16310916Y18282304D01*
X16329768Y18274495D01*
X16350000Y18271831D01*
X16350002Y18271831D01*
X17000000D01*
X17020232Y18274495D01*
X17028040Y18277728D01*
X17039084Y18282304D01*
X17055273Y18294727D01*
X17290549Y18530000D01*
X17311819D01*
X17335004Y18534612D01*
X17356841Y18543658D01*
X17376495Y18556790D01*
X17393210Y18573505D01*
X17406342Y18593159D01*
X17415388Y18614996D01*
X17420000Y18638181D01*
Y18659451D01*
X17482379Y18721831D01*
X17689868D01*
X17695139Y18713943D01*
X17713942Y18695139D01*
X17734662Y18681294D01*
X17735951Y18673000D01*
X17734662Y18664705D01*
X17713942Y18650861D01*
X17695139Y18632057D01*
X17680365Y18609946D01*
X17670187Y18585378D01*
X17664999Y18559296D01*
Y18532704D01*
X17670187Y18506622D01*
X17680365Y18482054D01*
X17695139Y18459943D01*
X17713942Y18441139D01*
X17736053Y18426366D01*
X17760622Y18416188D01*
X17786703Y18411000D01*
X17813297D01*
X17839378Y18416188D01*
X17863947Y18426366D01*
X17886057Y18441139D01*
X17904861Y18459943D01*
X17919635Y18482054D01*
X17929813Y18506622D01*
X17935001Y18532704D01*
Y18559296D01*
X17929813Y18585378D01*
X17919635Y18609946D01*
X17904861Y18632057D01*
X17886057Y18650861D01*
X17865338Y18664705D01*
X17864049Y18673000D01*
X17865338Y18681294D01*
X17886057Y18695139D01*
X17904861Y18713943D01*
X17910132Y18721831D01*
X18167621D01*
X18321831Y18567621D01*
Y18340105D01*
X18320317Y18339093D01*
X18302905Y18321683D01*
X18289227Y18301210D01*
X18279803Y18278461D01*
X18275000Y18254311D01*
Y18229688D01*
X18279803Y18205539D01*
X18289227Y18182790D01*
X18302905Y18162317D01*
X18320317Y18144907D01*
X18340790Y18131227D01*
X18363539Y18121803D01*
X18387689Y18117000D01*
X18412311D01*
X18436461Y18121803D01*
X18459210Y18131227D01*
X18479683Y18144907D01*
X18497095Y18162317D01*
X18498105Y18163831D01*
X18580038D01*
X18581625Y18160002D01*
X18602419Y18128882D01*
X18628882Y18102419D01*
X18660002Y18081624D01*
X18694579Y18067302D01*
X18731287Y18060001D01*
X18768713D01*
X18805421Y18067302D01*
X18839999Y18081624D01*
X18871118Y18102419D01*
X18897581Y18128882D01*
X18918376Y18160002D01*
X18932698Y18194579D01*
X18939999Y18231287D01*
Y18268713D01*
X18932698Y18305421D01*
X18918376Y18339999D01*
X18897581Y18371118D01*
X18871118Y18397581D01*
X18839999Y18418376D01*
X18805421Y18432698D01*
X18768713Y18439999D01*
X18731287D01*
X18694579Y18432698D01*
X18660002Y18418376D01*
X18628882Y18397581D01*
X18602419Y18371118D01*
X18581625Y18339999D01*
X18573412Y18320169D01*
X18498105D01*
X18497095Y18321683D01*
X18479683Y18339093D01*
X18478169Y18340105D01*
Y18599998D01*
X18478169Y18600000D01*
X18475505Y18620232D01*
X18467696Y18639084D01*
X18455273Y18655273D01*
X18255273Y18855273D01*
X18239084Y18867696D01*
X18228041Y18872272D01*
X18220232Y18875505D01*
X18200000Y18878169D01*
X17910132D01*
X17904861Y18886057D01*
X17886057Y18904861D01*
X17865338Y18918706D01*
X17864049Y18927000D01*
X17865338Y18935295D01*
X17886057Y18949139D01*
X17904861Y18967943D01*
X17919635Y18990054D01*
X17929813Y19014622D01*
X17935001Y19040704D01*
Y19060622D01*
X18041602Y19167224D01*
X18314000D01*
X18320317Y19160907D01*
X18340790Y19147227D01*
X18363539Y19137804D01*
X18387689Y19133002D01*
X18412311D01*
X18436461Y19137804D01*
X18459210Y19147227D01*
X18479683Y19160907D01*
X18486000Y19167224D01*
X18578633D01*
X18581625Y19160002D01*
X18602419Y19128882D01*
X18628882Y19102419D01*
X18660002Y19081625D01*
X18694579Y19067302D01*
X18731287Y19060001D01*
X18768713D01*
X18804504Y19067120D01*
X19009224Y18862399D01*
Y18192770D01*
X19006815Y18188599D01*
X19000000Y18163165D01*
Y18136835D01*
X19006815Y18111401D01*
X19009224Y18107230D01*
Y17287601D01*
X18512399Y16790776D01*
X17592770D01*
X17588599Y16793185D01*
X17563165Y16800000D01*
X17536835D01*
X17511401Y16793185D01*
X17488599Y16780020D01*
X17469980Y16761401D01*
X17456815Y16738599D01*
X17450000Y16713165D01*
Y16686835D01*
X17456815Y16661401D01*
X17469980Y16638599D01*
X17488599Y16619980D01*
X17511401Y16606815D01*
X17536835Y16600000D01*
X17563165D01*
X17588599Y16606815D01*
X17592770Y16609224D01*
X18401224D01*
Y15986000D01*
X18394907Y15979681D01*
X18381226Y15959209D01*
X18371803Y15936461D01*
X18367000Y15912311D01*
Y15887688D01*
X18371803Y15863539D01*
X18381226Y15840790D01*
X18394907Y15820317D01*
X18401224Y15814000D01*
Y15499998D01*
X18404317Y15476505D01*
X18413385Y15454611D01*
X18427811Y15435811D01*
X18607001Y15256622D01*
Y15236703D01*
X18610611Y15218546D01*
X18609222Y15207999D01*
Y14736929D01*
X18606790Y14734496D01*
X18593657Y14714841D01*
X18584612Y14693002D01*
X18580000Y14669820D01*
Y14646181D01*
X18584612Y14622997D01*
X18593657Y14601160D01*
X18606790Y14581505D01*
X18623505Y14564790D01*
X18643158Y14551659D01*
X18664996Y14542612D01*
X18688181Y14538000D01*
X18711818D01*
X18735002Y14542612D01*
X18756841Y14551659D01*
X18776495Y14564790D01*
X18793208Y14581505D01*
X18806342Y14601160D01*
X18815388Y14622997D01*
X18820000Y14646181D01*
Y14669820D01*
X18815388Y14693002D01*
X18806342Y14714841D01*
X18793208Y14734496D01*
X18790776Y14736929D01*
Y15124080D01*
X18805946Y15130363D01*
X18828056Y15145139D01*
X18846861Y15163942D01*
X18860706Y15184662D01*
X18869000Y15185950D01*
X18877293Y15184662D01*
X18891138Y15163942D01*
X18909943Y15145139D01*
X18917831Y15139868D01*
Y14812000D01*
X18920494Y14791768D01*
X18928304Y14772916D01*
X18940726Y14756726D01*
X19030000Y14667453D01*
Y14646181D01*
X19034612Y14622997D01*
X19043657Y14601160D01*
X19056790Y14581505D01*
X19073505Y14564790D01*
X19093158Y14551659D01*
X19114996Y14542612D01*
X19138181Y14538000D01*
X19159451D01*
X19471831Y14225621D01*
Y13776459D01*
X19465977Y13770602D01*
X19450836Y13744380D01*
X19442999Y13715132D01*
Y13695538D01*
X19094727Y13347266D01*
X19082304Y13331078D01*
X19074495Y13312224D01*
X19071831Y13291992D01*
Y12713252D01*
X19069980Y12711401D01*
X19056815Y12688598D01*
X19050000Y12663165D01*
Y12636835D01*
X19056815Y12611402D01*
X19069980Y12588599D01*
X19088599Y12569980D01*
X19111401Y12556815D01*
X19136835Y12550000D01*
X19163165D01*
X19188599Y12556815D01*
X19211401Y12569980D01*
X19230020Y12588599D01*
X19243185Y12611402D01*
X19250000Y12636835D01*
Y12663165D01*
X19243185Y12688598D01*
X19230020Y12711401D01*
X19228169Y12713252D01*
Y13259615D01*
X19553548Y13584991D01*
X19573138D01*
X19602388Y13592828D01*
X19628612Y13607970D01*
X19650021Y13629379D01*
X19665163Y13655603D01*
X19673000Y13684853D01*
Y13715132D01*
X19665163Y13744380D01*
X19650021Y13770602D01*
X19628612Y13792014D01*
X19628169Y13792270D01*
Y14257999D01*
X19628169Y14258000D01*
X19625505Y14278230D01*
X19617696Y14297084D01*
X19605273Y14313274D01*
X19270000Y14648547D01*
Y14669820D01*
X19265388Y14693002D01*
X19256342Y14714841D01*
X19243208Y14734496D01*
X19226495Y14751210D01*
X19206841Y14764343D01*
X19185002Y14773389D01*
X19161818Y14778000D01*
X19140547D01*
X19074168Y14844379D01*
Y15139868D01*
X19082057Y15145139D01*
X19100861Y15163942D01*
X19114705Y15184662D01*
X19123000Y15185950D01*
X19131294Y15184662D01*
X19145139Y15163942D01*
X19163942Y15145139D01*
X19186053Y15130363D01*
X19210622Y15120187D01*
X19236703Y15114999D01*
X19263297D01*
X19289377Y15120187D01*
X19313947Y15130363D01*
X19336057Y15145139D01*
X19354861Y15163942D01*
X19369635Y15186053D01*
X19379811Y15210622D01*
X19384999Y15236703D01*
Y15263297D01*
X19379811Y15289378D01*
X19369635Y15313947D01*
X19354861Y15336057D01*
X19336057Y15354861D01*
X19313947Y15369635D01*
X19289377Y15379813D01*
X19263297Y15384999D01*
X19236703D01*
X19210622Y15379813D01*
X19186053Y15369635D01*
X19163942Y15354861D01*
X19145139Y15336057D01*
X19131294Y15315338D01*
X19123000Y15314049D01*
X19114705Y15315338D01*
X19100861Y15336057D01*
X19082057Y15354861D01*
X19074168Y15360132D01*
Y15474393D01*
X19415498Y15815724D01*
X19428317Y15802905D01*
X19448790Y15789226D01*
X19471539Y15779803D01*
X19495688Y15775000D01*
X19520311D01*
X19544461Y15779803D01*
X19567210Y15789226D01*
X19587682Y15802905D01*
X19605093Y15820317D01*
X19618773Y15840790D01*
X19628197Y15863539D01*
X19633000Y15887688D01*
Y15912311D01*
X19628197Y15936461D01*
X19618773Y15959209D01*
X19605093Y15979681D01*
X19587682Y15997093D01*
X19586169Y15998105D01*
Y16130038D01*
X19589998Y16131624D01*
X19621117Y16152419D01*
X19647581Y16178882D01*
X19668375Y16210001D01*
X19682698Y16244579D01*
X19689999Y16281287D01*
Y16318713D01*
X19682698Y16355421D01*
X19668375Y16389998D01*
X19647581Y16421118D01*
X19621117Y16447581D01*
X19589998Y16468375D01*
X19555420Y16482698D01*
X19518713Y16489999D01*
X19481287D01*
X19444579Y16482698D01*
X19410001Y16468375D01*
X19378882Y16447581D01*
X19352417Y16421118D01*
X19331624Y16389998D01*
X19317300Y16355421D01*
X19310001Y16318713D01*
Y16281287D01*
X19317300Y16244579D01*
X19331624Y16210001D01*
X19352417Y16178882D01*
X19378882Y16152419D01*
X19410001Y16131624D01*
X19429831Y16123410D01*
Y15998105D01*
X19428317Y15997093D01*
X19410905Y15979681D01*
X19409895Y15978168D01*
X19389227D01*
X19368996Y15975505D01*
X19361188Y15972270D01*
X19350143Y15967696D01*
X19333954Y15955273D01*
X18940726Y15562045D01*
X18928304Y15545856D01*
X18920494Y15527003D01*
X18917831Y15506770D01*
Y15360132D01*
X18909943Y15354861D01*
X18891138Y15336057D01*
X18877293Y15315338D01*
X18869000Y15314049D01*
X18860706Y15315338D01*
X18846861Y15336057D01*
X18828056Y15354861D01*
X18805946Y15369635D01*
X18781377Y15379811D01*
X18755296Y15384999D01*
X18735378D01*
X18582776Y15537601D01*
Y15814000D01*
X18589093Y15820317D01*
X18602773Y15840790D01*
X18612196Y15863539D01*
X18616998Y15887688D01*
Y15912311D01*
X18612196Y15936461D01*
X18602773Y15959209D01*
X18589093Y15979681D01*
X18582776Y15986000D01*
Y16604399D01*
X18614188Y16635811D01*
X18614188Y16635811D01*
X19164188Y17185811D01*
X19164188Y17185811D01*
X19178613Y17204613D01*
X19187683Y17226505D01*
X19190776Y17250000D01*
Y18107230D01*
X19193185Y18111401D01*
X19200000Y18136835D01*
Y18163165D01*
X19193185Y18188599D01*
X19190776Y18192770D01*
Y18900000D01*
X19187683Y18923495D01*
X19178613Y18945387D01*
X19164188Y18964189D01*
X19164188Y18964191D01*
X18932881Y19195497D01*
X18939999Y19231287D01*
Y19268713D01*
X18932698Y19305421D01*
X18918376Y19339999D01*
X18897581Y19371118D01*
X18871118Y19397581D01*
X18839999Y19418376D01*
X18805421Y19432698D01*
X18768713Y19439999D01*
X18731287D01*
X18694579Y19432698D01*
X18660002Y19418376D01*
X18628882Y19397581D01*
X18602419Y19371118D01*
X18587489Y19348776D01*
X18486000D01*
X18479683Y19355093D01*
X18459210Y19368774D01*
X18436461Y19378197D01*
X18412311Y19383000D01*
X18387689D01*
X18363539Y19378197D01*
X18340790Y19368774D01*
X18320317Y19355093D01*
X18314000Y19348776D01*
X18004001D01*
X17980505Y19345683D01*
X17958612Y19336615D01*
X17939812Y19322189D01*
X17806622Y19189000D01*
X17786703D01*
X17778336Y19187335D01*
X17777495Y19187683D01*
X17753999Y19190776D01*
X17378929D01*
X17376495Y19193210D01*
X17356841Y19206342D01*
X17335004Y19215388D01*
X17311819Y19220000D01*
X17308377D01*
X17140778Y19387601D01*
Y19782230D01*
X17142500Y19785216D01*
X17157500D01*
X17159978Y19780923D01*
X17180923Y19759978D01*
X17206577Y19745168D01*
X17235188Y19737500D01*
X17264812D01*
X17293423Y19745168D01*
X17319077Y19759978D01*
X17324911Y19765813D01*
X17339839Y19764342D01*
X17345430Y19755974D01*
X17365974Y19735429D01*
X17390134Y19719287D01*
X17416975Y19708168D01*
X17445473Y19702499D01*
X17474529D01*
X17503024Y19708168D01*
X17529868Y19719287D01*
X17554025Y19735429D01*
X17574571Y19755974D01*
X17590714Y19780133D01*
X17601833Y19806976D01*
X17607500Y19835472D01*
Y19864526D01*
X17601833Y19893024D01*
X17590714Y19919867D01*
X17574571Y19944026D01*
X17559085Y19959512D01*
X17565298Y19974512D01*
X19974512D01*
Y11605000D01*
D02*
G37*
G36*
X11980914Y19959512D02*
X11965428Y19944026D01*
X11949286Y19919867D01*
X11938168Y19893024D01*
X11932499Y19864526D01*
Y19835472D01*
X11938168Y19806976D01*
X11949286Y19780133D01*
X11965428Y19755974D01*
X11985973Y19735429D01*
X12010132Y19719287D01*
X12036975Y19708168D01*
X12065472Y19702499D01*
X12094527D01*
X12123023Y19708168D01*
X12149866Y19719287D01*
X12174025Y19735429D01*
X12194570Y19755974D01*
X12200161Y19764342D01*
X12215088Y19765813D01*
X12220922Y19759978D01*
X12234439Y19752174D01*
Y19136446D01*
X12230111Y19128949D01*
X12225000Y19109874D01*
Y19090126D01*
X12230111Y19071051D01*
X12239985Y19053949D01*
X12253949Y19039986D01*
X12271051Y19030112D01*
X12290126Y19025000D01*
X12309874D01*
X12328949Y19030112D01*
X12346051Y19039986D01*
X12360015Y19053949D01*
X12369889Y19071051D01*
X12375000Y19090126D01*
Y19109874D01*
X12369889Y19128949D01*
X12365561Y19136446D01*
Y19766463D01*
X12380021Y19780923D01*
X12389999Y19798206D01*
X12407320D01*
X12411980Y19790134D01*
X12430133Y19771980D01*
X12452365Y19759145D01*
X12474996Y19753081D01*
Y19850000D01*
X12504996D01*
Y19753079D01*
X12527633Y19759145D01*
X12549865Y19771980D01*
X12568019Y19790134D01*
X12572678Y19798206D01*
X12589999D01*
X12599977Y19780923D01*
X12620922Y19759978D01*
X12624438Y19757948D01*
Y18924356D01*
X12610001Y18918376D01*
X12578882Y18897581D01*
X12552418Y18871118D01*
X12531624Y18839999D01*
X12517302Y18805421D01*
X12510000Y18768713D01*
Y18731287D01*
X12517302Y18694579D01*
X12531624Y18660002D01*
X12552418Y18628882D01*
X12578882Y18602419D01*
X12587527Y18596642D01*
X12588997Y18581714D01*
X12253642Y18246358D01*
X12243223Y18232780D01*
X12236673Y18216969D01*
X12234439Y18200000D01*
Y15115582D01*
X12094452Y14975595D01*
X12074034Y14979655D01*
X12051586D01*
X12043213Y14992497D01*
X12096358Y15045642D01*
X12106777Y15059219D01*
X12113327Y15075032D01*
X12115561Y15092001D01*
Y18571503D01*
X12139999Y18581625D01*
X12171118Y18602419D01*
X12197582Y18628882D01*
X12218376Y18660002D01*
X12232698Y18694579D01*
X12240000Y18731287D01*
Y18768713D01*
X12232698Y18805421D01*
X12218376Y18839999D01*
X12197582Y18871118D01*
X12171118Y18897581D01*
X12139999Y18918376D01*
X12115561Y18928497D01*
Y19063554D01*
X12119889Y19071051D01*
X12125000Y19090126D01*
Y19109874D01*
X12119889Y19128949D01*
X12110015Y19146051D01*
X12096051Y19160014D01*
X12078949Y19169888D01*
X12059874Y19175000D01*
X12040126D01*
X12021051Y19169888D01*
X12003949Y19160014D01*
X11989985Y19146051D01*
X11980111Y19128949D01*
X11975000Y19109874D01*
Y19090126D01*
X11980111Y19071051D01*
X11984439Y19063554D01*
Y18928497D01*
X11960001Y18918376D01*
X11928882Y18897581D01*
X11902418Y18871118D01*
X11881624Y18839999D01*
X11867302Y18805421D01*
X11860000Y18768713D01*
Y18731287D01*
X11867302Y18694579D01*
X11881624Y18660002D01*
X11902418Y18628882D01*
X11928882Y18602419D01*
X11960001Y18581625D01*
X11984439Y18571503D01*
Y15119157D01*
X11840807Y14975523D01*
X11820034Y14979655D01*
X11794426D01*
X11769311Y14974660D01*
X11745652Y14964861D01*
X11724360Y14950633D01*
X11706253Y14932526D01*
X11692026Y14911234D01*
X11688804Y14903456D01*
X11672568D01*
X11669204Y14911578D01*
X11654977Y14932870D01*
X11636870Y14950977D01*
X11615578Y14965204D01*
X11591919Y14975005D01*
X11566804Y14980000D01*
X11541196D01*
X11516080Y14975005D01*
X11492422Y14965204D01*
X11471130Y14950977D01*
X11453023Y14932870D01*
X11438796Y14911578D01*
X11435118Y14902699D01*
X11418882D01*
X11415204Y14911578D01*
X11400977Y14932870D01*
X11382870Y14950977D01*
X11361578Y14965204D01*
X11337919Y14975005D01*
X11312804Y14980000D01*
X11287196D01*
X11262081Y14975005D01*
X11238422Y14965204D01*
X11217130Y14950977D01*
X11199023Y14932870D01*
X11184796Y14911578D01*
X11181118Y14902699D01*
X11164882D01*
X11161204Y14911578D01*
X11146977Y14932870D01*
X11128870Y14950977D01*
X11107578Y14965205D01*
X11083919Y14975005D01*
X11058804Y14980000D01*
X11033196D01*
X11008080Y14975005D01*
X10984422Y14965205D01*
X10963130Y14950977D01*
X10945023Y14932870D01*
X10930796Y14911578D01*
X10927118Y14902699D01*
X10910882D01*
X10907204Y14911578D01*
X10892977Y14932870D01*
X10874870Y14950977D01*
X10853577Y14965205D01*
X10829919Y14975005D01*
X10804803Y14980000D01*
X10779196D01*
X10754080Y14975005D01*
X10730422Y14965205D01*
X10709129Y14950977D01*
X10691022Y14932870D01*
X10676795Y14911578D01*
X10673118Y14902699D01*
X10656882D01*
X10653204Y14911578D01*
X10638977Y14932870D01*
X10620870Y14950977D01*
X10603560Y14962543D01*
Y15910844D01*
X11027156Y16334439D01*
X11763555D01*
X11771051Y16330112D01*
X11790126Y16325000D01*
X11809874D01*
X11828949Y16330112D01*
X11846051Y16339986D01*
X11860015Y16353949D01*
X11869889Y16371051D01*
X11875000Y16390126D01*
Y16409874D01*
X11869889Y16428949D01*
X11860015Y16446051D01*
X11846051Y16460014D01*
X11828949Y16469888D01*
X11809874Y16475000D01*
X11790126D01*
X11771051Y16469888D01*
X11763555Y16465561D01*
X11000000D01*
X10983031Y16463327D01*
X10967220Y16456776D01*
X10953641Y16446358D01*
X10491641Y15984358D01*
X10481222Y15970779D01*
X10474673Y15954968D01*
X10472439Y15938000D01*
Y14962543D01*
X10455130Y14950977D01*
X10437023Y14932870D01*
X10422796Y14911578D01*
X10419118Y14902699D01*
X10402882D01*
X10399204Y14911578D01*
X10384977Y14932870D01*
X10366870Y14950977D01*
X10345578Y14965204D01*
X10321919Y14975005D01*
X10296804Y14980000D01*
X10271196D01*
X10246080Y14975005D01*
X10222422Y14965204D01*
X10201130Y14950977D01*
X10183023Y14932870D01*
X10168796Y14911578D01*
X10165118Y14902699D01*
X10148882D01*
X10145204Y14911578D01*
X10130977Y14932870D01*
X10112870Y14950977D01*
X10091578Y14965204D01*
X10067919Y14975005D01*
X10042804Y14980000D01*
X10017196D01*
X9992081Y14975005D01*
X9968422Y14965204D01*
X9947130Y14950977D01*
X9929023Y14932870D01*
X9914796Y14911578D01*
X9911118Y14902699D01*
X9894882D01*
X9891204Y14911578D01*
X9876977Y14932870D01*
X9858870Y14950977D01*
X9837578Y14965205D01*
X9813919Y14975005D01*
X9788804Y14980000D01*
X9763196D01*
X9738080Y14975005D01*
X9714422Y14965205D01*
X9693130Y14950977D01*
X9675023Y14932870D01*
X9660796Y14911578D01*
X9657118Y14902699D01*
X9640882D01*
X9637204Y14911578D01*
X9622977Y14932870D01*
X9604870Y14950977D01*
X9583577Y14965204D01*
X9559919Y14975005D01*
X9534803Y14980000D01*
X9509196D01*
X9484080Y14975005D01*
X9460422Y14965204D01*
X9439129Y14950977D01*
X9421022Y14932870D01*
X9406795Y14911578D01*
X9403118Y14902699D01*
X9386882D01*
X9383204Y14911578D01*
X9368977Y14932870D01*
X9350870Y14950977D01*
X9329578Y14965204D01*
X9305919Y14975005D01*
X9280804Y14980000D01*
X9255196D01*
X9230080Y14975005D01*
X9206422Y14965204D01*
X9185130Y14950977D01*
X9167023Y14932870D01*
X9152796Y14911578D01*
X9149118Y14902699D01*
X9132882D01*
X9129204Y14911578D01*
X9114977Y14932870D01*
X9096870Y14950977D01*
X9075578Y14965204D01*
X9051919Y14975005D01*
X9026804Y14980000D01*
X9001196D01*
X8976081Y14975005D01*
X8952422Y14965204D01*
X8931130Y14950977D01*
X8913023Y14932870D01*
X8898796Y14911578D01*
X8895118Y14902699D01*
X8878882D01*
X8875204Y14911578D01*
X8860977Y14932870D01*
X8842870Y14950977D01*
X8821578Y14965204D01*
X8797919Y14975005D01*
X8772804Y14980000D01*
X8747196D01*
X8722081Y14975005D01*
X8698422Y14965204D01*
X8677130Y14950977D01*
X8659023Y14932870D01*
X8644796Y14911578D01*
X8634996Y14887920D01*
X8630000Y14862804D01*
Y14837196D01*
X8634996Y14812080D01*
X8644796Y14788422D01*
X8659023Y14767130D01*
X8677130Y14749023D01*
X8698422Y14734796D01*
X8722081Y14724995D01*
X8747196Y14720000D01*
X8772804D01*
X8797919Y14724995D01*
X8821578Y14734796D01*
X8842870Y14749023D01*
X8860977Y14767130D01*
X8875204Y14788422D01*
X8878882Y14797301D01*
X8895118D01*
X8898796Y14788422D01*
X8913023Y14767130D01*
X8931130Y14749023D01*
X8952422Y14734796D01*
X8976081Y14724995D01*
X9001196Y14720000D01*
X9026804D01*
X9051919Y14724995D01*
X9075578Y14734796D01*
X9096870Y14749023D01*
X9114977Y14767130D01*
X9129204Y14788422D01*
X9132882Y14797301D01*
X9149118D01*
X9152796Y14788422D01*
X9167023Y14767130D01*
X9185130Y14749023D01*
X9206422Y14734796D01*
X9230080Y14724995D01*
X9255196Y14720000D01*
X9280804D01*
X9305919Y14724995D01*
X9329578Y14734796D01*
X9350870Y14749023D01*
X9368977Y14767130D01*
X9383204Y14788422D01*
X9386882Y14797301D01*
X9403118D01*
X9406795Y14788422D01*
X9421022Y14767130D01*
X9439129Y14749023D01*
X9460422Y14734796D01*
X9484080Y14724995D01*
X9509196Y14720000D01*
X9534803D01*
X9559919Y14724995D01*
X9583577Y14734796D01*
X9604870Y14749023D01*
X9622977Y14767130D01*
X9637204Y14788422D01*
X9640882Y14797302D01*
X9657118D01*
X9660796Y14788422D01*
X9675023Y14767130D01*
X9693130Y14749023D01*
X9714422Y14734796D01*
X9738080Y14724995D01*
X9763196Y14720001D01*
X9788804D01*
X9813919Y14724995D01*
X9837578Y14734796D01*
X9858870Y14749023D01*
X9876977Y14767130D01*
X9891204Y14788422D01*
X9894882Y14797302D01*
X9911118D01*
X9914796Y14788422D01*
X9929023Y14767130D01*
X9947130Y14749023D01*
X9968422Y14734796D01*
X9992081Y14724995D01*
X10017196Y14720000D01*
X10042804D01*
X10067919Y14724995D01*
X10091578Y14734796D01*
X10112870Y14749023D01*
X10130977Y14767130D01*
X10145204Y14788422D01*
X10148882Y14797301D01*
X10165118D01*
X10168796Y14788422D01*
X10183023Y14767130D01*
X10201130Y14749023D01*
X10218439Y14737457D01*
Y14366000D01*
X10220673Y14349031D01*
X10227222Y14333220D01*
X10237641Y14319643D01*
X11253642Y13303641D01*
X11267220Y13293222D01*
X11283032Y13286673D01*
X11300001Y13284439D01*
X13672844Y13284439D01*
X13984439Y12972844D01*
Y9550000D01*
X13986673Y9533031D01*
X13993224Y9517220D01*
X14003642Y9503642D01*
X15703641Y7803642D01*
X15717220Y7793223D01*
X15733032Y7786673D01*
X15750000Y7784439D01*
X17921503D01*
X17931625Y7760001D01*
X17952419Y7728882D01*
X17978882Y7702418D01*
X18010002Y7681624D01*
X18044579Y7667302D01*
X18081287Y7660000D01*
X18118713D01*
X18155421Y7667302D01*
X18189999Y7681624D01*
X18221118Y7702418D01*
X18247583Y7728882D01*
X18268376Y7760001D01*
X18278497Y7784439D01*
X18394138D01*
X18406790Y7765504D01*
X18423505Y7748790D01*
X18434439Y7741484D01*
Y7652934D01*
X18429398Y7650023D01*
X18407986Y7628612D01*
X18392847Y7602389D01*
X18385008Y7573140D01*
Y7542860D01*
X18392847Y7513612D01*
X18407986Y7487389D01*
X18429398Y7465978D01*
X18455620Y7450838D01*
X18484869Y7443001D01*
X18515147D01*
X18544397Y7450838D01*
X18570621Y7465978D01*
X18592030Y7487389D01*
X18607172Y7513612D01*
X18615009Y7542860D01*
Y7573140D01*
X18607172Y7602389D01*
X18592030Y7628612D01*
X18570621Y7650023D01*
X18565561Y7652944D01*
Y7741484D01*
X18576495Y7748790D01*
X18593210Y7765504D01*
X18606343Y7785159D01*
X18615388Y7806997D01*
X18620000Y7830181D01*
Y7853819D01*
X18615388Y7877003D01*
X18606343Y7898841D01*
X18593210Y7918495D01*
X18576495Y7935210D01*
X18556841Y7948342D01*
X18535004Y7957388D01*
X18511819Y7962000D01*
X18488181D01*
X18464996Y7957388D01*
X18443159Y7948342D01*
X18423505Y7935210D01*
X18406790Y7918495D01*
X18404829Y7915561D01*
X18278497D01*
X18268376Y7939999D01*
X18247583Y7971118D01*
X18221118Y7997582D01*
X18189999Y8018376D01*
X18155421Y8032698D01*
X18118713Y8040000D01*
X18081287D01*
X18044579Y8032698D01*
X18010002Y8018376D01*
X17978882Y7997582D01*
X17952419Y7971118D01*
X17931625Y7939999D01*
X17921503Y7915561D01*
X15777156D01*
X14115561Y9577156D01*
Y13000000D01*
X14113327Y13016968D01*
X14109489Y13026231D01*
X14106776Y13032780D01*
X14096359Y13046358D01*
X13746358Y13396358D01*
X13732780Y13406776D01*
X13716969Y13413327D01*
X13700000Y13415561D01*
X11327157Y13415559D01*
X10349560Y14393156D01*
Y14737457D01*
X10366870Y14749023D01*
X10384977Y14767130D01*
X10399204Y14788422D01*
X10402882Y14797301D01*
X10419118D01*
X10422796Y14788422D01*
X10437023Y14767130D01*
X10455130Y14749023D01*
X10476422Y14734796D01*
X10500080Y14724995D01*
X10525196Y14720000D01*
X10550804D01*
X10575919Y14724995D01*
X10599578Y14734796D01*
X10620870Y14749023D01*
X10638977Y14767130D01*
X10653204Y14788422D01*
X10656882Y14797301D01*
X10673118D01*
X10676795Y14788422D01*
X10691022Y14767130D01*
X10709129Y14749023D01*
X10730422Y14734796D01*
X10754080Y14724995D01*
X10779196Y14720001D01*
X10804803D01*
X10829919Y14724995D01*
X10853577Y14734796D01*
X10874870Y14749023D01*
X10892977Y14767130D01*
X10907204Y14788422D01*
X10910882Y14797302D01*
X10927118D01*
X10930796Y14788422D01*
X10945023Y14767130D01*
X10963130Y14749023D01*
X10984422Y14734796D01*
X11008080Y14724995D01*
X11033196Y14720001D01*
X11058804D01*
X11082558Y14724725D01*
X11403641Y14403642D01*
X11417220Y14393224D01*
X11433031Y14386673D01*
X11450000Y14384439D01*
X12922844D01*
X16003642Y11303641D01*
X16017220Y11293223D01*
X16033032Y11286673D01*
X16050000Y11284439D01*
X16372844D01*
X18884439Y8772844D01*
Y8300000D01*
X18886673Y8283032D01*
X18893224Y8267220D01*
X18903642Y8253642D01*
X19077425Y8079859D01*
X19067302Y8055421D01*
X19060001Y8018713D01*
Y7981287D01*
X19067302Y7944579D01*
X19081625Y7910001D01*
X19102419Y7878882D01*
X19128882Y7852418D01*
X19160002Y7831624D01*
X19194579Y7817302D01*
X19231287Y7810000D01*
X19268713D01*
X19305421Y7817302D01*
X19339999Y7831624D01*
X19371118Y7852418D01*
X19397581Y7878882D01*
X19418376Y7910001D01*
X19428497Y7934439D01*
X19650000D01*
X19666969Y7936673D01*
X19682780Y7943223D01*
X19696358Y7953642D01*
X19937717Y8195000D01*
X19974512D01*
Y7873980D01*
X19959512Y7867767D01*
X19955261Y7872018D01*
X19934740Y7883866D01*
X19914999Y7889156D01*
Y7800002D01*
Y7710844D01*
X19934740Y7716133D01*
X19955261Y7727982D01*
X19959512Y7732233D01*
X19974512Y7726019D01*
Y25488D01*
X25488D01*
Y19974512D01*
X11974701D01*
X11980914Y19959512D01*
D02*
G37*
G36*
X18253642Y11203642D02*
X18267220Y11193223D01*
X18283032Y11186673D01*
X18300000Y11184439D01*
X19071503D01*
X19081625Y11160002D01*
X19102419Y11128882D01*
X19128882Y11102418D01*
X19160002Y11081625D01*
X19194579Y11067302D01*
X19231287Y11060000D01*
X19268713D01*
X19305421Y11067302D01*
X19339999Y11081625D01*
X19371118Y11102418D01*
X19397581Y11128882D01*
X19418376Y11160002D01*
X19428497Y11184439D01*
X19650000D01*
X19666969Y11186673D01*
X19682780Y11193223D01*
X19696358Y11203642D01*
X19887717Y11395000D01*
X19974512D01*
Y11073981D01*
X19959512Y11067767D01*
X19955261Y11072018D01*
X19934740Y11083867D01*
X19914999Y11089156D01*
Y11000004D01*
Y10910845D01*
X19934740Y10916134D01*
X19955261Y10927982D01*
X19959512Y10932233D01*
X19974512Y10926020D01*
Y10005000D01*
X19795000D01*
Y9887717D01*
X19622844Y9715561D01*
X19428497D01*
X19418376Y9739999D01*
X19397581Y9771118D01*
X19371118Y9797582D01*
X19339999Y9818376D01*
X19305421Y9832698D01*
X19268713Y9840000D01*
X19231287D01*
X19194579Y9832698D01*
X19160002Y9818376D01*
X19128882Y9797582D01*
X19102419Y9771118D01*
X19081625Y9739999D01*
X19071503Y9715561D01*
X18877156D01*
X16846358Y11746358D01*
X16832780Y11756777D01*
X16816968Y11763327D01*
X16800000Y11765561D01*
X16277156D01*
X13472136Y14570581D01*
X13477876Y14584439D01*
X14872844D01*
X18253642Y11203642D01*
D02*
G37*
G36*
X16203642Y11653642D02*
X16217220Y11643223D01*
X16233032Y11636673D01*
X16250000Y11634439D01*
X16772844D01*
X18803641Y9603642D01*
X18817220Y9593223D01*
X18833031Y9586673D01*
X18850000Y9584439D01*
X19071503D01*
X19081625Y9560001D01*
X19102419Y9528882D01*
X19128882Y9502418D01*
X19160002Y9481624D01*
X19194579Y9467302D01*
X19231287Y9460000D01*
X19268713D01*
X19305421Y9467302D01*
X19339999Y9481624D01*
X19371118Y9502418D01*
X19397581Y9528882D01*
X19418376Y9560001D01*
X19428497Y9584439D01*
X19650000D01*
X19666969Y9586673D01*
X19682780Y9593223D01*
X19696358Y9603642D01*
X19887717Y9795000D01*
X19974512D01*
Y9473981D01*
X19959512Y9467767D01*
X19955261Y9472018D01*
X19934740Y9483866D01*
X19914999Y9489156D01*
Y9400003D01*
Y9310844D01*
X19934740Y9316134D01*
X19955261Y9327982D01*
X19959512Y9332233D01*
X19974512Y9326019D01*
Y8405000D01*
X19795000D01*
Y8237717D01*
X19622844Y8065561D01*
X19428497D01*
X19418376Y8089999D01*
X19397581Y8121118D01*
X19371118Y8147582D01*
X19339999Y8168376D01*
X19305421Y8182698D01*
X19268713Y8190000D01*
X19231287D01*
X19194579Y8182698D01*
X19170142Y8172575D01*
X19015561Y8327156D01*
Y8800000D01*
X19013327Y8816968D01*
X19006776Y8832780D01*
X18996358Y8846358D01*
X16446358Y11396358D01*
X16432780Y11406777D01*
X16416968Y11413327D01*
X16400000Y11415561D01*
X16077158D01*
X13022136Y14470581D01*
X13027876Y14484439D01*
X13372844D01*
X16203642Y11653642D01*
D02*
G37*
%LPC*%
G36*
X15265012Y19657507D02*
Y19573003D01*
X15349515D01*
X15343193Y19596597D01*
X15330028Y19619402D01*
X15311409Y19638020D01*
X15288606Y19651186D01*
X15265012Y19657507D01*
D02*
G37*
G36*
X15235011Y19657509D02*
X15211411Y19651186D01*
X15188606Y19638020D01*
X15169987Y19619402D01*
X15156824Y19596597D01*
X15150500Y19573003D01*
X15235011D01*
Y19657509D01*
D02*
G37*
G36*
X15349516Y19543002D02*
X15265012D01*
Y19458493D01*
X15288606Y19464815D01*
X15311409Y19477980D01*
X15330028Y19496599D01*
X15343193Y19519402D01*
X15349516Y19543002D01*
D02*
G37*
G36*
X15235011D02*
X15150499D01*
X15156824Y19519402D01*
X15169987Y19496599D01*
X15188606Y19477980D01*
X15211411Y19464815D01*
X15235011Y19458492D01*
Y19543002D01*
D02*
G37*
G36*
X16165147Y19673000D02*
X16134868D01*
X16105620Y19665163D01*
X16079398Y19650023D01*
X16057985Y19628612D01*
X16042845Y19602388D01*
X16035008Y19573140D01*
Y19542860D01*
X16042845Y19513612D01*
X16057985Y19487389D01*
X16079398Y19465977D01*
X16105620Y19450838D01*
X16134868Y19442999D01*
X16165147D01*
X16194395Y19450838D01*
X16220621Y19465977D01*
X16242030Y19487389D01*
X16257172Y19513612D01*
X16265009Y19542860D01*
Y19573140D01*
X16257172Y19602388D01*
X16242030Y19628612D01*
X16220621Y19650023D01*
X16194395Y19665163D01*
X16165147Y19673000D01*
D02*
G37*
G36*
X15715147D02*
X15684868D01*
X15655620Y19665163D01*
X15629398Y19650023D01*
X15607986Y19628612D01*
X15592845Y19602388D01*
X15585008Y19573140D01*
Y19542860D01*
X15592845Y19513612D01*
X15607986Y19487389D01*
X15629398Y19465977D01*
X15655620Y19450838D01*
X15684868Y19442999D01*
X15715147D01*
X15744397Y19450838D01*
X15770621Y19465977D01*
X15792030Y19487389D01*
X15807172Y19513612D01*
X15815009Y19542860D01*
Y19573140D01*
X15807172Y19602388D01*
X15792030Y19628612D01*
X15770621Y19650023D01*
X15744397Y19665163D01*
X15715147Y19673000D01*
D02*
G37*
G36*
X19517729Y19680000D02*
X19482272D01*
X19447496Y19673083D01*
X19414738Y19659514D01*
X19385257Y19639815D01*
X19360185Y19614743D01*
X19340486Y19585262D01*
X19326917Y19552504D01*
X19320000Y19517729D01*
Y19482272D01*
X19326917Y19447496D01*
X19340486Y19414738D01*
X19360185Y19385257D01*
X19385257Y19360185D01*
X19414738Y19340486D01*
X19447496Y19326917D01*
X19482272Y19320000D01*
X19517729D01*
X19552504Y19326917D01*
X19585262Y19340486D01*
X19614743Y19360185D01*
X19639815Y19385257D01*
X19659514Y19414738D01*
X19673083Y19447496D01*
X19680000Y19482272D01*
Y19517729D01*
X19673083Y19552504D01*
X19659514Y19585262D01*
X19639815Y19614743D01*
X19614743Y19639815D01*
X19585262Y19659514D01*
X19552504Y19673083D01*
X19517729Y19680000D01*
D02*
G37*
G36*
X16807001Y19204684D02*
Y19115002D01*
X16896684D01*
X16889844Y19140527D01*
X16876019Y19164471D01*
X16856471Y19184021D01*
X16832529Y19197844D01*
X16807001Y19204684D01*
D02*
G37*
G36*
X16777000Y19204684D02*
X16751471Y19197844D01*
X16727528Y19184021D01*
X16707979Y19164471D01*
X16694156Y19140527D01*
X16687315Y19115002D01*
X16777000D01*
Y19204684D01*
D02*
G37*
G36*
X16896684Y19085004D02*
X16807001D01*
Y18995316D01*
X16832529Y19002156D01*
X16856471Y19015979D01*
X16876019Y19035529D01*
X16889844Y19059471D01*
X16896684Y19085004D01*
D02*
G37*
G36*
X16777000D02*
X16687314D01*
X16694156Y19059471D01*
X16707979Y19035529D01*
X16727528Y19015979D01*
X16751471Y19002156D01*
X16777000Y18995316D01*
Y19085004D01*
D02*
G37*
G36*
X16807002Y18754684D02*
Y18664999D01*
X16896684D01*
X16889844Y18690529D01*
X16876019Y18714471D01*
X16856471Y18734021D01*
X16832529Y18747844D01*
X16807002Y18754684D01*
D02*
G37*
G36*
X16777003Y18754686D02*
X16751471Y18747844D01*
X16727528Y18734021D01*
X16707979Y18714471D01*
X16694156Y18690529D01*
X16687315Y18664999D01*
X16777003D01*
Y18754686D01*
D02*
G37*
G36*
X16896684Y18635001D02*
X16807002D01*
Y18545316D01*
X16832529Y18552156D01*
X16856471Y18565979D01*
X16876019Y18585529D01*
X16889844Y18609473D01*
X16896684Y18635001D01*
D02*
G37*
G36*
X16777003D02*
X16687315D01*
X16694156Y18609473D01*
X16707979Y18585529D01*
X16727528Y18565979D01*
X16751471Y18552156D01*
X16777003Y18545314D01*
Y18635001D01*
D02*
G37*
G36*
X15715132Y18657001D02*
X15684853D01*
X15655605Y18649162D01*
X15629379Y18634023D01*
X15607970Y18612611D01*
X15592828Y18586388D01*
X15584991Y18557140D01*
Y18526860D01*
X15592828Y18497612D01*
X15607970Y18471388D01*
X15629379Y18449977D01*
X15655605Y18434837D01*
X15684853Y18427000D01*
X15715132D01*
X15744380Y18434837D01*
X15770602Y18449977D01*
X15792015Y18471388D01*
X15807155Y18497612D01*
X15814992Y18526860D01*
Y18557140D01*
X15807155Y18586388D01*
X15792015Y18612611D01*
X15770602Y18634023D01*
X15744380Y18649162D01*
X15715132Y18657001D01*
D02*
G37*
G36*
X15265132D02*
X15234853D01*
X15205605Y18649162D01*
X15179379Y18634023D01*
X15157970Y18612611D01*
X15142828Y18586388D01*
X15134991Y18557140D01*
Y18526860D01*
X15142828Y18497612D01*
X15157970Y18471388D01*
X15179379Y18449977D01*
X15205605Y18434837D01*
X15234853Y18427000D01*
X15265132D01*
X15294380Y18434837D01*
X15320602Y18449977D01*
X15342015Y18471388D01*
X15357155Y18497612D01*
X15364992Y18526860D01*
Y18557140D01*
X15357155Y18586388D01*
X15342015Y18612611D01*
X15320602Y18634023D01*
X15294380Y18649162D01*
X15265132Y18657001D01*
D02*
G37*
G36*
X18763165Y17600000D02*
X18736835D01*
X18711401Y17593185D01*
X18688599Y17580020D01*
X18674139Y17565561D01*
X17875861D01*
X17861401Y17580020D01*
X17838599Y17593185D01*
X17813165Y17600000D01*
X17786835D01*
X17761401Y17593185D01*
X17738599Y17580020D01*
X17719980Y17561401D01*
X17706815Y17538599D01*
X17700000Y17513165D01*
Y17486835D01*
X17706815Y17461401D01*
X17719980Y17438599D01*
X17738599Y17419980D01*
X17761401Y17406815D01*
X17786835Y17400000D01*
X17813165D01*
X17838599Y17406815D01*
X17861401Y17419980D01*
X17875861Y17434439D01*
X18674139D01*
X18688599Y17419980D01*
X18711401Y17406815D01*
X18736835Y17400000D01*
X18763165D01*
X18788599Y17406815D01*
X18811401Y17419980D01*
X18830020Y17438599D01*
X18843185Y17461401D01*
X18850000Y17486835D01*
Y17513165D01*
X18843185Y17538599D01*
X18830020Y17561401D01*
X18811401Y17580020D01*
X18788599Y17593185D01*
X18763165Y17600000D01*
D02*
G37*
G36*
X18163165Y18600000D02*
X18136835D01*
X18111401Y18593185D01*
X18088599Y18580020D01*
X18069980Y18561401D01*
X18056815Y18538599D01*
X18050000Y18513165D01*
Y18486835D01*
X18056815Y18461401D01*
X18069980Y18438599D01*
X18084439Y18424139D01*
Y18277156D01*
X17179858Y17372575D01*
X17155421Y17382698D01*
X17118713Y17389999D01*
X17081287D01*
X17044579Y17382698D01*
X17010002Y17368375D01*
X16978882Y17347581D01*
X16952419Y17321118D01*
X16931625Y17289998D01*
X16917302Y17255421D01*
X16910001Y17218713D01*
Y17181287D01*
X16917302Y17144579D01*
X16927425Y17120142D01*
X16272844Y16465561D01*
X12536445D01*
X12528949Y16469888D01*
X12509874Y16475000D01*
X12490126D01*
X12471051Y16469888D01*
X12453949Y16460014D01*
X12439985Y16446051D01*
X12430111Y16428949D01*
X12425000Y16409874D01*
Y16390126D01*
X12430111Y16371051D01*
X12439985Y16353949D01*
X12453949Y16339986D01*
X12471051Y16330112D01*
X12490126Y16325000D01*
X12509874D01*
X12528949Y16330112D01*
X12536445Y16334439D01*
X16300000D01*
X16316969Y16336673D01*
X16332780Y16343224D01*
X16346358Y16353642D01*
X17020142Y17027425D01*
X17044579Y17017302D01*
X17081287Y17010001D01*
X17118713D01*
X17155421Y17017302D01*
X17189999Y17031624D01*
X17221118Y17052419D01*
X17247581Y17078882D01*
X17268376Y17110001D01*
X17282698Y17144579D01*
X17289999Y17181287D01*
Y17218713D01*
X17282698Y17255421D01*
X17272575Y17279858D01*
X18196358Y18203642D01*
X18206776Y18217220D01*
X18213327Y18233031D01*
X18215561Y18250000D01*
Y18424139D01*
X18230020Y18438599D01*
X18243185Y18461401D01*
X18250000Y18486835D01*
Y18513165D01*
X18243185Y18538599D01*
X18230020Y18561401D01*
X18211401Y18580020D01*
X18188599Y18593185D01*
X18163165Y18600000D01*
D02*
G37*
G36*
X18714999Y14254684D02*
Y14164999D01*
X18804684D01*
X18797844Y14190527D01*
X18784019Y14214471D01*
X18764471Y14234021D01*
X18740527Y14247844D01*
X18714999Y14254684D01*
D02*
G37*
G36*
X18684999D02*
X18659471Y14247844D01*
X18635529Y14234021D01*
X18615979Y14214471D01*
X18602155Y14190527D01*
X18595316Y14164999D01*
X18684999D01*
Y14254684D01*
D02*
G37*
G36*
X19164999Y14254684D02*
Y14164999D01*
X19254684D01*
X19247844Y14190527D01*
X19234019Y14214471D01*
X19214471Y14234019D01*
X19190527Y14247844D01*
X19164999Y14254684D01*
D02*
G37*
G36*
X19135001D02*
X19109471Y14247844D01*
X19085529Y14234019D01*
X19065979Y14214471D01*
X19052155Y14190527D01*
X19045316Y14164999D01*
X19135001D01*
Y14254684D01*
D02*
G37*
G36*
X18804684Y14135001D02*
X18714999D01*
Y14045316D01*
X18740527Y14052156D01*
X18764471Y14065979D01*
X18784019Y14085529D01*
X18797844Y14109471D01*
X18804684Y14135001D01*
D02*
G37*
G36*
X18684999D02*
X18595316D01*
X18602155Y14109471D01*
X18615979Y14085529D01*
X18635529Y14065979D01*
X18659471Y14052156D01*
X18684999Y14045316D01*
Y14135001D01*
D02*
G37*
G36*
X19254684Y14135001D02*
X19164999D01*
Y14045316D01*
X19190527Y14052156D01*
X19214471Y14065979D01*
X19234019Y14085529D01*
X19247844Y14109471D01*
X19254684Y14135001D01*
D02*
G37*
G36*
X19135001D02*
X19045316D01*
X19052155Y14109471D01*
X19065979Y14085529D01*
X19085529Y14065979D01*
X19109471Y14052156D01*
X19135001Y14045316D01*
Y14135001D01*
D02*
G37*
G36*
X18557140Y13815009D02*
X18526860D01*
X18497610Y13807172D01*
X18471388Y13792030D01*
X18449977Y13770619D01*
X18434837Y13744395D01*
X18427000Y13715147D01*
Y13684868D01*
X18434837Y13655620D01*
X18449977Y13629396D01*
X18451224Y13628149D01*
Y13371866D01*
X18449977Y13370621D01*
X18434837Y13344395D01*
X18427000Y13315147D01*
Y13284868D01*
X18434837Y13255620D01*
X18449977Y13229398D01*
X18471388Y13207986D01*
X18497610Y13192845D01*
X18526860Y13185008D01*
X18557140D01*
X18586388Y13192845D01*
X18612611Y13207986D01*
X18634023Y13229398D01*
X18649162Y13255620D01*
X18656999Y13284868D01*
Y13315147D01*
X18649162Y13344395D01*
X18634023Y13370621D01*
X18632776Y13371866D01*
Y13628149D01*
X18634023Y13629396D01*
X18649162Y13655620D01*
X18657001Y13684868D01*
Y13715147D01*
X18649162Y13744395D01*
X18634023Y13770619D01*
X18612611Y13792030D01*
X18586388Y13807172D01*
X18557140Y13815009D01*
D02*
G37*
G36*
X18557001Y12999516D02*
Y12915009D01*
X18641508D01*
X18635185Y12938606D01*
X18622018Y12961409D01*
X18603401Y12980028D01*
X18580598Y12993193D01*
X18557001Y12999516D01*
D02*
G37*
G36*
X18527000Y12999516D02*
X18503401Y12993193D01*
X18480598Y12980028D01*
X18461980Y12961409D01*
X18448814Y12938606D01*
X18442491Y12915009D01*
X18527000D01*
Y12999516D01*
D02*
G37*
G36*
X18641508Y12885008D02*
X18557001D01*
Y12800500D01*
X18580598Y12806824D01*
X18603401Y12819987D01*
X18622018Y12838606D01*
X18635185Y12861411D01*
X18641508Y12885008D01*
D02*
G37*
G36*
X18527000D02*
X18442491D01*
X18448814Y12861411D01*
X18461980Y12838606D01*
X18480598Y12819987D01*
X18503401Y12806824D01*
X18527000Y12800499D01*
Y12885008D01*
D02*
G37*
G36*
X19573140Y13414992D02*
X19542860D01*
X19513611Y13407155D01*
X19487389Y13392014D01*
X19465977Y13370602D01*
X19450838Y13344380D01*
X19442999Y13315132D01*
Y13284853D01*
X19450838Y13255603D01*
X19465977Y13229379D01*
X19467223Y13228134D01*
Y12971851D01*
X19465977Y12970602D01*
X19450838Y12944380D01*
X19442999Y12915132D01*
Y12884853D01*
X19450838Y12855603D01*
X19465977Y12829379D01*
X19487389Y12807970D01*
X19513611Y12792829D01*
X19542860Y12784992D01*
X19573140D01*
X19602388Y12792829D01*
X19628612Y12807970D01*
X19650021Y12829379D01*
X19665163Y12855603D01*
X19673000Y12884853D01*
Y12915132D01*
X19665163Y12944380D01*
X19650021Y12970602D01*
X19648776Y12971851D01*
Y13228134D01*
X19650021Y13229379D01*
X19665163Y13255603D01*
X19673000Y13284853D01*
Y13315132D01*
X19665163Y13344380D01*
X19650021Y13370602D01*
X19628612Y13392014D01*
X19602388Y13407155D01*
X19573140Y13414992D01*
D02*
G37*
G36*
X19661191Y11685000D02*
X19638811D01*
X19617191Y11679207D01*
X19597809Y11668017D01*
X19581982Y11652191D01*
X19570793Y11632809D01*
X19564999Y11611190D01*
Y11588809D01*
X19570793Y11567191D01*
X19581982Y11547809D01*
X19597809Y11531983D01*
X19617191Y11520793D01*
X19638811Y11515000D01*
X19661191D01*
X19682809Y11520793D01*
X19702191Y11531983D01*
X19718018Y11547809D01*
X19729207Y11567191D01*
X19735001Y11588809D01*
Y11611190D01*
X19729207Y11632809D01*
X19718018Y11652191D01*
X19702191Y11668017D01*
X19682809Y11679207D01*
X19661191Y11685000D01*
D02*
G37*
G36*
X517728Y19680000D02*
X482272D01*
X447496Y19673083D01*
X414738Y19659514D01*
X385257Y19639815D01*
X360185Y19614743D01*
X340486Y19585262D01*
X326917Y19552504D01*
X320000Y19517729D01*
Y19482272D01*
X326917Y19447496D01*
X340486Y19414738D01*
X360185Y19385257D01*
X385257Y19360185D01*
X414738Y19340486D01*
X447496Y19326917D01*
X482272Y19320000D01*
X517728D01*
X552504Y19326917D01*
X585262Y19340486D01*
X614743Y19360185D01*
X639815Y19385257D01*
X659514Y19414738D01*
X673083Y19447496D01*
X680000Y19482272D01*
Y19517729D01*
X673083Y19552504D01*
X659514Y19585262D01*
X639815Y19614743D01*
X614743Y19639815D01*
X585262Y19659514D01*
X552504Y19673083D01*
X517728Y19680000D01*
D02*
G37*
G36*
X7011819Y19278000D02*
X6988181D01*
X6964997Y19273389D01*
X6943159Y19264343D01*
X6923505Y19251210D01*
X6906790Y19234496D01*
X6899484Y19223561D01*
X6644947D01*
X6642031Y19228612D01*
X6620620Y19250023D01*
X6594397Y19265163D01*
X6565148Y19273000D01*
X6534868D01*
X6505620Y19265163D01*
X6479397Y19250023D01*
X6457986Y19228612D01*
X6442845Y19202388D01*
X6435008Y19173140D01*
Y19142860D01*
X6442845Y19113612D01*
X6457986Y19087389D01*
X6479397Y19065977D01*
X6505620Y19050838D01*
X6534868Y19042999D01*
X6565148D01*
X6594397Y19050838D01*
X6620620Y19065977D01*
X6642031Y19087389D01*
X6644947Y19092439D01*
X6899484D01*
X6906790Y19081505D01*
X6923505Y19064790D01*
X6943159Y19051659D01*
X6964997Y19042612D01*
X6988181Y19038000D01*
X7011819D01*
X7035003Y19042612D01*
X7056841Y19051659D01*
X7076495Y19064790D01*
X7093210Y19081505D01*
X7100516Y19092439D01*
X7334439D01*
Y17978497D01*
X7310001Y17968376D01*
X7278882Y17947581D01*
X7252417Y17921118D01*
X7231624Y17889999D01*
X7217302Y17855421D01*
X7210000Y17818713D01*
Y17781287D01*
X7217302Y17744579D01*
X7231624Y17710001D01*
X7252417Y17678882D01*
X7278882Y17652419D01*
X7310001Y17631624D01*
X7334439Y17621503D01*
X7334439Y15300000D01*
X7336673Y15283031D01*
X7343223Y15267220D01*
X7353642Y15253641D01*
X7353643Y15253641D01*
X8153641Y14453642D01*
X8167219Y14443224D01*
X8183031Y14436673D01*
X8200000Y14434439D01*
X9174140D01*
X9188599Y14419980D01*
X9211402Y14406815D01*
X9236835Y14400000D01*
X9263165D01*
X9288598Y14406815D01*
X9311401Y14419980D01*
X9330020Y14438599D01*
X9343185Y14461401D01*
X9350000Y14486835D01*
Y14513165D01*
X9343185Y14538599D01*
X9330020Y14561401D01*
X9311401Y14580020D01*
X9288598Y14593185D01*
X9263165Y14600000D01*
X9236835D01*
X9211402Y14593185D01*
X9188599Y14580020D01*
X9174140Y14565561D01*
X8227156D01*
X7465561Y15327156D01*
X7465560Y17621503D01*
X7489998Y17631624D01*
X7521118Y17652419D01*
X7547582Y17678882D01*
X7568375Y17710001D01*
X7582698Y17744579D01*
X7590000Y17781287D01*
Y17818713D01*
X7582698Y17855421D01*
X7568375Y17889999D01*
X7547582Y17921118D01*
X7521118Y17947581D01*
X7489998Y17968376D01*
X7465560Y17978497D01*
Y19160828D01*
X7463326Y19177795D01*
X7456777Y19193607D01*
X7446358Y19207185D01*
X7432780Y19217604D01*
X7416968Y19224155D01*
X7400000Y19226389D01*
X7383031Y19224155D01*
X7381601Y19223561D01*
X7100516D01*
X7093210Y19234496D01*
X7076495Y19251210D01*
X7056841Y19264343D01*
X7035003Y19273389D01*
X7011819Y19278000D01*
D02*
G37*
G36*
X5797000Y19159508D02*
Y19075000D01*
X5881508D01*
X5875185Y19098598D01*
X5862020Y19121400D01*
X5843401Y19140021D01*
X5820598Y19153185D01*
X5797000Y19159508D01*
D02*
G37*
G36*
X5767000D02*
X5743402Y19153185D01*
X5720599Y19140021D01*
X5701980Y19121400D01*
X5688815Y19098598D01*
X5682492Y19075000D01*
X5767000D01*
Y19159508D01*
D02*
G37*
G36*
X6168713Y19689999D02*
X6131286D01*
X6094579Y19682698D01*
X6060001Y19668376D01*
X6028882Y19647581D01*
X6002418Y19621118D01*
X5981624Y19589999D01*
X5971502Y19565561D01*
X4150000D01*
X4133032Y19563327D01*
X4117220Y19556776D01*
X4103642Y19546358D01*
X3914641Y19357358D01*
X3904222Y19343781D01*
X3897673Y19327968D01*
X3895439Y19310999D01*
Y19161719D01*
X3888982Y19155261D01*
X3877133Y19134740D01*
X3871000Y19111848D01*
Y19088152D01*
X3877133Y19065262D01*
X3888982Y19044739D01*
X3905738Y19027983D01*
X3926261Y19016135D01*
X3949151Y19010001D01*
X3972848D01*
X3995738Y19016135D01*
X4016260Y19027983D01*
X4033017Y19044739D01*
X4044866Y19065262D01*
X4050999Y19088152D01*
Y19111848D01*
X4044866Y19134740D01*
X4033017Y19155261D01*
X4026560Y19161719D01*
Y19283844D01*
X4177156Y19434439D01*
X5971502D01*
X5981624Y19410002D01*
X6002418Y19378882D01*
X6028882Y19352419D01*
X6060001Y19331625D01*
X6084447Y19321500D01*
Y19252939D01*
X6079397Y19250021D01*
X6057985Y19228612D01*
X6042845Y19202388D01*
X6035008Y19173140D01*
Y19142860D01*
X6036518Y19137225D01*
X5864042Y18964751D01*
X5847022D01*
X5843003Y18979750D01*
X5843401Y18979980D01*
X5862020Y18998599D01*
X5875185Y19021402D01*
X5881508Y19045000D01*
X5682492D01*
X5688815Y19021402D01*
X5701980Y18998599D01*
X5720599Y18979980D01*
X5720997Y18979750D01*
X5716978Y18964751D01*
X5615598D01*
X5609385Y18979750D01*
X5619023Y18989388D01*
X5634163Y19015611D01*
X5642000Y19044859D01*
Y19075140D01*
X5634163Y19104388D01*
X5619023Y19130611D01*
X5597611Y19152022D01*
X5571388Y19167163D01*
X5542140Y19174998D01*
X5511860D01*
X5482612Y19167163D01*
X5456388Y19152022D01*
X5434977Y19130611D01*
X5419837Y19104388D01*
X5412000Y19075140D01*
Y19044859D01*
X5419837Y19015611D01*
X5434977Y18989388D01*
X5456388Y18967976D01*
X5461439Y18965060D01*
Y18923000D01*
X5463673Y18906032D01*
X5470222Y18890221D01*
X5480642Y18876642D01*
X5504452Y18852831D01*
X5518030Y18842412D01*
X5533842Y18835863D01*
X5550810Y18833629D01*
X5891198D01*
X5908166Y18835863D01*
X5923978Y18842412D01*
X5937556Y18852831D01*
X6129235Y19044510D01*
X6134868Y19042999D01*
X6165148D01*
X6194396Y19050838D01*
X6220620Y19065977D01*
X6242031Y19087389D01*
X6257171Y19113612D01*
X6265008Y19142860D01*
Y19173140D01*
X6257171Y19202388D01*
X6242031Y19228612D01*
X6220620Y19250021D01*
X6215569Y19252939D01*
Y19321506D01*
X6239998Y19331625D01*
X6271118Y19352419D01*
X6297582Y19378882D01*
X6318375Y19410002D01*
X6332698Y19444579D01*
X6340000Y19481287D01*
Y19518713D01*
X6332698Y19555421D01*
X6318375Y19589999D01*
X6297582Y19621118D01*
X6271118Y19647581D01*
X6239998Y19668376D01*
X6205421Y19682698D01*
X6168713Y19689999D01*
D02*
G37*
G36*
X5034140Y19175000D02*
X5003860D01*
X4974612Y19167163D01*
X4948389Y19152023D01*
X4926977Y19130611D01*
X4911837Y19104388D01*
X4904000Y19075140D01*
Y19044859D01*
X4911837Y19015611D01*
X4926977Y18989388D01*
X4948389Y18967976D01*
X4953439Y18965060D01*
Y18581000D01*
X4955673Y18564030D01*
X4962223Y18548219D01*
X4972642Y18534642D01*
X5103642Y18403641D01*
X5117220Y18393224D01*
X5133032Y18386673D01*
X5150000Y18384439D01*
X6322844D01*
X6476321Y18230963D01*
X6457969Y18212611D01*
X6442829Y18186388D01*
X6434992Y18157140D01*
Y18126860D01*
X6442829Y18097612D01*
X6457969Y18071388D01*
X6479380Y18049977D01*
X6484439Y18047057D01*
Y17978497D01*
X6460002Y17968376D01*
X6428882Y17947581D01*
X6402418Y17921118D01*
X6381625Y17889999D01*
X6367302Y17855421D01*
X6360000Y17818713D01*
Y17781287D01*
X6367302Y17744579D01*
X6381625Y17710001D01*
X6402418Y17678882D01*
X6428882Y17652419D01*
X6460002Y17631624D01*
X6494579Y17617302D01*
X6531287Y17610001D01*
X6568714D01*
X6605421Y17617302D01*
X6639999Y17631624D01*
X6671118Y17652419D01*
X6697582Y17678882D01*
X6718376Y17710001D01*
X6732698Y17744579D01*
X6740000Y17781287D01*
Y17818713D01*
X6732698Y17855421D01*
X6718376Y17889999D01*
X6697582Y17921118D01*
X6671118Y17947581D01*
X6639999Y17968376D01*
X6615561Y17978497D01*
Y18047066D01*
X6620603Y18049977D01*
X6642015Y18071388D01*
X6657155Y18097612D01*
X6664992Y18126860D01*
Y18157140D01*
X6657155Y18186388D01*
X6642015Y18212611D01*
X6620603Y18234023D01*
X6615561Y18236934D01*
Y18250000D01*
X6613327Y18266968D01*
X6606777Y18282780D01*
X6596359Y18296358D01*
X6396358Y18496358D01*
X6382780Y18506776D01*
X6366968Y18513327D01*
X6350000Y18515561D01*
X5177156D01*
X5084561Y18608156D01*
Y18965060D01*
X5089612Y18967976D01*
X5111023Y18989388D01*
X5113939Y18994440D01*
X5178061D01*
X5180977Y18989388D01*
X5202389Y18967976D01*
X5228612Y18952837D01*
X5257860Y18945000D01*
X5288140D01*
X5317388Y18952837D01*
X5343612Y18967976D01*
X5365023Y18989388D01*
X5380163Y19015611D01*
X5388000Y19044859D01*
Y19075140D01*
X5380163Y19104388D01*
X5365023Y19130611D01*
X5343612Y19152022D01*
X5317388Y19167163D01*
X5288140Y19174998D01*
X5257860D01*
X5228612Y19167163D01*
X5202389Y19152022D01*
X5180977Y19130611D01*
X5178061Y19125560D01*
X5113939D01*
X5111023Y19130611D01*
X5089612Y19152023D01*
X5063388Y19167163D01*
X5034140Y19175000D01*
D02*
G37*
G36*
X5542000Y18339508D02*
Y18255000D01*
X5626508D01*
X5620185Y18278598D01*
X5607020Y18301401D01*
X5588401Y18320020D01*
X5565598Y18333185D01*
X5542000Y18339508D01*
D02*
G37*
G36*
X5512000D02*
X5488402Y18333185D01*
X5465599Y18320020D01*
X5446980Y18301401D01*
X5433815Y18278598D01*
X5427492Y18255000D01*
X5512000D01*
Y18339508D01*
D02*
G37*
G36*
X5796000Y18339508D02*
Y18255000D01*
X5880508D01*
X5874185Y18278598D01*
X5861020Y18301401D01*
X5842401Y18320020D01*
X5819598Y18333185D01*
X5796000Y18339508D01*
D02*
G37*
G36*
X5766000D02*
X5742402Y18333185D01*
X5719599Y18320020D01*
X5700980Y18301401D01*
X5687815Y18278598D01*
X5681492Y18255000D01*
X5766000D01*
Y18339508D01*
D02*
G37*
G36*
X6164992Y18241508D02*
Y18157001D01*
X6249500D01*
X6243177Y18180598D01*
X6230011Y18203401D01*
X6211393Y18222018D01*
X6188590Y18235185D01*
X6164992Y18241508D01*
D02*
G37*
G36*
X6134992D02*
X6111393Y18235185D01*
X6088591Y18222018D01*
X6069972Y18203401D01*
X6056807Y18180598D01*
X6050483Y18157001D01*
X6134992D01*
Y18241508D01*
D02*
G37*
G36*
X5626508Y18225000D02*
X5542000D01*
Y18140492D01*
X5565598Y18146815D01*
X5588401Y18159979D01*
X5607020Y18178600D01*
X5620185Y18201402D01*
X5626508Y18225000D01*
D02*
G37*
G36*
X5512000D02*
X5427492D01*
X5433815Y18201402D01*
X5446980Y18178600D01*
X5465599Y18159979D01*
X5488402Y18146815D01*
X5512000Y18140492D01*
Y18225000D01*
D02*
G37*
G36*
X5880508Y18225000D02*
X5796000D01*
Y18140492D01*
X5819598Y18146815D01*
X5842401Y18159979D01*
X5861020Y18178600D01*
X5874185Y18201401D01*
X5880508Y18225000D01*
D02*
G37*
G36*
X5766000D02*
X5681492D01*
X5687815Y18201401D01*
X5700980Y18178600D01*
X5719599Y18159979D01*
X5742402Y18146815D01*
X5766000Y18140492D01*
Y18225000D01*
D02*
G37*
G36*
X5288140Y18355000D02*
X5257860D01*
X5228612Y18347163D01*
X5202389Y18332024D01*
X5180977Y18310612D01*
X5165837Y18284389D01*
X5158000Y18255141D01*
Y18224860D01*
X5165837Y18195612D01*
X5180977Y18169389D01*
X5202389Y18147977D01*
X5228612Y18132837D01*
X5257860Y18125000D01*
X5288140D01*
X5317388Y18132837D01*
X5343612Y18147977D01*
X5365023Y18169389D01*
X5380163Y18195612D01*
X5388000Y18224860D01*
Y18255141D01*
X5380163Y18284389D01*
X5365023Y18310612D01*
X5343612Y18332024D01*
X5317388Y18347163D01*
X5288140Y18355000D01*
D02*
G37*
G36*
X6249500Y18127000D02*
X6164992D01*
Y18042491D01*
X6188590Y18048814D01*
X6211393Y18061980D01*
X6230011Y18080598D01*
X6243177Y18103401D01*
X6249500Y18127000D01*
D02*
G37*
G36*
X6134992D02*
X6050483D01*
X6056807Y18103401D01*
X6069972Y18080598D01*
X6088591Y18061980D01*
X6111393Y18048814D01*
X6134992Y18042491D01*
Y18127000D01*
D02*
G37*
G36*
X7011819Y18262000D02*
X6988181D01*
X6964997Y18257388D01*
X6943159Y18248341D01*
X6923505Y18235210D01*
X6906790Y18218495D01*
X6893658Y18198840D01*
X6884612Y18177003D01*
X6880000Y18153819D01*
Y18130180D01*
X6884612Y18106998D01*
X6893658Y18085159D01*
X6906790Y18065504D01*
X6923505Y18048790D01*
X6943159Y18035657D01*
X6964997Y18026611D01*
X6988181Y18022000D01*
X7011819D01*
X7035003Y18026611D01*
X7056841Y18035657D01*
X7076495Y18048790D01*
X7093210Y18065504D01*
X7106342Y18085159D01*
X7115388Y18106998D01*
X7120000Y18130180D01*
Y18153819D01*
X7115388Y18177003D01*
X7106342Y18198840D01*
X7093210Y18218495D01*
X7076495Y18235210D01*
X7056841Y18248341D01*
X7035003Y18257388D01*
X7011819Y18262000D01*
D02*
G37*
G36*
X863165Y19850000D02*
X836835D01*
X811402Y19843185D01*
X788599Y19830020D01*
X769980Y19811401D01*
X756815Y19788599D01*
X750000Y19763165D01*
Y19736835D01*
X756815Y19711401D01*
X759224Y19707230D01*
Y17892770D01*
X756815Y17888599D01*
X750000Y17863165D01*
Y17836835D01*
X756815Y17811401D01*
X769980Y17788599D01*
X788599Y17769980D01*
X811402Y17756815D01*
X836835Y17750000D01*
X863165D01*
X888598Y17756815D01*
X911401Y17769980D01*
X930020Y17788599D01*
X943185Y17811401D01*
X950000Y17836835D01*
Y17863165D01*
X943185Y17888599D01*
X940776Y17892770D01*
Y19707230D01*
X943185Y19711401D01*
X950000Y19736835D01*
Y19763165D01*
X943185Y19788599D01*
X930020Y19811401D01*
X911401Y19830020D01*
X888598Y19843185D01*
X863165Y19850000D01*
D02*
G37*
G36*
X2063165Y19050000D02*
X2036835D01*
X2011402Y19043185D01*
X1988599Y19030020D01*
X1969980Y19011401D01*
X1956815Y18988599D01*
X1950000Y18963165D01*
Y18936835D01*
X1956815Y18911401D01*
X1969980Y18888599D01*
X1984439Y18874139D01*
Y17525861D01*
X1969980Y17511401D01*
X1956815Y17488599D01*
X1950000Y17463165D01*
Y17436835D01*
X1956815Y17411401D01*
X1969980Y17388599D01*
X1988599Y17369980D01*
X2011402Y17356815D01*
X2036835Y17350000D01*
X2063165D01*
X2088598Y17356815D01*
X2111401Y17369980D01*
X2130020Y17388599D01*
X2143185Y17411401D01*
X2150000Y17436835D01*
Y17463165D01*
X2143185Y17488599D01*
X2130020Y17511401D01*
X2115561Y17525861D01*
Y18874139D01*
X2130020Y18888599D01*
X2143185Y18911401D01*
X2150000Y18936835D01*
Y18963165D01*
X2143185Y18988599D01*
X2130020Y19011401D01*
X2111401Y19030020D01*
X2088598Y19043185D01*
X2063165Y19050000D01*
D02*
G37*
G36*
X4299999Y19190778D02*
X4294101Y19189999D01*
X4288151D01*
X4282402Y19188460D01*
X4276505Y19187683D01*
X4271009Y19185406D01*
X4265261Y19183867D01*
X4260107Y19180891D01*
X4254611Y19178615D01*
X4249891Y19174992D01*
X4244738Y19172018D01*
X4240532Y19167812D01*
X4235811Y19164189D01*
X4232188Y19159468D01*
X4227982Y19155261D01*
X4225007Y19150110D01*
X4221385Y19145389D01*
X4219108Y19139893D01*
X4216133Y19134740D01*
X4214593Y19128992D01*
X4212316Y19123495D01*
X4211540Y19117596D01*
X4209999Y19111848D01*
Y19105898D01*
X4209223Y19100000D01*
Y18959001D01*
X4212316Y18935506D01*
X4221385Y18913612D01*
X4235811Y18894812D01*
X4904000Y18226622D01*
Y18224860D01*
X4911837Y18195612D01*
X4926977Y18169388D01*
X4928224Y18168143D01*
Y17281000D01*
X4931317Y17257504D01*
X4940386Y17235612D01*
X4954812Y17216811D01*
X4955568Y17216054D01*
X4956815Y17211401D01*
X4969980Y17188599D01*
X4988599Y17169980D01*
X5011402Y17156815D01*
X5036835Y17150000D01*
X5063165D01*
X5088598Y17156815D01*
X5111401Y17169980D01*
X5130020Y17188599D01*
X5143185Y17211401D01*
X5150000Y17236835D01*
Y17263165D01*
X5143185Y17288599D01*
X5130020Y17311401D01*
X5111401Y17330020D01*
X5109776Y17330959D01*
Y18168143D01*
X5111023Y18169388D01*
X5126163Y18195612D01*
X5134000Y18224860D01*
Y18255141D01*
X5126163Y18284389D01*
X5111023Y18310611D01*
X5089612Y18332024D01*
X5063388Y18347163D01*
X5034140Y18355000D01*
X5032378D01*
X4390776Y18996602D01*
Y19100000D01*
X4389999Y19105898D01*
Y19111848D01*
X4388459Y19117596D01*
X4387682Y19123495D01*
X4385406Y19128992D01*
X4383866Y19134740D01*
X4380891Y19139893D01*
X4378614Y19145389D01*
X4374992Y19150110D01*
X4372017Y19155261D01*
X4367811Y19159468D01*
X4364188Y19164189D01*
X4359467Y19167812D01*
X4355260Y19172018D01*
X4350108Y19174992D01*
X4345387Y19178615D01*
X4339891Y19180891D01*
X4334738Y19183867D01*
X4328990Y19185406D01*
X4323494Y19187683D01*
X4317596Y19188460D01*
X4311848Y19189999D01*
X4305897D01*
X4299999Y19190778D01*
D02*
G37*
G36*
X1863165Y18850000D02*
X1836835D01*
X1811402Y18843185D01*
X1788599Y18830020D01*
X1769980Y18811401D01*
X1756815Y18788599D01*
X1750000Y18763165D01*
Y18736835D01*
X1756815Y18711401D01*
X1769980Y18688599D01*
X1784439Y18674139D01*
Y16125861D01*
X1769980Y16111401D01*
X1756815Y16088599D01*
X1750000Y16063165D01*
Y16036835D01*
X1756815Y16011401D01*
X1769980Y15988599D01*
X1788599Y15969980D01*
X1811402Y15956815D01*
X1836835Y15950000D01*
X1863165D01*
X1888598Y15956815D01*
X1911401Y15969980D01*
X1930020Y15988599D01*
X1943185Y16011401D01*
X1950000Y16036835D01*
Y16063165D01*
X1943185Y16088599D01*
X1930020Y16111401D01*
X1915561Y16125861D01*
Y18674139D01*
X1930020Y18688599D01*
X1943185Y18711401D01*
X1950000Y18736835D01*
Y18763165D01*
X1943185Y18788599D01*
X1930020Y18811401D01*
X1911401Y18830020D01*
X1888598Y18843185D01*
X1863165Y18850000D01*
D02*
G37*
G36*
X1564999Y15753508D02*
Y15669003D01*
X1649507D01*
X1643185Y15692598D01*
X1630020Y15715401D01*
X1611401Y15734019D01*
X1588598Y15747185D01*
X1564999Y15753508D01*
D02*
G37*
G36*
X1534999Y15753508D02*
X1511402Y15747185D01*
X1488599Y15734019D01*
X1469980Y15715401D01*
X1456815Y15692598D01*
X1450493Y15669003D01*
X1534999D01*
Y15753508D01*
D02*
G37*
G36*
Y15639003D02*
X1450491D01*
X1456815Y15615402D01*
X1469980Y15592599D01*
X1488599Y15573981D01*
X1511402Y15560815D01*
X1534999Y15554492D01*
Y15639003D01*
D02*
G37*
G36*
X1649509D02*
X1564999D01*
Y15554492D01*
X1588598Y15560815D01*
X1611401Y15573981D01*
X1630020Y15592599D01*
X1643185Y15615402D01*
X1649509Y15639003D01*
D02*
G37*
G36*
X1565140Y15514999D02*
X1534860D01*
X1505612Y15507162D01*
X1479388Y15492023D01*
X1465535Y15478169D01*
X1400000D01*
X1379768Y15475505D01*
X1360915Y15467696D01*
X1344726Y15455273D01*
X1194726Y15305273D01*
X1182304Y15289084D01*
X1174495Y15270232D01*
X1171831Y15250000D01*
Y12900000D01*
X1174495Y12879768D01*
X1182304Y12860916D01*
X1194726Y12844727D01*
X1694726Y12344726D01*
X1710916Y12332304D01*
X1729768Y12324495D01*
X1750000Y12321831D01*
X12912999D01*
X12933231Y12324495D01*
X12941040Y12327729D01*
X12952084Y12332304D01*
X12968272Y12344726D01*
X13567650Y12944104D01*
X13573196Y12943001D01*
X13598804D01*
X13623920Y12947997D01*
X13647577Y12957796D01*
X13668871Y12972023D01*
X13686977Y12990131D01*
X13701204Y13011423D01*
X13711003Y13035081D01*
X13715999Y13060197D01*
Y13085805D01*
X13711003Y13110921D01*
X13701204Y13134579D01*
X13686977Y13155872D01*
X13668871Y13173978D01*
X13647577Y13188205D01*
X13623920Y13198004D01*
X13598804Y13203000D01*
X13573196D01*
X13548080Y13198004D01*
X13524422Y13188205D01*
X13503130Y13173978D01*
X13485022Y13155872D01*
X13470795Y13134579D01*
X13460995Y13110921D01*
X13459048Y13101131D01*
X13443654Y13100626D01*
X13439163Y13117389D01*
X13424022Y13143613D01*
X13402611Y13165022D01*
X13376389Y13180164D01*
X13347141Y13188000D01*
X13347000D01*
Y13073001D01*
X13317000D01*
Y13188000D01*
X13316859D01*
X13287611Y13180164D01*
X13261388Y13165022D01*
X13239977Y13143613D01*
X13224837Y13117389D01*
X13220345Y13100626D01*
X13204951Y13101129D01*
X13203003Y13110921D01*
X13193204Y13134579D01*
X13178976Y13155872D01*
X13160870Y13173978D01*
X13139577Y13188205D01*
X13115919Y13198004D01*
X13090804Y13203000D01*
X13065196D01*
X13040080Y13198004D01*
X13016422Y13188205D01*
X12995129Y13173978D01*
X12977022Y13155872D01*
X12962794Y13134579D01*
X12959117Y13125699D01*
X12942880D01*
X12939203Y13134579D01*
X12924976Y13155872D01*
X12906870Y13173978D01*
X12885577Y13188205D01*
X12861919Y13198006D01*
X12836803Y13203001D01*
X12811195D01*
X12786080Y13198006D01*
X12762421Y13188205D01*
X12741129Y13173978D01*
X12723022Y13155872D01*
X12708795Y13134579D01*
X12705118Y13125700D01*
X12688882D01*
X12685204Y13134579D01*
X12670977Y13155872D01*
X12652870Y13173978D01*
X12631578Y13188205D01*
X12607920Y13198004D01*
X12582804Y13203000D01*
X12557196D01*
X12532081Y13198004D01*
X12508422Y13188205D01*
X12487130Y13173978D01*
X12469023Y13155872D01*
X12454796Y13134579D01*
X12451118Y13125699D01*
X12434882D01*
X12431204Y13134579D01*
X12416977Y13155872D01*
X12398870Y13173978D01*
X12377578Y13188205D01*
X12353919Y13198004D01*
X12328804Y13203000D01*
X12303196D01*
X12278081Y13198004D01*
X12254422Y13188205D01*
X12233130Y13173978D01*
X12215023Y13155872D01*
X12200796Y13134579D01*
X12197118Y13125699D01*
X12180882D01*
X12177204Y13134579D01*
X12162977Y13155872D01*
X12144870Y13173978D01*
X12123578Y13188205D01*
X12099919Y13198004D01*
X12074804Y13203000D01*
X12049196D01*
X12024080Y13198004D01*
X12000422Y13188205D01*
X11979130Y13173978D01*
X11961023Y13155872D01*
X11946796Y13134579D01*
X11943118Y13125699D01*
X11926882D01*
X11923204Y13134579D01*
X11908977Y13155872D01*
X11890870Y13173978D01*
X11869577Y13188205D01*
X11845919Y13198004D01*
X11820803Y13203000D01*
X11795196D01*
X11770080Y13198004D01*
X11746422Y13188205D01*
X11725129Y13173978D01*
X11707022Y13155872D01*
X11692795Y13134579D01*
X11689118Y13125699D01*
X11672881D01*
X11669204Y13134579D01*
X11654977Y13155872D01*
X11636870Y13173978D01*
X11615577Y13188205D01*
X11591919Y13198004D01*
X11566803Y13203000D01*
X11541196D01*
X11516080Y13198004D01*
X11492422Y13188205D01*
X11471129Y13173978D01*
X11453022Y13155872D01*
X11438795Y13134579D01*
X11435118Y13125699D01*
X11418881D01*
X11415204Y13134579D01*
X11400977Y13155872D01*
X11382870Y13173978D01*
X11361577Y13188205D01*
X11337919Y13198004D01*
X11312803Y13203000D01*
X11287196D01*
X11262080Y13198004D01*
X11238422Y13188205D01*
X11217129Y13173978D01*
X11199022Y13155872D01*
X11184795Y13134579D01*
X11181118Y13125700D01*
X11164882D01*
X11161204Y13134579D01*
X11146977Y13155872D01*
X11128870Y13173978D01*
X11107578Y13188205D01*
X11083919Y13198004D01*
X11058804Y13203000D01*
X11033196D01*
X11008080Y13198004D01*
X10984422Y13188205D01*
X10963130Y13173978D01*
X10945023Y13155872D01*
X10930796Y13134579D01*
X10927118Y13125699D01*
X10910882D01*
X10907204Y13134579D01*
X10892977Y13155872D01*
X10874870Y13173978D01*
X10853577Y13188205D01*
X10829919Y13198004D01*
X10804803Y13203000D01*
X10779196D01*
X10754080Y13198004D01*
X10730422Y13188205D01*
X10709129Y13173978D01*
X10691022Y13155872D01*
X10676795Y13134579D01*
X10673118Y13125700D01*
X10656882D01*
X10653204Y13134579D01*
X10638977Y13155872D01*
X10620870Y13173978D01*
X10599578Y13188205D01*
X10575919Y13198004D01*
X10550804Y13203000D01*
X10525196D01*
X10500081Y13198004D01*
X10476422Y13188205D01*
X10455130Y13173978D01*
X10437023Y13155872D01*
X10422796Y13134579D01*
X10419118Y13125700D01*
X10402882D01*
X10399204Y13134579D01*
X10384977Y13155872D01*
X10366870Y13173978D01*
X10345578Y13188205D01*
X10321920Y13198004D01*
X10296804Y13203000D01*
X10271196D01*
X10246081Y13198004D01*
X10222422Y13188205D01*
X10201130Y13173978D01*
X10183023Y13155872D01*
X10168796Y13134579D01*
X10165118Y13125699D01*
X10148882D01*
X10145204Y13134579D01*
X10130977Y13155872D01*
X10112870Y13173978D01*
X10091578Y13188205D01*
X10067919Y13198004D01*
X10042804Y13203000D01*
X10017196D01*
X9992080Y13198004D01*
X9968422Y13188205D01*
X9947130Y13173978D01*
X9929023Y13155872D01*
X9914796Y13134579D01*
X9911118Y13125699D01*
X9894882D01*
X9891204Y13134579D01*
X9876977Y13155872D01*
X9858870Y13173978D01*
X9837578Y13188205D01*
X9813919Y13198004D01*
X9788804Y13203000D01*
X9763196D01*
X9738080Y13198004D01*
X9714422Y13188205D01*
X9693130Y13173978D01*
X9675023Y13155872D01*
X9660796Y13134579D01*
X9657118Y13125699D01*
X9640882D01*
X9637204Y13134579D01*
X9622977Y13155872D01*
X9604870Y13173978D01*
X9587560Y13185544D01*
Y13278001D01*
X9585326Y13294969D01*
X9578777Y13310780D01*
X9568358Y13324359D01*
X9496358Y13396358D01*
X9482780Y13406776D01*
X9466969Y13413327D01*
X9450000Y13415561D01*
X4778498D01*
X4768376Y13439999D01*
X4747582Y13471118D01*
X4721118Y13497581D01*
X4689998Y13518376D01*
X4655421Y13532698D01*
X4618713Y13539999D01*
X4581286D01*
X4544579Y13532698D01*
X4510001Y13518376D01*
X4478882Y13497581D01*
X4452418Y13471118D01*
X4431624Y13439999D01*
X4421502Y13415561D01*
X4177156D01*
X2400358Y15192358D01*
X2386780Y15202777D01*
X2370969Y15209328D01*
X2354000Y15211562D01*
X1644939D01*
X1642023Y15216611D01*
X1620611Y15238023D01*
X1594388Y15253163D01*
X1565140Y15261000D01*
X1534860D01*
X1505612Y15253163D01*
X1479388Y15238023D01*
X1457977Y15216611D01*
X1442837Y15190388D01*
X1435000Y15161140D01*
Y15130859D01*
X1442837Y15101611D01*
X1457977Y15075388D01*
X1479388Y15053976D01*
X1505612Y15038837D01*
X1534860Y15031000D01*
X1565140D01*
X1594388Y15038837D01*
X1620611Y15053976D01*
X1642023Y15075388D01*
X1644939Y15080440D01*
X2326844D01*
X4103642Y13303641D01*
X4117220Y13293224D01*
X4133032Y13286673D01*
X4150000Y13284439D01*
X4421502D01*
X4431624Y13260001D01*
X4452418Y13228882D01*
X4478882Y13202419D01*
X4510001Y13181624D01*
X4544579Y13167302D01*
X4581286Y13160001D01*
X4618713D01*
X4655421Y13167302D01*
X4689998Y13181624D01*
X4721118Y13202419D01*
X4747582Y13228882D01*
X4768376Y13260001D01*
X4778498Y13284439D01*
X9422844D01*
X9456439Y13250844D01*
Y13185544D01*
X9439129Y13173978D01*
X9421022Y13155872D01*
X9406795Y13134579D01*
X9403118Y13125699D01*
X9386881D01*
X9383204Y13134579D01*
X9368977Y13155872D01*
X9350870Y13173978D01*
X9329577Y13188205D01*
X9305919Y13198004D01*
X9280803Y13203000D01*
X9255196D01*
X9230080Y13198004D01*
X9206422Y13188205D01*
X9185129Y13173978D01*
X9167022Y13155872D01*
X9152795Y13134579D01*
X9149118Y13125699D01*
X9132881D01*
X9129204Y13134579D01*
X9114977Y13155872D01*
X9096870Y13173978D01*
X9075577Y13188205D01*
X9051919Y13198004D01*
X9026803Y13203000D01*
X9001196D01*
X8976080Y13198004D01*
X8952422Y13188205D01*
X8931129Y13173978D01*
X8913022Y13155872D01*
X8898795Y13134579D01*
X8895118Y13125700D01*
X8878882D01*
X8875205Y13134579D01*
X8860978Y13155872D01*
X8842871Y13173978D01*
X8821578Y13188205D01*
X8797920Y13198004D01*
X8772804Y13203000D01*
X8747197D01*
X8722081Y13198004D01*
X8698423Y13188205D01*
X8677130Y13173978D01*
X8659023Y13155872D01*
X8644796Y13134579D01*
X8634997Y13110921D01*
X8630001Y13085805D01*
Y13060197D01*
X8634997Y13035081D01*
X8644796Y13011423D01*
X8659023Y12990131D01*
X8677130Y12972023D01*
X8698423Y12957796D01*
X8722081Y12947997D01*
X8747197Y12943001D01*
X8772804D01*
X8797920Y12947997D01*
X8821578Y12957796D01*
X8842871Y12972023D01*
X8860978Y12990131D01*
X8875205Y13011423D01*
X8878882Y13020300D01*
X8895118D01*
X8898795Y13011423D01*
X8913022Y12990131D01*
X8931129Y12972023D01*
X8952422Y12957796D01*
X8976080Y12947997D01*
X9001196Y12943001D01*
X9026803D01*
X9051919Y12947997D01*
X9075577Y12957796D01*
X9096870Y12972023D01*
X9114977Y12990131D01*
X9129204Y13011423D01*
X9132881Y13020302D01*
X9149118D01*
X9152795Y13011423D01*
X9167022Y12990131D01*
X9185129Y12972023D01*
X9206422Y12957796D01*
X9230080Y12947997D01*
X9255196Y12943001D01*
X9280803D01*
X9305919Y12947997D01*
X9329577Y12957796D01*
X9350870Y12972023D01*
X9368977Y12990131D01*
X9383204Y13011423D01*
X9386881Y13020302D01*
X9403118D01*
X9406795Y13011423D01*
X9421022Y12990131D01*
X9439129Y12972023D01*
X9460422Y12957796D01*
X9484080Y12947997D01*
X9509196Y12943001D01*
X9534803D01*
X9559919Y12947997D01*
X9583577Y12957796D01*
X9604870Y12972023D01*
X9622977Y12990131D01*
X9637204Y13011423D01*
X9640882Y13020302D01*
X9657118D01*
X9660796Y13011423D01*
X9675023Y12990131D01*
X9693130Y12972023D01*
X9705852Y12963522D01*
Y12898569D01*
X9472844Y12665561D01*
X2047143Y12665560D01*
X1615561Y13097142D01*
Y13598329D01*
X1639998Y13608452D01*
X1671118Y13629245D01*
X1697582Y13655710D01*
X1718376Y13686829D01*
X1732698Y13721407D01*
X1740000Y13758115D01*
Y13795541D01*
X1732698Y13832248D01*
X1718376Y13866826D01*
X1697582Y13897945D01*
X1671118Y13924409D01*
X1639998Y13945203D01*
X1615561Y13955325D01*
Y14777000D01*
X1665000D01*
Y15006999D01*
X1435000D01*
Y14777000D01*
X1484439D01*
Y13955325D01*
X1460001Y13945203D01*
X1428882Y13924409D01*
X1402418Y13897945D01*
X1381624Y13866826D01*
X1367302Y13832248D01*
X1360000Y13795541D01*
Y13758115D01*
X1367302Y13721407D01*
X1381624Y13686829D01*
X1402418Y13655710D01*
X1428882Y13629245D01*
X1460001Y13608452D01*
X1484439Y13598329D01*
Y13069987D01*
X1486673Y13053018D01*
X1493222Y13037206D01*
X1503641Y13023628D01*
X1973628Y12553641D01*
X1987206Y12543222D01*
X2003018Y12536673D01*
X2019987Y12534439D01*
X9500000Y12534440D01*
X9516969Y12536674D01*
X9532781Y12543223D01*
X9546359Y12553642D01*
X9817772Y12825055D01*
X9828190Y12838634D01*
X9834740Y12854445D01*
X9836974Y12871413D01*
Y12957545D01*
X9837578Y12957796D01*
X9858870Y12972023D01*
X9876977Y12990131D01*
X9891204Y13011423D01*
X9894882Y13020302D01*
X9911118D01*
X9914796Y13011423D01*
X9929023Y12990131D01*
X9947130Y12972023D01*
X9968422Y12957796D01*
X9992080Y12947997D01*
X10017196Y12943001D01*
X10042804D01*
X10067919Y12947997D01*
X10091578Y12957796D01*
X10112870Y12972023D01*
X10130977Y12990131D01*
X10145204Y13011423D01*
X10148882Y13020302D01*
X10165118D01*
X10168796Y13011423D01*
X10183023Y12990131D01*
X10201130Y12972023D01*
X10222422Y12957796D01*
X10246081Y12947997D01*
X10271196Y12943001D01*
X10296804D01*
X10321920Y12947997D01*
X10345578Y12957796D01*
X10366870Y12972023D01*
X10384977Y12990131D01*
X10399204Y13011423D01*
X10402882Y13020300D01*
X10419118D01*
X10422796Y13011423D01*
X10437023Y12990131D01*
X10455130Y12972023D01*
X10476422Y12957796D01*
X10500081Y12947997D01*
X10525196Y12943001D01*
X10550804D01*
X10575919Y12947997D01*
X10599578Y12957796D01*
X10620870Y12972023D01*
X10638977Y12990131D01*
X10653204Y13011423D01*
X10656882Y13020300D01*
X10673118D01*
X10676795Y13011423D01*
X10691022Y12990131D01*
X10709129Y12972023D01*
X10730422Y12957796D01*
X10754080Y12947997D01*
X10779196Y12943001D01*
X10804803D01*
X10829919Y12947997D01*
X10853577Y12957796D01*
X10874870Y12972023D01*
X10892977Y12990131D01*
X10907204Y13011423D01*
X10910882Y13020302D01*
X10927118D01*
X10930796Y13011423D01*
X10945023Y12990131D01*
X10963130Y12972023D01*
X10984422Y12957796D01*
X11008080Y12947997D01*
X11033196Y12943001D01*
X11058804D01*
X11083919Y12947997D01*
X11107578Y12957796D01*
X11128870Y12972023D01*
X11146977Y12990131D01*
X11161204Y13011423D01*
X11164882Y13020300D01*
X11181118D01*
X11184795Y13011423D01*
X11199022Y12990131D01*
X11217129Y12972023D01*
X11238422Y12957796D01*
X11262080Y12947997D01*
X11287196Y12943001D01*
X11312803D01*
X11337919Y12947997D01*
X11361577Y12957796D01*
X11382870Y12972023D01*
X11400977Y12990131D01*
X11415204Y13011423D01*
X11418881Y13020302D01*
X11435118D01*
X11438795Y13011423D01*
X11453022Y12990131D01*
X11471129Y12972023D01*
X11492422Y12957796D01*
X11516080Y12947997D01*
X11541196Y12943001D01*
X11566803D01*
X11591919Y12947997D01*
X11615577Y12957796D01*
X11636870Y12972023D01*
X11654977Y12990131D01*
X11669204Y13011423D01*
X11672881Y13020302D01*
X11689118D01*
X11692795Y13011423D01*
X11707022Y12990131D01*
X11725129Y12972023D01*
X11746422Y12957796D01*
X11770080Y12947997D01*
X11795196Y12943001D01*
X11820803D01*
X11845919Y12947997D01*
X11869577Y12957796D01*
X11890870Y12972023D01*
X11908977Y12990131D01*
X11923204Y13011423D01*
X11926882Y13020302D01*
X11943118D01*
X11946796Y13011423D01*
X11961023Y12990131D01*
X11979130Y12972023D01*
X12000422Y12957796D01*
X12024080Y12947997D01*
X12049196Y12943001D01*
X12074804D01*
X12099919Y12947997D01*
X12123578Y12957796D01*
X12144870Y12972023D01*
X12162977Y12990131D01*
X12177204Y13011423D01*
X12180882Y13020302D01*
X12197118D01*
X12200796Y13011423D01*
X12215023Y12990131D01*
X12233130Y12972023D01*
X12254422Y12957796D01*
X12278081Y12947997D01*
X12303196Y12943001D01*
X12328804D01*
X12353919Y12947997D01*
X12377578Y12957796D01*
X12398870Y12972023D01*
X12416977Y12990131D01*
X12431204Y13011423D01*
X12434882Y13020302D01*
X12451118D01*
X12454796Y13011423D01*
X12469023Y12990131D01*
X12487130Y12972023D01*
X12508422Y12957796D01*
X12532081Y12947997D01*
X12557196Y12943001D01*
X12582804D01*
X12607920Y12947997D01*
X12631578Y12957796D01*
X12652870Y12972023D01*
X12670977Y12990131D01*
X12685204Y13011423D01*
X12688882Y13020300D01*
X12705118D01*
X12708795Y13011423D01*
X12723022Y12990131D01*
X12741129Y12972025D01*
X12762421Y12957797D01*
X12786080Y12947997D01*
X12811195Y12943001D01*
X12836803D01*
X12861919Y12947997D01*
X12885577Y12957797D01*
X12906870Y12972025D01*
X12924976Y12990131D01*
X12939203Y13011423D01*
X12942880Y13020302D01*
X12959117D01*
X12962794Y13011423D01*
X12977022Y12990131D01*
X12995129Y12972023D01*
X13016422Y12957796D01*
X13040080Y12947997D01*
X13065196Y12943001D01*
X13090804D01*
X13115919Y12947997D01*
X13139577Y12957796D01*
X13160870Y12972023D01*
X13178976Y12990131D01*
X13193204Y13011423D01*
X13203003Y13035081D01*
X13204951Y13044872D01*
X13220345Y13045377D01*
X13224837Y13028612D01*
X13239977Y13002390D01*
X13261388Y12980978D01*
X13287611Y12965839D01*
X13316859Y12958002D01*
X13339240D01*
X13345451Y12943001D01*
X12880620Y12478169D01*
X1782379D01*
X1328169Y12932379D01*
Y15217621D01*
X1432379Y15321831D01*
X1465535D01*
X1479388Y15307977D01*
X1505612Y15292838D01*
X1534860Y15285001D01*
X1565140D01*
X1594388Y15292838D01*
X1620611Y15307977D01*
X1642023Y15329388D01*
X1657163Y15355612D01*
X1665000Y15384860D01*
Y15415140D01*
X1657163Y15444388D01*
X1642023Y15470612D01*
X1620611Y15492023D01*
X1594388Y15507162D01*
X1565140Y15514999D01*
D02*
G37*
G36*
X2813165Y14000000D02*
X2786835D01*
X2761402Y13993185D01*
X2738599Y13980020D01*
X2719980Y13961401D01*
X2706815Y13938599D01*
X2700000Y13913165D01*
Y13886835D01*
X2706815Y13861401D01*
X2719980Y13838599D01*
X2734439Y13824139D01*
Y13125861D01*
X2719980Y13111401D01*
X2706815Y13088599D01*
X2700000Y13063165D01*
Y13036835D01*
X2706815Y13011401D01*
X2719980Y12988599D01*
X2738599Y12969980D01*
X2761402Y12956815D01*
X2786835Y12950000D01*
X2813165D01*
X2838598Y12956815D01*
X2861401Y12969980D01*
X2880020Y12988599D01*
X2893185Y13011401D01*
X2900000Y13036835D01*
Y13063165D01*
X2893185Y13088599D01*
X2880020Y13111401D01*
X2865561Y13125861D01*
Y13824139D01*
X2880020Y13838599D01*
X2893185Y13861401D01*
X2900000Y13886835D01*
Y13913165D01*
X2893185Y13938599D01*
X2880020Y13961401D01*
X2861401Y13980020D01*
X2838598Y13993185D01*
X2813165Y14000000D01*
D02*
G37*
G36*
X2763165Y10650000D02*
X2736835D01*
X2711402Y10643185D01*
X2688599Y10630020D01*
X2669980Y10611401D01*
X2656815Y10588598D01*
X2650000Y10563165D01*
Y10536835D01*
X2656815Y10511402D01*
X2669980Y10488599D01*
X2684439Y10474140D01*
Y9775860D01*
X2669980Y9761401D01*
X2656815Y9738598D01*
X2650000Y9713165D01*
Y9686835D01*
X2656815Y9661402D01*
X2669980Y9638599D01*
X2688599Y9619980D01*
X2711402Y9606815D01*
X2736835Y9600000D01*
X2763165D01*
X2788598Y9606815D01*
X2811401Y9619980D01*
X2830020Y9638599D01*
X2843185Y9661402D01*
X2850000Y9686835D01*
Y9713165D01*
X2843185Y9738598D01*
X2830020Y9761401D01*
X2815561Y9775860D01*
Y10474140D01*
X2830020Y10488599D01*
X2843185Y10511402D01*
X2850000Y10536835D01*
Y10563165D01*
X2843185Y10588598D01*
X2830020Y10611401D01*
X2811401Y10630020D01*
X2788598Y10643185D01*
X2763165Y10650000D01*
D02*
G37*
G36*
X18511819Y8978000D02*
X18488181D01*
X18464996Y8973388D01*
X18443159Y8964343D01*
X18423505Y8951210D01*
X18406790Y8934496D01*
X18393658Y8914841D01*
X18384612Y8893003D01*
X18380000Y8869819D01*
Y8846181D01*
X18384612Y8822998D01*
X18393658Y8801159D01*
X18406790Y8781505D01*
X18423505Y8764790D01*
X18443159Y8751658D01*
X18464996Y8742612D01*
X18488181Y8738001D01*
X18511819D01*
X18535004Y8742612D01*
X18556841Y8751658D01*
X18576495Y8764790D01*
X18593210Y8781505D01*
X18606343Y8801159D01*
X18615388Y8822998D01*
X18620000Y8846181D01*
Y8869819D01*
X18615388Y8893003D01*
X18606343Y8914841D01*
X18593210Y8934496D01*
X18576495Y8951210D01*
X18556841Y8964343D01*
X18535004Y8973388D01*
X18511819Y8978000D01*
D02*
G37*
G36*
X19884999Y7889155D02*
X19865262Y7883866D01*
X19844739Y7872018D01*
X19827982Y7855261D01*
X19816135Y7834738D01*
X19810844Y7815002D01*
X19884999D01*
Y7889155D01*
D02*
G37*
G36*
Y7785002D02*
X19810844D01*
X19816135Y7765261D01*
X19827982Y7744739D01*
X19844739Y7727982D01*
X19865262Y7716133D01*
X19884999Y7710845D01*
Y7785002D01*
D02*
G37*
G36*
X19661191Y7785000D02*
X19638811D01*
X19617191Y7779207D01*
X19597809Y7768017D01*
X19581982Y7752191D01*
X19570793Y7732809D01*
X19564999Y7711190D01*
Y7688809D01*
X19570793Y7667191D01*
X19581982Y7647809D01*
X19597809Y7631983D01*
X19617191Y7620792D01*
X19638811Y7615000D01*
X19661191D01*
X19682809Y7620792D01*
X19702191Y7631983D01*
X19718018Y7647809D01*
X19729207Y7667191D01*
X19735001Y7688809D01*
Y7711190D01*
X19729207Y7732809D01*
X19718018Y7752191D01*
X19702191Y7768017D01*
X19682809Y7779207D01*
X19661191Y7785000D01*
D02*
G37*
G36*
X19518713Y6690000D02*
X19481287D01*
X19444579Y6682698D01*
X19410001Y6668376D01*
X19378882Y6647582D01*
X19352417Y6621118D01*
X19331624Y6589999D01*
X19321503Y6565561D01*
X18964999D01*
Y6615000D01*
X18735001D01*
Y6607561D01*
X18594931D01*
X18592015Y6612612D01*
X18570602Y6634023D01*
X18544380Y6649163D01*
X18515132Y6657000D01*
X18484853D01*
X18455605Y6649163D01*
X18429379Y6634023D01*
X18407970Y6612612D01*
X18392828Y6586388D01*
X18384991Y6557140D01*
Y6526860D01*
X18392828Y6497612D01*
X18407970Y6471389D01*
X18429379Y6449977D01*
X18455605Y6434837D01*
X18484853Y6427000D01*
X18515132D01*
X18544380Y6434837D01*
X18570602Y6449977D01*
X18592015Y6471389D01*
X18594931Y6476439D01*
X18735001D01*
Y6385000D01*
X18872282D01*
X18986510Y6270773D01*
X18985001Y6265140D01*
Y6234860D01*
X18992838Y6205612D01*
X19007977Y6179388D01*
X19029388Y6157977D01*
X19055612Y6142837D01*
X19084860Y6135000D01*
X19115140D01*
X19144388Y6142837D01*
X19170612Y6157977D01*
X19192023Y6179388D01*
X19207162Y6205612D01*
X19214999Y6234860D01*
Y6265140D01*
X19207162Y6294388D01*
X19192023Y6320611D01*
X19170612Y6342023D01*
X19144388Y6357163D01*
X19115140Y6365000D01*
X19084860D01*
X19079227Y6363490D01*
X19022134Y6420581D01*
X19027876Y6434439D01*
X19321503D01*
X19331624Y6410001D01*
X19352417Y6378882D01*
X19378882Y6352418D01*
X19410001Y6331624D01*
X19444579Y6317302D01*
X19481287Y6310000D01*
X19518713D01*
X19555420Y6317302D01*
X19589998Y6331624D01*
X19621117Y6352418D01*
X19647581Y6378882D01*
X19668375Y6410001D01*
X19682698Y6444579D01*
X19689999Y6481287D01*
Y6518713D01*
X19682698Y6555421D01*
X19668375Y6589999D01*
X19647581Y6621118D01*
X19621117Y6647582D01*
X19589998Y6668376D01*
X19555420Y6682698D01*
X19518713Y6690000D01*
D02*
G37*
G36*
X2763165Y7350000D02*
X2736835D01*
X2711402Y7343185D01*
X2688599Y7330020D01*
X2669980Y7311401D01*
X2656815Y7288598D01*
X2650000Y7263165D01*
Y7236835D01*
X2656815Y7211402D01*
X2669980Y7188599D01*
X2684439Y7174140D01*
Y6425860D01*
X2669980Y6411401D01*
X2656815Y6388598D01*
X2650000Y6363165D01*
Y6336835D01*
X2656815Y6311402D01*
X2669980Y6288599D01*
X2688599Y6269980D01*
X2711402Y6256815D01*
X2736835Y6250000D01*
X2763165D01*
X2788598Y6256815D01*
X2811401Y6269980D01*
X2830020Y6288599D01*
X2843185Y6311402D01*
X2850000Y6336835D01*
Y6363165D01*
X2843185Y6388598D01*
X2830020Y6411401D01*
X2815561Y6425860D01*
Y7174140D01*
X2830020Y7188599D01*
X2843185Y7211402D01*
X2850000Y7236835D01*
Y7263165D01*
X2843185Y7288598D01*
X2830020Y7311401D01*
X2811401Y7330020D01*
X2788598Y7343185D01*
X2763165Y7350000D01*
D02*
G37*
G36*
X18865140Y6115000D02*
X18834860D01*
X18805612Y6107163D01*
X18779388Y6092023D01*
X18757977Y6070611D01*
X18742838Y6044388D01*
X18735001Y6015140D01*
Y5984860D01*
X18742838Y5955612D01*
X18757977Y5929388D01*
X18779388Y5907977D01*
X18784439Y5905061D01*
Y5731794D01*
X18759937Y5713993D01*
X18736008Y5690063D01*
X18716116Y5662684D01*
X18700752Y5632531D01*
X18690294Y5600346D01*
X18685001Y5566921D01*
Y5533079D01*
X18690294Y5499654D01*
X18700752Y5467469D01*
X18716116Y5437316D01*
X18736008Y5409937D01*
X18759937Y5386008D01*
X18787315Y5366116D01*
X18817468Y5350752D01*
X18849654Y5340294D01*
X18883080Y5335000D01*
X18916920D01*
X18950346Y5340294D01*
X18982532Y5350752D01*
X19012685Y5366116D01*
X19040063Y5386008D01*
X19063992Y5409937D01*
X19083884Y5437316D01*
X19099248Y5467469D01*
X19104762Y5484439D01*
X19321503D01*
X19331624Y5460002D01*
X19352417Y5428882D01*
X19378882Y5402418D01*
X19410001Y5381624D01*
X19444579Y5367302D01*
X19481287Y5360000D01*
X19518713D01*
X19555420Y5367302D01*
X19589998Y5381624D01*
X19621117Y5402418D01*
X19647581Y5428882D01*
X19668375Y5460002D01*
X19682698Y5494579D01*
X19689999Y5531287D01*
Y5568714D01*
X19682698Y5605421D01*
X19668375Y5639999D01*
X19647581Y5671118D01*
X19621117Y5697582D01*
X19589998Y5718376D01*
X19555420Y5732698D01*
X19518713Y5740000D01*
X19481287D01*
X19444579Y5732698D01*
X19410001Y5718376D01*
X19378882Y5697582D01*
X19352417Y5671118D01*
X19331624Y5639999D01*
X19321503Y5615561D01*
X19104762D01*
X19099248Y5632531D01*
X19083884Y5662684D01*
X19063992Y5690063D01*
X19040063Y5713993D01*
X19012685Y5733884D01*
X18982532Y5749248D01*
X18950346Y5759706D01*
X18916920Y5765000D01*
X18915561D01*
Y5905061D01*
X18920612Y5907977D01*
X18942023Y5929388D01*
X18957162Y5955612D01*
X18964999Y5984860D01*
Y6015140D01*
X18957162Y6044388D01*
X18942023Y6070611D01*
X18920612Y6092023D01*
X18894388Y6107163D01*
X18865140Y6115000D01*
D02*
G37*
G36*
X709500Y5477799D02*
X679500D01*
X647154Y5474613D01*
X616052Y5465178D01*
X587387Y5449857D01*
X562263Y5429237D01*
X541644Y5404113D01*
X526323Y5375448D01*
X516887Y5344346D01*
X513702Y5312000D01*
X516887Y5279655D01*
X526323Y5248552D01*
X541644Y5219888D01*
X562263Y5194763D01*
X587387Y5174144D01*
X616052Y5158823D01*
X647154Y5149388D01*
X679500Y5146202D01*
X709500D01*
X741846Y5149388D01*
X772948Y5158823D01*
X801613Y5174144D01*
X826737Y5194763D01*
X847356Y5219888D01*
X862677Y5248552D01*
X872113Y5279655D01*
X875298Y5312000D01*
X872113Y5344346D01*
X862677Y5375448D01*
X847356Y5404113D01*
X826737Y5429237D01*
X801613Y5449857D01*
X772948Y5465178D01*
X741846Y5474613D01*
X709500Y5477799D01*
D02*
G37*
G36*
X1221500Y5086000D02*
X1067499D01*
Y5019999D01*
X1221500D01*
Y5086000D01*
D02*
G37*
G36*
X1037499D02*
X883500D01*
Y5019999D01*
X1037499D01*
Y5086000D01*
D02*
G37*
G36*
X1221500Y4989999D02*
X1067499D01*
Y4924000D01*
X1221500D01*
Y4989999D01*
D02*
G37*
G36*
X1037499D02*
X883500D01*
Y4924000D01*
X1037499D01*
Y4989999D01*
D02*
G37*
G36*
X18916920Y4765000D02*
X18883080D01*
X18849654Y4759706D01*
X18817468Y4749248D01*
X18787315Y4733884D01*
X18759937Y4713993D01*
X18736008Y4690063D01*
X18716116Y4662684D01*
X18700752Y4632531D01*
X18695238Y4615561D01*
X18565009D01*
Y4623140D01*
X18557172Y4652388D01*
X18542030Y4678611D01*
X18520621Y4700023D01*
X18494395Y4715163D01*
X18465147Y4723000D01*
X18434868D01*
X18405620Y4715163D01*
X18379398Y4700023D01*
X18357985Y4678611D01*
X18342845Y4652388D01*
X18335008Y4623140D01*
Y4592860D01*
X18342845Y4563612D01*
X18357985Y4537388D01*
X18379398Y4515977D01*
X18405620Y4500837D01*
X18434868Y4493000D01*
X18465147D01*
X18472833Y4495060D01*
X18475227Y4493223D01*
X18491039Y4486673D01*
X18508008Y4484439D01*
X18695238D01*
X18700752Y4467469D01*
X18716116Y4437316D01*
X18736008Y4409937D01*
X18759937Y4386007D01*
X18787315Y4366116D01*
X18817468Y4350752D01*
X18849654Y4340294D01*
X18883080Y4335000D01*
X18916920D01*
X18950346Y4340294D01*
X18982532Y4350752D01*
X19012685Y4366116D01*
X19040063Y4386007D01*
X19063992Y4409937D01*
X19083884Y4437316D01*
X19099248Y4467469D01*
X19104762Y4484439D01*
X19321503D01*
X19331624Y4460001D01*
X19352417Y4428882D01*
X19378882Y4402418D01*
X19410001Y4381624D01*
X19444579Y4367302D01*
X19481287Y4360000D01*
X19518713D01*
X19555420Y4367302D01*
X19589998Y4381624D01*
X19621117Y4402418D01*
X19647581Y4428882D01*
X19668375Y4460001D01*
X19682698Y4494579D01*
X19689999Y4531287D01*
Y4568713D01*
X19682698Y4605421D01*
X19668375Y4639999D01*
X19647581Y4671118D01*
X19621117Y4697582D01*
X19589998Y4718376D01*
X19555420Y4732698D01*
X19518713Y4740000D01*
X19481287D01*
X19444579Y4732698D01*
X19410001Y4718376D01*
X19378882Y4697582D01*
X19352417Y4671118D01*
X19331624Y4639999D01*
X19321503Y4615561D01*
X19104762D01*
X19099248Y4632531D01*
X19083884Y4662684D01*
X19063992Y4690063D01*
X19040063Y4713993D01*
X19012685Y4733884D01*
X18982532Y4749248D01*
X18950346Y4759706D01*
X18916920Y4765000D01*
D02*
G37*
G36*
X1236500Y4851000D02*
X868500D01*
Y4666000D01*
X868500Y4655000D01*
X868500Y4644000D01*
Y4459000D01*
X1236500D01*
Y4644000D01*
X1236500Y4655000D01*
X1236500Y4666000D01*
Y4851000D01*
D02*
G37*
G36*
X2063165Y4200000D02*
X2036835D01*
X2011402Y4193185D01*
X1988599Y4180020D01*
X1974140Y4165561D01*
X1375860D01*
X1361401Y4180020D01*
X1338598Y4193185D01*
X1313165Y4200000D01*
X1286835D01*
X1261402Y4193185D01*
X1238599Y4180020D01*
X1219980Y4161401D01*
X1206815Y4138598D01*
X1200000Y4113165D01*
Y4086835D01*
X1206815Y4061402D01*
X1219980Y4038599D01*
X1238599Y4019980D01*
X1261402Y4006815D01*
X1286835Y4000000D01*
X1313165D01*
X1338598Y4006815D01*
X1361401Y4019980D01*
X1375860Y4034439D01*
X1974140D01*
X1988599Y4019980D01*
X2011402Y4006815D01*
X2036835Y4000000D01*
X2063165D01*
X2088598Y4006815D01*
X2111401Y4019980D01*
X2130020Y4038599D01*
X2143185Y4061402D01*
X2150000Y4086835D01*
Y4113165D01*
X2143185Y4138598D01*
X2130020Y4161401D01*
X2111401Y4180020D01*
X2088598Y4193185D01*
X2063165Y4200000D01*
D02*
G37*
G36*
X18950000D02*
X18864999D01*
Y4115000D01*
X18950000D01*
Y4200000D01*
D02*
G37*
G36*
X18835001D02*
X18750000D01*
Y4115000D01*
X18835001D01*
Y4200000D01*
D02*
G37*
G36*
X18950000Y4085000D02*
X18864999D01*
Y4000000D01*
X18950000D01*
Y4085000D01*
D02*
G37*
G36*
X18835001D02*
X18750000D01*
Y4000000D01*
X18835001D01*
Y4085000D01*
D02*
G37*
G36*
X19114999Y3949508D02*
Y3865000D01*
X19199509D01*
X19193185Y3888598D01*
X19180020Y3911401D01*
X19161401Y3930020D01*
X19138599Y3943185D01*
X19114999Y3949508D01*
D02*
G37*
G36*
X19085001D02*
X19061401Y3943185D01*
X19038599Y3930020D01*
X19019980Y3911401D01*
X19006815Y3888598D01*
X19000491Y3865000D01*
X19085001D01*
Y3949508D01*
D02*
G37*
G36*
X709500Y4163798D02*
X679500D01*
X647154Y4160613D01*
X616052Y4151178D01*
X587387Y4135856D01*
X562263Y4115237D01*
X541644Y4090113D01*
X526323Y4061448D01*
X516887Y4030346D01*
X513702Y3998000D01*
X516887Y3965655D01*
X526323Y3934552D01*
X541644Y3905888D01*
X562263Y3880763D01*
X587387Y3860144D01*
X616052Y3844823D01*
X647154Y3835388D01*
X679500Y3832202D01*
X709500D01*
X741846Y3835388D01*
X772948Y3844823D01*
X801613Y3860144D01*
X826737Y3880763D01*
X847356Y3905888D01*
X862677Y3934552D01*
X872113Y3965655D01*
X875298Y3998000D01*
X872113Y4030346D01*
X862677Y4061448D01*
X847356Y4090113D01*
X826737Y4115237D01*
X801613Y4135856D01*
X772948Y4151178D01*
X741846Y4160613D01*
X709500Y4163798D01*
D02*
G37*
G36*
X19199509Y3835000D02*
X19114999D01*
Y3750492D01*
X19138599Y3756815D01*
X19161401Y3769980D01*
X19180020Y3788599D01*
X19193185Y3811402D01*
X19199509Y3835000D01*
D02*
G37*
G36*
X19085001D02*
X19000491D01*
X19006815Y3811402D01*
X19019980Y3788599D01*
X19038599Y3769980D01*
X19061401Y3756815D01*
X19085001Y3750492D01*
Y3835000D01*
D02*
G37*
G36*
X19518713Y3790000D02*
X19481287D01*
X19444579Y3782698D01*
X19410002Y3768375D01*
X19378882Y3747582D01*
X19352419Y3721118D01*
X19331625Y3689998D01*
X19321503Y3665561D01*
X18944939D01*
X18942023Y3670611D01*
X18920612Y3692023D01*
X18894388Y3707163D01*
X18865140Y3715000D01*
X18834860D01*
X18805612Y3707163D01*
X18779388Y3692023D01*
X18757977Y3670611D01*
X18742838Y3644388D01*
X18735001Y3615140D01*
Y3584860D01*
X18742838Y3555612D01*
X18757977Y3529388D01*
X18779388Y3507977D01*
X18784439Y3505061D01*
Y3077156D01*
X18424814Y2717531D01*
X18411365Y2725295D01*
X18414999Y2738860D01*
Y2769140D01*
X18407162Y2798388D01*
X18392023Y2824612D01*
X18370612Y2846023D01*
X18365561Y2848939D01*
Y2913061D01*
X18370612Y2915977D01*
X18392023Y2937389D01*
X18407162Y2963612D01*
X18414999Y2992860D01*
Y3023140D01*
X18413490Y3028774D01*
X18496350Y3111634D01*
X18506769Y3125212D01*
X18513319Y3141023D01*
X18515553Y3157992D01*
Y3497061D01*
X18520602Y3499977D01*
X18542014Y3521388D01*
X18557155Y3547612D01*
X18564992Y3576860D01*
Y3607140D01*
X18557155Y3636388D01*
X18542014Y3662611D01*
X18520602Y3684023D01*
X18494380Y3699163D01*
X18465132Y3707000D01*
X18434853D01*
X18405605Y3699163D01*
X18379379Y3684023D01*
X18360918Y3665561D01*
X18278497D01*
X18268376Y3689998D01*
X18247583Y3721118D01*
X18221118Y3747582D01*
X18189999Y3768375D01*
X18155421Y3782698D01*
X18118713Y3790000D01*
X18081287D01*
X18044579Y3782698D01*
X18010002Y3768375D01*
X17978882Y3747582D01*
X17952419Y3721118D01*
X17931625Y3689998D01*
X17917302Y3655421D01*
X17910001Y3618713D01*
Y3581286D01*
X17917302Y3544579D01*
X17931625Y3510001D01*
X17952419Y3478882D01*
X17978882Y3452418D01*
X18010002Y3431624D01*
X18044579Y3417302D01*
X18081287Y3410000D01*
X18118713D01*
X18155421Y3417302D01*
X18189999Y3431624D01*
X18221118Y3452418D01*
X18247583Y3478882D01*
X18268376Y3510001D01*
X18278497Y3534439D01*
X18350433D01*
X18357970Y3521388D01*
X18379379Y3499977D01*
X18384431Y3497061D01*
Y3359747D01*
X18377634Y3356932D01*
X18369431Y3354704D01*
X18344388Y3369163D01*
X18315140Y3377000D01*
X18284860D01*
X18255612Y3369163D01*
X18229388Y3354023D01*
X18207977Y3332612D01*
X18192838Y3306388D01*
X18185001Y3277140D01*
Y3246860D01*
X18192838Y3217612D01*
X18207977Y3191389D01*
X18229388Y3169977D01*
X18255612Y3154837D01*
X18284860Y3147000D01*
X18315140D01*
X18328705Y3150635D01*
X18336470Y3137186D01*
X18320773Y3121490D01*
X18315140Y3123000D01*
X18284860D01*
X18255612Y3115163D01*
X18229388Y3100023D01*
X18207977Y3078612D01*
X18192838Y3052388D01*
X18185001Y3023140D01*
Y2992860D01*
X18192838Y2963612D01*
X18207977Y2937389D01*
X18229388Y2915977D01*
X18234439Y2913061D01*
Y2848939D01*
X18229388Y2846023D01*
X18207977Y2824612D01*
X18192838Y2798388D01*
X18185001Y2769140D01*
Y2738860D01*
X18192838Y2709612D01*
X18207977Y2683389D01*
X18229388Y2661977D01*
X18255612Y2646837D01*
X18284860Y2639000D01*
X18315140D01*
X18328705Y2642635D01*
X18336470Y2629186D01*
X18320773Y2613490D01*
X18315140Y2615000D01*
X18284860D01*
X18255612Y2607163D01*
X18229388Y2592023D01*
X18207977Y2570612D01*
X18192838Y2544388D01*
X18185001Y2515140D01*
Y2484860D01*
X18186510Y2479227D01*
X17953650Y2246367D01*
X17943231Y2232789D01*
X17936682Y2216977D01*
X17934448Y2200009D01*
Y2102939D01*
X17929398Y2100023D01*
X17907986Y2078612D01*
X17892847Y2052389D01*
X17885008Y2023140D01*
Y1992860D01*
X17892847Y1963612D01*
X17907986Y1937389D01*
X17929398Y1915978D01*
X17955620Y1900837D01*
X17984869Y1893001D01*
X18015147D01*
X18044397Y1900837D01*
X18070621Y1915978D01*
X18092030Y1937389D01*
X18107172Y1963612D01*
X18115009Y1992860D01*
Y2023140D01*
X18107172Y2052389D01*
X18092030Y2078612D01*
X18070621Y2100023D01*
X18065569Y2102939D01*
Y2172853D01*
X18279227Y2386510D01*
X18284860Y2385000D01*
X18315140D01*
X18344388Y2392837D01*
X18370612Y2407977D01*
X18392023Y2429389D01*
X18407162Y2455612D01*
X18414999Y2484860D01*
Y2515140D01*
X18413490Y2520774D01*
X18896358Y3003642D01*
X18906776Y3017220D01*
X18913327Y3033032D01*
X18915561Y3050000D01*
Y3505061D01*
X18920612Y3507977D01*
X18942023Y3529388D01*
X18944939Y3534439D01*
X19321503D01*
X19331625Y3510001D01*
X19352419Y3478882D01*
X19378882Y3452418D01*
X19410002Y3431624D01*
X19444579Y3417302D01*
X19481287Y3410000D01*
X19518713D01*
X19555421Y3417302D01*
X19589999Y3431624D01*
X19621118Y3452418D01*
X19647581Y3478882D01*
X19668376Y3510001D01*
X19682698Y3544579D01*
X19689999Y3581286D01*
Y3618713D01*
X19682698Y3655421D01*
X19668376Y3689998D01*
X19647581Y3721118D01*
X19621118Y3747582D01*
X19589999Y3768375D01*
X19555421Y3782698D01*
X19518713Y3790000D01*
D02*
G37*
G36*
X19135139Y3377000D02*
X19104860D01*
X19075612Y3369163D01*
X19049388Y3354023D01*
X19027977Y3332612D01*
X19012837Y3306388D01*
X19005000Y3277140D01*
Y3246860D01*
X19012837Y3217612D01*
X19027977Y3191389D01*
X19049388Y3169977D01*
X19075612Y3154837D01*
X19104860Y3147000D01*
X19135139D01*
X19164388Y3154837D01*
X19190611Y3169977D01*
X19212022Y3191389D01*
X19227164Y3217612D01*
X19235001Y3246860D01*
Y3277140D01*
X19227164Y3306388D01*
X19212022Y3332612D01*
X19190611Y3354023D01*
X19164388Y3369163D01*
X19135139Y3377000D01*
D02*
G37*
G36*
X1236500Y4401000D02*
X868500D01*
Y4209000D01*
X961724D01*
Y3719089D01*
X960001Y3718376D01*
X928882Y3697582D01*
X902418Y3671118D01*
X881624Y3639999D01*
X867302Y3605421D01*
X860000Y3568713D01*
Y3531287D01*
X867302Y3494579D01*
X881624Y3460001D01*
X902418Y3428882D01*
X928882Y3402418D01*
X959224Y3382144D01*
Y3192770D01*
X956815Y3188598D01*
X950000Y3163165D01*
Y3136835D01*
X956815Y3111402D01*
X969980Y3088599D01*
X988599Y3069980D01*
X1011402Y3056815D01*
X1036835Y3050000D01*
X1063165D01*
X1088598Y3056815D01*
X1111401Y3069980D01*
X1130020Y3088599D01*
X1143185Y3111402D01*
X1150000Y3136835D01*
Y3163165D01*
X1143185Y3188598D01*
X1140776Y3192770D01*
Y3382144D01*
X1171118Y3402418D01*
X1197582Y3428882D01*
X1218376Y3460001D01*
X1232698Y3494579D01*
X1240000Y3531287D01*
Y3568713D01*
X1232698Y3605421D01*
X1218376Y3639999D01*
X1197582Y3671118D01*
X1171118Y3697582D01*
X1143276Y3716186D01*
Y4209000D01*
X1236500D01*
Y4401000D01*
D02*
G37*
G36*
X19135139Y3123000D02*
X19104860D01*
X19075612Y3115163D01*
X19049388Y3100023D01*
X19027977Y3078612D01*
X19012837Y3052388D01*
X19005000Y3023140D01*
Y2992860D01*
X19012837Y2963612D01*
X19027977Y2937389D01*
X19049388Y2915977D01*
X19075612Y2900837D01*
X19104860Y2893000D01*
X19135139D01*
X19164388Y2900837D01*
X19190611Y2915977D01*
X19212022Y2937389D01*
X19227164Y2963612D01*
X19235001Y2992860D01*
Y3023140D01*
X19227164Y3052388D01*
X19212022Y3078612D01*
X19190611Y3100023D01*
X19164388Y3115163D01*
X19135139Y3123000D01*
D02*
G37*
G36*
X457241Y2770000D02*
X442759D01*
X428771Y2766251D01*
X416230Y2759010D01*
X405989Y2748770D01*
X398749Y2736229D01*
X395000Y2722240D01*
Y2707759D01*
X398749Y2693771D01*
X405989Y2681229D01*
X416230Y2670989D01*
X428771Y2663748D01*
X442759Y2660000D01*
X457241D01*
X471229Y2663748D01*
X483771Y2670989D01*
X494011Y2681229D01*
X501252Y2693771D01*
X505000Y2707759D01*
Y2722240D01*
X501252Y2736229D01*
X494011Y2748770D01*
X483771Y2759010D01*
X471229Y2766251D01*
X457241Y2770000D01*
D02*
G37*
G36*
X19135139Y2869000D02*
X19104860D01*
X19075612Y2861163D01*
X19049388Y2846023D01*
X19027977Y2824612D01*
X19025061Y2819561D01*
X18903999D01*
X18887032Y2817327D01*
X18871220Y2810777D01*
X18857642Y2800359D01*
X18603642Y2546358D01*
X18593224Y2532780D01*
X18586673Y2516969D01*
X18584439Y2500000D01*
Y2178498D01*
X18560001Y2168376D01*
X18528882Y2147582D01*
X18502419Y2121118D01*
X18481624Y2089999D01*
X18474815Y2073560D01*
X18394946D01*
X18392030Y2078611D01*
X18370621Y2100022D01*
X18344395Y2115162D01*
X18315147Y2122999D01*
X18284868D01*
X18255620Y2115162D01*
X18229398Y2100022D01*
X18207985Y2078611D01*
X18192845Y2052388D01*
X18185008Y2023139D01*
Y1992860D01*
X18192845Y1963611D01*
X18207985Y1937388D01*
X18229398Y1915977D01*
X18255620Y1900837D01*
X18284868Y1893000D01*
X18315147D01*
X18344395Y1900837D01*
X18370621Y1915977D01*
X18392030Y1937388D01*
X18394946Y1942439D01*
X18468188D01*
X18481624Y1910002D01*
X18502419Y1878882D01*
X18528882Y1852418D01*
X18560001Y1831624D01*
X18594579Y1817302D01*
X18631287Y1810000D01*
X18668713D01*
X18705421Y1817302D01*
X18739999Y1831624D01*
X18771118Y1852418D01*
X18797581Y1878882D01*
X18818376Y1910002D01*
X18828497Y1934439D01*
X18933070D01*
X18933704Y1933344D01*
X18955115Y1911933D01*
X18981339Y1896793D01*
X19010587Y1888956D01*
X19040866D01*
X19070116Y1896793D01*
X19096338Y1911933D01*
X19117749Y1933344D01*
X19132889Y1959568D01*
X19138226Y1979487D01*
X19153755D01*
X19157541Y1965358D01*
X19170708Y1942555D01*
X19189325Y1923936D01*
X19212128Y1910771D01*
X19235725Y1904448D01*
Y2003956D01*
Y2103464D01*
X19212128Y2097141D01*
X19189325Y2083976D01*
X19170708Y2065357D01*
X19157541Y2042554D01*
X19153755Y2028425D01*
X19138226D01*
X19132889Y2048344D01*
X19117749Y2074567D01*
X19096338Y2095979D01*
X19070116Y2111119D01*
X19040866Y2118956D01*
X19010587D01*
X18981339Y2111119D01*
X18955115Y2095979D01*
X18933704Y2074567D01*
X18928503Y2065561D01*
X18828497D01*
X18818376Y2089999D01*
X18797581Y2121118D01*
X18771118Y2147582D01*
X18739999Y2168376D01*
X18715561Y2178498D01*
Y2472844D01*
X18931155Y2688439D01*
X19025061D01*
X19027977Y2683389D01*
X19049388Y2661977D01*
X19075612Y2646837D01*
X19104860Y2639000D01*
X19135139D01*
X19164388Y2646837D01*
X19190611Y2661977D01*
X19212022Y2683389D01*
X19227164Y2709612D01*
X19235001Y2738860D01*
Y2769140D01*
X19227164Y2798388D01*
X19212022Y2824612D01*
X19190611Y2846023D01*
X19164388Y2861163D01*
X19135139Y2869000D01*
D02*
G37*
G36*
X19134999Y2598508D02*
Y2513999D01*
X19219508D01*
X19213185Y2537598D01*
X19200020Y2560401D01*
X19181401Y2579020D01*
X19158598Y2592185D01*
X19134999Y2598508D01*
D02*
G37*
G36*
X19104999Y2598508D02*
X19081403Y2592185D01*
X19058598Y2579020D01*
X19039980Y2560401D01*
X19026814Y2537598D01*
X19020491Y2513999D01*
X19104999D01*
Y2598508D01*
D02*
G37*
G36*
Y2483999D02*
X19020493D01*
X19026814Y2460402D01*
X19039980Y2437599D01*
X19058598Y2418980D01*
X19081403Y2405815D01*
X19104999Y2399492D01*
Y2483999D01*
D02*
G37*
G36*
X19219508D02*
X19134999D01*
Y2399492D01*
X19158598Y2405815D01*
X19181401Y2418980D01*
X19200020Y2437599D01*
X19213185Y2460402D01*
X19219508Y2483999D01*
D02*
G37*
G36*
X1017235Y2475000D02*
X1015002D01*
Y2315000D01*
X1174999D01*
Y2317236D01*
X1168274Y2351046D01*
X1155083Y2382894D01*
X1135931Y2411556D01*
X1111556Y2435931D01*
X1082893Y2455083D01*
X1051045Y2468275D01*
X1017235Y2475000D01*
D02*
G37*
G36*
X985002D02*
X982764D01*
X948954Y2468275D01*
X917106Y2455083D01*
X888443Y2435931D01*
X864068Y2411556D01*
X844917Y2382894D01*
X831725Y2351046D01*
X825000Y2317236D01*
Y2315000D01*
X985002D01*
Y2475000D01*
D02*
G37*
G36*
X457241Y2355000D02*
X442759D01*
X428771Y2351251D01*
X416230Y2344011D01*
X405989Y2333770D01*
X398749Y2321229D01*
X395000Y2307240D01*
Y2292759D01*
X398749Y2278771D01*
X405989Y2266229D01*
X416230Y2255989D01*
X428771Y2248748D01*
X442759Y2245000D01*
X457241D01*
X471229Y2248748D01*
X483771Y2255989D01*
X494011Y2266229D01*
X501252Y2278771D01*
X505000Y2292759D01*
Y2307240D01*
X501252Y2321229D01*
X494011Y2333770D01*
X483771Y2344011D01*
X471229Y2351251D01*
X457241Y2355000D01*
D02*
G37*
G36*
X1174999Y2285000D02*
X1015002D01*
Y2125000D01*
X1017235D01*
X1051045Y2131725D01*
X1082893Y2144917D01*
X1111556Y2164069D01*
X1135931Y2188444D01*
X1155083Y2217106D01*
X1168274Y2248954D01*
X1174999Y2282764D01*
Y2285000D01*
D02*
G37*
G36*
X985002D02*
X825000D01*
Y2282764D01*
X831725Y2248954D01*
X844917Y2217106D01*
X864068Y2188444D01*
X888443Y2164069D01*
X917106Y2144917D01*
X948954Y2131725D01*
X982764Y2125000D01*
X985002D01*
Y2285000D01*
D02*
G37*
G36*
X19265726Y2103464D02*
Y2018956D01*
X19350235D01*
X19343912Y2042554D01*
X19330746Y2065357D01*
X19312128Y2083976D01*
X19289325Y2097141D01*
X19265726Y2103464D01*
D02*
G37*
G36*
X19350235Y1988956D02*
X19265726D01*
Y1904448D01*
X19289325Y1910771D01*
X19312128Y1923936D01*
X19330746Y1942555D01*
X19343912Y1965358D01*
X19350235Y1988956D01*
D02*
G37*
G36*
X19663165Y1800000D02*
X19636835D01*
X19611401Y1793185D01*
X19588599Y1780020D01*
X19586748Y1778169D01*
X19050000D01*
X19029768Y1775505D01*
X19010915Y1767696D01*
X18994727Y1755274D01*
X18339835Y1100381D01*
X18315132Y1107000D01*
X18284853D01*
X18255605Y1099163D01*
X18229381Y1084023D01*
X18215527Y1070169D01*
X18084457D01*
X18070602Y1084023D01*
X18044380Y1099163D01*
X18015132Y1107000D01*
X17984853D01*
X17955605Y1099163D01*
X17929379Y1084023D01*
X17907970Y1062612D01*
X17892828Y1036388D01*
X17884991Y1007140D01*
Y976860D01*
X17892828Y947612D01*
X17907970Y921389D01*
X17929379Y899977D01*
X17955605Y884837D01*
X17984853Y877000D01*
X18015132D01*
X18044380Y884837D01*
X18070602Y899977D01*
X18084457Y913831D01*
X18215527D01*
X18229381Y899977D01*
X18255605Y884837D01*
X18284853Y877000D01*
X18315132D01*
X18344382Y884837D01*
X18370604Y899977D01*
X18392015Y921389D01*
X18405785Y945237D01*
X19082378Y1621831D01*
X19586748D01*
X19588599Y1619980D01*
X19611401Y1606815D01*
X19636835Y1600000D01*
X19663165D01*
X19688599Y1606815D01*
X19711401Y1619980D01*
X19730020Y1638599D01*
X19743185Y1661402D01*
X19750000Y1686835D01*
Y1713165D01*
X19743185Y1738598D01*
X19730020Y1761401D01*
X19711401Y1780020D01*
X19688599Y1793185D01*
X19663165Y1800000D01*
D02*
G37*
G36*
X2063165Y2600000D02*
X2036835D01*
X2011402Y2593185D01*
X1988599Y2580020D01*
X1969980Y2561401D01*
X1956815Y2538598D01*
X1950000Y2513165D01*
Y2486835D01*
X1956815Y2461402D01*
X1969980Y2438599D01*
X1984439Y2424140D01*
Y675860D01*
X1969980Y661401D01*
X1956815Y638598D01*
X1950000Y613165D01*
Y586835D01*
X1956815Y561402D01*
X1969980Y538599D01*
X1988599Y519980D01*
X2011402Y506815D01*
X2036835Y500000D01*
X2063165D01*
X2088598Y506815D01*
X2111401Y519980D01*
X2130020Y538599D01*
X2143185Y561402D01*
X2150000Y586835D01*
Y613165D01*
X2143185Y638598D01*
X2130020Y661401D01*
X2115561Y675860D01*
Y2424140D01*
X2130020Y2438599D01*
X2143185Y2461402D01*
X2150000Y2486835D01*
Y2513165D01*
X2143185Y2538598D01*
X2130020Y2561401D01*
X2111401Y2580020D01*
X2088598Y2593185D01*
X2063165Y2600000D01*
D02*
G37*
G36*
X19517729Y680000D02*
X19482272D01*
X19447496Y673083D01*
X19414738Y659514D01*
X19385257Y639815D01*
X19360185Y614743D01*
X19340486Y585262D01*
X19326917Y552504D01*
X19320000Y517728D01*
Y482272D01*
X19326917Y447496D01*
X19340486Y414738D01*
X19360185Y385257D01*
X19385257Y360185D01*
X19414738Y340486D01*
X19447496Y326917D01*
X19482272Y320000D01*
X19517729D01*
X19552504Y326917D01*
X19585262Y340486D01*
X19614743Y360185D01*
X19639815Y385257D01*
X19659514Y414738D01*
X19673083Y447496D01*
X19680000Y482272D01*
Y517728D01*
X19673083Y552504D01*
X19659514Y585262D01*
X19639815Y614743D01*
X19614743Y639815D01*
X19585262Y659514D01*
X19552504Y673083D01*
X19517729Y680000D01*
D02*
G37*
G36*
X517728D02*
X482272D01*
X447496Y673083D01*
X414738Y659514D01*
X385257Y639815D01*
X360185Y614743D01*
X340486Y585262D01*
X326917Y552504D01*
X320000Y517728D01*
Y482272D01*
X326917Y447496D01*
X340486Y414738D01*
X360185Y385257D01*
X385257Y360185D01*
X414738Y340486D01*
X447496Y326917D01*
X482272Y320000D01*
X517728D01*
X552504Y326917D01*
X585262Y340486D01*
X614743Y360185D01*
X639815Y385257D01*
X659514Y414738D01*
X673083Y447496D01*
X680000Y482272D01*
Y517728D01*
X673083Y552504D01*
X659514Y585262D01*
X639815Y614743D01*
X614743Y639815D01*
X585262Y659514D01*
X552504Y673083D01*
X517728Y680000D01*
D02*
G37*
G36*
X19885001Y11089156D02*
X19865262Y11083867D01*
X19844739Y11072018D01*
X19827982Y11055261D01*
X19816135Y11034739D01*
X19810846Y11015004D01*
X19885001D01*
Y11089156D01*
D02*
G37*
G36*
Y10985004D02*
X19810844D01*
X19816135Y10965262D01*
X19827982Y10944739D01*
X19844739Y10927982D01*
X19865262Y10916134D01*
X19885001Y10910845D01*
Y10985004D01*
D02*
G37*
G36*
X19661191Y10985000D02*
X19638811D01*
X19617191Y10979207D01*
X19597809Y10968017D01*
X19581982Y10952191D01*
X19570793Y10932809D01*
X19564999Y10911191D01*
Y10888810D01*
X19570793Y10867191D01*
X19581982Y10847809D01*
X19597809Y10831983D01*
X19617191Y10820793D01*
X19638811Y10815000D01*
X19661191D01*
X19682809Y10820793D01*
X19702191Y10831983D01*
X19718018Y10847809D01*
X19729207Y10867191D01*
X19735001Y10888810D01*
Y10911191D01*
X19729207Y10932809D01*
X19718018Y10952191D01*
X19702191Y10968017D01*
X19682809Y10979207D01*
X19661191Y10985000D01*
D02*
G37*
G36*
Y10085000D02*
X19638811D01*
X19617191Y10079207D01*
X19597809Y10068017D01*
X19581982Y10052191D01*
X19570793Y10032809D01*
X19564999Y10011191D01*
Y9988810D01*
X19570793Y9967191D01*
X19581982Y9947809D01*
X19597809Y9931983D01*
X19617191Y9920793D01*
X19638811Y9915000D01*
X19661191D01*
X19682809Y9920793D01*
X19702191Y9931983D01*
X19718018Y9947809D01*
X19729207Y9967191D01*
X19735001Y9988810D01*
Y10011191D01*
X19729207Y10032809D01*
X19718018Y10052191D01*
X19702191Y10068017D01*
X19682809Y10079207D01*
X19661191Y10085000D01*
D02*
G37*
G36*
X19884999Y9489155D02*
X19865262Y9483866D01*
X19844739Y9472018D01*
X19827982Y9455261D01*
X19816135Y9434739D01*
X19810844Y9415003D01*
X19884999D01*
Y9489155D01*
D02*
G37*
G36*
Y9385003D02*
X19810844D01*
X19816135Y9365261D01*
X19827982Y9344739D01*
X19844739Y9327982D01*
X19865262Y9316134D01*
X19884999Y9310845D01*
Y9385003D01*
D02*
G37*
G36*
X19661191Y9385000D02*
X19638811D01*
X19617192Y9379208D01*
X19597809Y9368017D01*
X19581982Y9352191D01*
X19570793Y9332809D01*
X19564999Y9311191D01*
Y9288810D01*
X19570793Y9267192D01*
X19581982Y9247809D01*
X19597809Y9231983D01*
X19617192Y9220793D01*
X19638811Y9215000D01*
X19661191D01*
X19682809Y9220793D01*
X19702191Y9231983D01*
X19718018Y9247809D01*
X19729208Y9267192D01*
X19735001Y9288810D01*
Y9311191D01*
X19729208Y9332809D01*
X19718018Y9352191D01*
X19702191Y9368017D01*
X19682809Y9379208D01*
X19661191Y9385000D01*
D02*
G37*
G36*
X19661191Y8485000D02*
X19638811D01*
X19617191Y8479207D01*
X19597809Y8468017D01*
X19581982Y8452191D01*
X19570793Y8432809D01*
X19564999Y8411190D01*
Y8388809D01*
X19570793Y8367191D01*
X19581982Y8347809D01*
X19597809Y8331983D01*
X19617191Y8320793D01*
X19638811Y8315000D01*
X19661191D01*
X19682809Y8320793D01*
X19702191Y8331983D01*
X19718018Y8347809D01*
X19729207Y8367191D01*
X19735001Y8388809D01*
Y8411190D01*
X19729207Y8432809D01*
X19718018Y8452191D01*
X19702191Y8468017D01*
X19682809Y8479207D01*
X19661191Y8485000D01*
D02*
G37*
%LPD*%
D15*
X5019000Y19060001D02*
X5273000D01*
X5019000Y19060001D02*
X5019000Y19060001D01*
X18900000Y4550000D02*
X19500000D01*
X18508008D02*
X18900000D01*
X18450008Y4608000D02*
X18508008Y4550000D01*
X10284000Y14366000D02*
Y14850000D01*
Y14366000D02*
X11300001Y13349998D01*
X13700000Y13350000D01*
X18850000Y3600000D02*
X19500000D01*
X18850000Y3050000D02*
Y3600000D01*
X18300000Y2500000D02*
X18850000Y3050000D01*
X18100000Y3600000D02*
X18441992D01*
X18449992Y3592000D01*
Y3157992D02*
Y3592000D01*
X18300000Y3008000D02*
X18449992Y3157992D01*
X18300000Y2754000D02*
Y3008000D01*
X18000008Y2200009D02*
X18300000Y2500000D01*
X18000008Y2008000D02*
Y2200009D01*
X7400000Y19160828D02*
X7400000Y15300000D01*
X7397173Y19158000D02*
X7400000Y19160828D01*
X7000000Y19158000D02*
X7397173D01*
X7400000Y15299998D02*
Y15300000D01*
X8200000Y14500000D01*
X6550000Y17800000D02*
Y18250000D01*
X6350000Y18450000D02*
X6550000Y18250000D01*
X5150000Y18450000D02*
X6350000D01*
X8200000Y14500000D02*
X9250000D01*
X1550000Y15146001D02*
X2354000D01*
X4150000Y13350000D01*
X4600000D01*
X9450000D01*
X9521999Y13278001D01*
X1550000Y13069987D02*
X2019987Y12600000D01*
X1550000Y13069987D02*
Y13776826D01*
Y14892000D01*
X9500000Y12600000D02*
X9771413Y12871413D01*
X2019987Y12600000D02*
X9500000Y12600000D01*
X9521999Y13073001D02*
Y13278001D01*
X9771413Y13068414D02*
X9776000Y13073001D01*
X9771413Y12871413D02*
Y13068414D01*
X18300000Y11250000D02*
X19250000D01*
X14900000Y14650000D02*
X18300000Y11250000D01*
X11754000Y14650000D02*
X14900000D01*
X16050000Y11350000D02*
X16400000D01*
X18950000Y8300000D02*
Y8800000D01*
X16400000Y11350000D02*
X18950000Y8800000D01*
X18850000Y9650000D02*
X19250000D01*
X16250000Y11700000D02*
X16800000D01*
X18850000Y9650000D01*
X13400000Y14550000D02*
X16250000Y11700000D01*
X11600000Y14550000D02*
X13400000D01*
X12950000Y14450000D02*
X16050000Y11350000D01*
X11450000Y14450000D02*
X12950000D01*
X16300000Y16400000D02*
X17100000Y17200000D01*
X18150000Y18250000D01*
Y18500000D01*
X2750000Y6350000D02*
Y7250000D01*
Y9700000D02*
Y10550000D01*
X10538000Y15938000D02*
X11000000Y16400000D01*
X11800000D01*
X12500000D02*
X16300000D01*
X2800000Y13050000D02*
Y13900000D01*
X2050000Y600000D02*
Y2500000D01*
X1300000Y4100000D02*
X2050000D01*
X1850000Y16050000D02*
Y18750000D01*
X2050000Y17450000D02*
Y18950000D01*
X17800000Y17500000D02*
X18750000D01*
X15750000Y7850000D02*
X18100000D01*
X14050000Y9550000D02*
X15750000Y7850000D01*
X14050000Y9550000D02*
Y13000000D01*
X6550008Y19158000D02*
X7000000D01*
X6550008Y19158000D02*
X6550008Y19158000D01*
X18650000Y2500000D02*
X18903999Y2754000D01*
X18650000Y2000000D02*
Y2500000D01*
X18903999Y2754000D02*
X19120000D01*
X18642001Y2008000D02*
X18650000Y2000000D01*
X18300008Y2008000D02*
X18642001D01*
X18650000Y2000000D02*
X19025000D01*
X18850000Y5600000D02*
X18900000Y5550000D01*
X18850000Y5600000D02*
Y6000000D01*
X18900000Y5550000D02*
X19500000D01*
X18850000Y6500000D02*
X19500000D01*
X18850000D02*
X19100000Y6250000D01*
X18808000Y6542000D02*
X18850000Y6500000D01*
X18499992Y6542000D02*
X18808000D01*
X18500000Y7558009D02*
X18500008Y7558000D01*
X18500000Y7558009D02*
Y7842000D01*
X18492000Y7850000D02*
X18500000Y7842000D01*
X18100000Y7850000D02*
X18492000D01*
X19900000Y8250000D02*
Y8300000D01*
X19650000Y8000000D02*
X19900000Y8250000D01*
X19250000Y8000000D02*
X19650000D01*
X18950000Y8300000D02*
X19250000Y8000000D01*
X19650000Y9650000D02*
X19900000Y9900000D01*
X19250000Y9650000D02*
X19650000D01*
X19250000Y11250000D02*
X19650000D01*
X19900000Y11500000D01*
X3960999Y19310999D02*
X4150000Y19500000D01*
X3960999Y19100000D02*
Y19310999D01*
X4150000Y19500000D02*
X6150000D01*
X5019000Y18581000D02*
X5150000Y18450000D01*
X5019000Y18581000D02*
Y19060001D01*
X6150000Y19500000D02*
X6150008Y19499992D01*
Y19158000D02*
Y19499992D01*
X5550810Y18899190D02*
X5891198D01*
X5527000Y18923000D02*
X5550810Y18899190D01*
X5527000Y18923000D02*
Y19060001D01*
X5891198Y18899190D02*
X6150000Y19157993D01*
X13700000Y13350000D02*
X14050000Y13000000D01*
X12300000Y15088428D02*
Y18200000D01*
X12689999Y18589999D02*
Y19850000D01*
X12300000Y18200000D02*
X12689999Y18589999D01*
X12300000Y19100000D02*
Y19839999D01*
X12061230Y14849657D02*
X12300000Y15088428D01*
X10538000Y14850000D02*
Y15938000D01*
X11807999Y14850000D02*
X12050000Y15092001D01*
Y19100000D01*
X11050000Y14850000D02*
X11450000Y14450000D01*
X11300000Y14850000D02*
X11600000Y14550000D01*
X11554000Y14850000D02*
X11754000Y14650000D01*
D16*
X19050000Y1700000D02*
X19650000D01*
X18342000Y992000D02*
X19050000Y1700000D01*
X18299992Y992000D02*
X18342000D01*
X19150000Y12650000D02*
Y13291992D01*
X19557999Y13699992D01*
X17999992Y992000D02*
X18299992D01*
X1250000Y12900000D02*
X1750000Y12400000D01*
X12912999D02*
X13585999Y13073001D01*
X1750000Y12400000D02*
X12912999D01*
X1250000Y12900000D02*
Y15250000D01*
X1400000Y15400000D02*
X1550000D01*
X1250000Y15250000D02*
X1400000Y15400000D01*
X19550000Y13707991D02*
X19557999Y13699992D01*
X19550000Y13707991D02*
Y14258000D01*
X19150000Y14658000D02*
X19550000Y14258000D01*
X18996001Y14812000D02*
X19150000Y14658000D01*
X18996001Y14812000D02*
Y15250000D01*
Y15506770D01*
X19389227Y15900000D01*
X19508000D01*
X19500000Y16300000D02*
X19508000Y16292000D01*
Y15900000D02*
Y16292000D01*
X18742000Y18242000D02*
X18750000Y18250000D01*
X18400000Y18242000D02*
X18742000D01*
X16150000Y18550000D02*
X16350000Y18350000D01*
X17800000Y18800000D02*
X18200000D01*
X17300000Y18650000D02*
X17450000Y18800000D01*
X18400000Y18242000D02*
Y18600000D01*
X18200000Y18800000D02*
X18400000Y18600000D01*
X17450000Y18800000D02*
X17800000D01*
X17000000Y18350000D02*
X17300000Y18650000D01*
X16350000Y18350000D02*
X17000000D01*
D17*
X19558000Y12899992D02*
Y13299992D01*
X18541998Y13700008D02*
X18542000Y13700008D01*
X18541998Y13300008D02*
Y13700008D01*
X18699998Y15207999D02*
X18742000Y15249998D01*
X18699998Y14658000D02*
Y15207999D01*
X18492000Y16642000D02*
X18550000Y16700000D01*
X18492000Y15900000D02*
Y16642000D01*
Y15499998D02*
X18742000Y15249998D01*
X18492000Y15499998D02*
Y15900000D01*
X1050000Y3150000D02*
Y3550000D01*
X850000Y17850000D02*
Y19750000D01*
X4299999Y18959001D02*
Y19100000D01*
Y18959001D02*
X5019000Y18239999D01*
Y17281000D02*
Y18239999D01*
Y17281000D02*
X5050000Y17250000D01*
X19100000Y18150000D02*
Y18900000D01*
Y17250000D02*
Y18150000D01*
X18550000Y16700000D02*
X19100000Y17250000D01*
X17550000Y16700000D02*
X18550000D01*
X18750000Y19250000D02*
X19100000Y18900000D01*
X1050000Y3550000D02*
X1052500Y3552500D01*
Y4300000D01*
X17050000Y19349998D02*
X17300000Y19100000D01*
X17050000Y19349998D02*
Y19850000D01*
X17753999Y19100000D02*
X17800000Y19053999D01*
X17300000Y19100000D02*
X17753999D01*
X17800000Y19053999D02*
X18004001Y19258000D01*
X18400000D01*
X18742000D02*
X18750000Y19250000D01*
X18400000Y19258000D02*
X18742000D01*
D19*
X18449992Y3592000D02*
D03*
X18450008Y4608000D02*
D03*
X18542000Y12900008D02*
D03*
X19558000Y12899992D02*
D03*
X19025726Y2003956D02*
D03*
X19250726D02*
D03*
X6549992Y18142000D02*
D03*
X6550008Y19158000D02*
D03*
X18300000Y3262000D02*
D03*
Y2754000D02*
D03*
Y2500000D02*
D03*
Y3008000D02*
D03*
X19120000Y2499000D02*
D03*
Y3262000D02*
D03*
Y2754000D02*
D03*
Y3008000D02*
D03*
X16150008Y19558000D02*
D03*
X16149992Y18542000D02*
D03*
X15699992D02*
D03*
X15700008Y19558000D02*
D03*
X15249992Y18542000D02*
D03*
X15250008Y19558000D02*
D03*
X19100000Y6250000D02*
D03*
X18850000Y6000000D02*
D03*
X17999992Y992000D02*
D03*
X18000008Y2008000D02*
D03*
X18299992Y992000D02*
D03*
X18300008Y2008000D02*
D03*
X18499992Y6542000D02*
D03*
X18500008Y7558000D02*
D03*
X19100000Y3850000D02*
D03*
X18850000Y3600000D02*
D03*
X1550000Y15146001D02*
D03*
Y15400000D02*
D03*
Y15653999D02*
D03*
X18541998Y13300008D02*
D03*
X19558000Y13299992D02*
D03*
X19557999Y13699992D02*
D03*
X18542000Y13700008D02*
D03*
X6150008Y19158000D02*
D03*
X6149992Y18142000D02*
D03*
X5273000Y19060001D02*
D03*
X5527000D02*
D03*
X5019000Y19060001D02*
D03*
X5782000D02*
D03*
X5273000Y18239999D02*
D03*
X5781000Y18239999D02*
D03*
X5527000Y18239999D02*
D03*
X5019000Y18239999D02*
D03*
D20*
X694500Y5312000D02*
D03*
Y3998000D02*
D03*
D21*
X19150000Y14150000D02*
D03*
Y14658000D02*
D03*
X18699998Y14150000D02*
D03*
Y14658000D02*
D03*
X7000000Y19158000D02*
D03*
Y18142000D02*
D03*
X18500000Y7842000D02*
D03*
Y8858000D02*
D03*
X17300000Y19100000D02*
D03*
X16792000D02*
D03*
X17300000Y18650000D02*
D03*
X16792000D02*
D03*
D22*
X18742000Y15249998D02*
D03*
X18996001Y15250000D02*
D03*
X19250000D02*
D03*
X17800000Y18800000D02*
D03*
Y19053999D02*
D03*
Y18546001D02*
D03*
D23*
X18492000Y15900000D02*
D03*
X19508000D02*
D03*
X18400000Y19258000D02*
D03*
Y18242000D02*
D03*
D24*
X4299999Y19100000D02*
D03*
X3960999D02*
D03*
D25*
X12899998Y19850000D02*
D03*
X12079999D02*
D03*
X17460001D02*
D03*
X16639999D02*
D03*
D26*
X12289999D02*
D03*
X12489999D02*
D03*
X12689999D02*
D03*
X16850000D02*
D03*
X17050000D02*
D03*
X17250000D02*
D03*
D27*
X18900000Y5550000D02*
D03*
Y4550000D02*
D03*
D28*
X13077229Y14849657D02*
D03*
X12823230Y14849657D02*
D03*
X12569230Y14849657D02*
D03*
X12315230Y14849657D02*
D03*
X13077998Y13073001D02*
D03*
X12823999Y13073001D02*
D03*
X12570000Y13073001D02*
D03*
X12316000D02*
D03*
X12062000D02*
D03*
X11807999D02*
D03*
X11553999D02*
D03*
X8760000Y14850000D02*
D03*
X9014000D02*
D03*
X9268000D02*
D03*
X9521999D02*
D03*
X9776000Y14850000D02*
D03*
X10030000Y14850000D02*
D03*
X10284000D02*
D03*
X10791999Y14850000D02*
D03*
X8760001Y13073001D02*
D03*
X9013999D02*
D03*
X9267999D02*
D03*
X9776000D02*
D03*
X10284000D02*
D03*
X10538000D02*
D03*
X10791999D02*
D03*
X11046000D02*
D03*
X11299999D02*
D03*
X11554000Y14850000D02*
D03*
X11046000Y14850000D02*
D03*
X11300000Y14850000D02*
D03*
X11807230Y14849657D02*
D03*
X12061230Y14849657D02*
D03*
X10538000Y14850000D02*
D03*
X13585999Y13073001D02*
D03*
X13585229Y14849657D02*
D03*
X13331230D02*
D03*
X9521999Y13073001D02*
D03*
X13332001D02*
D03*
X10030000D02*
D03*
D29*
X18850000Y6500000D02*
D03*
Y4100000D02*
D03*
D30*
X1550000Y14892000D02*
D03*
D31*
X19900000Y9900000D02*
D03*
Y8300000D02*
D03*
Y11500000D02*
D03*
D32*
Y9400000D02*
D03*
Y7800000D02*
D03*
Y11000000D02*
D03*
D33*
X450000Y2715000D02*
D03*
Y2300000D02*
D03*
D34*
X500000Y500000D02*
D03*
X19500000Y19500000D02*
D03*
X500000D02*
D03*
X19500000Y500000D02*
D03*
D35*
X19650000Y1700000D02*
D03*
X19150000Y12650000D02*
D03*
X9250000Y14500000D02*
D03*
X2750000Y6350000D02*
D03*
Y9700000D02*
D03*
X1050000Y3150000D02*
D03*
X850000Y17850000D02*
D03*
Y19750000D02*
D03*
X5050000Y17250000D02*
D03*
X2800000Y13050000D02*
D03*
Y13900000D02*
D03*
X2750000Y10550000D02*
D03*
Y7250000D02*
D03*
X2050000Y2500000D02*
D03*
Y600000D02*
D03*
X19100000Y18150000D02*
D03*
X1300000Y4100000D02*
D03*
X2050000D02*
D03*
X1850000Y18750000D02*
D03*
Y16050000D02*
D03*
X2050000Y18950000D02*
D03*
Y17450000D02*
D03*
X18150000Y18500000D02*
D03*
X18750000Y17500000D02*
D03*
X17800000D02*
D03*
X17550000Y16700000D02*
D03*
D36*
X692551Y2377500D02*
D03*
X700000Y2500000D02*
D03*
Y2250000D02*
D03*
X19300000Y2500000D02*
D03*
Y3850000D02*
D03*
X18700000Y4100000D02*
D03*
X17650000Y10450000D02*
D03*
X16150000D02*
D03*
X14600000D02*
D03*
X13050000D02*
D03*
X11550000D02*
D03*
X10050000D02*
D03*
X8500000D02*
D03*
X7000000D02*
D03*
X5450000D02*
D03*
X3900000D02*
D03*
X2400000D02*
D03*
X19850000Y15200000D02*
D03*
X350000Y11000000D02*
D03*
X14050000Y18350000D02*
D03*
X3100000Y18600000D02*
D03*
X7150000Y450000D02*
D03*
X19150000Y19450000D02*
D03*
X19250000Y18250000D02*
D03*
X18100000Y17750000D02*
D03*
X17650000Y17150000D02*
D03*
X16150000D02*
D03*
X14600000D02*
D03*
X13050000D02*
D03*
X11550000D02*
D03*
X10050000D02*
D03*
X8500000D02*
D03*
X7000000D02*
D03*
X2400000Y15450000D02*
D03*
X3900000D02*
D03*
X5450000D02*
D03*
X7000000D02*
D03*
X8500000D02*
D03*
X10050000D02*
D03*
X11550000D02*
D03*
X13050000D02*
D03*
X14600000D02*
D03*
X16150000D02*
D03*
X17650000D02*
D03*
X18150000Y13900000D02*
D03*
X17650000Y13800000D02*
D03*
X16150000D02*
D03*
X14600000D02*
D03*
X13050000D02*
D03*
X11550000D02*
D03*
X10050000D02*
D03*
X8500000D02*
D03*
X7000000D02*
D03*
X5450000D02*
D03*
X3900000D02*
D03*
X2400000Y13850000D02*
D03*
Y12150000D02*
D03*
X3900000D02*
D03*
X5450000D02*
D03*
X7000000D02*
D03*
X8500000D02*
D03*
X10050000D02*
D03*
X11550000D02*
D03*
X13050000D02*
D03*
X14600000D02*
D03*
X16150000D02*
D03*
X17650000D02*
D03*
Y8800000D02*
D03*
X16150000D02*
D03*
X14600000D02*
D03*
X13050000D02*
D03*
X11550000D02*
D03*
X10050000D02*
D03*
X8500000D02*
D03*
X7000000D02*
D03*
X5450000D02*
D03*
X3900000D02*
D03*
X2400000D02*
D03*
Y7150000D02*
D03*
X3900000D02*
D03*
X5450000D02*
D03*
X7000000D02*
D03*
X8500000D02*
D03*
X10050000D02*
D03*
X11550000D02*
D03*
X13050000D02*
D03*
X14600000D02*
D03*
X16150000D02*
D03*
X17650000D02*
D03*
Y5450000D02*
D03*
X16150000D02*
D03*
X14600000D02*
D03*
X13050000D02*
D03*
X11550000D02*
D03*
X10050000D02*
D03*
X8500000D02*
D03*
X7000000D02*
D03*
X5450000D02*
D03*
X3900000D02*
D03*
X2400000D02*
D03*
Y3800000D02*
D03*
X3900000D02*
D03*
X5450000D02*
D03*
X7000000D02*
D03*
X8500000D02*
D03*
X10050000D02*
D03*
X11550000D02*
D03*
X13050000D02*
D03*
X14600000D02*
D03*
X16150000D02*
D03*
X17650713Y3801839D02*
D03*
X18750000Y1023575D02*
D03*
X17650000Y2100000D02*
D03*
X16200000D02*
D03*
X14600000D02*
D03*
X13050000D02*
D03*
X11550000D02*
D03*
X10050000D02*
D03*
X8500000D02*
D03*
X7000000D02*
D03*
X5450000D02*
D03*
X3900000D02*
D03*
X2400000D02*
D03*
X1212227Y1077746D02*
D03*
X1150000Y1400000D02*
D03*
X1200000Y5150000D02*
D03*
X1300000Y5000000D02*
D03*
X800000D02*
D03*
X19162451Y1430729D02*
D03*
X19250000Y2200000D02*
D03*
X17800000Y2850000D02*
D03*
X16350000D02*
D03*
X14750000D02*
D03*
X13200000D02*
D03*
X11700000D02*
D03*
X10200000D02*
D03*
X8650000D02*
D03*
X7150000D02*
D03*
X5600000D02*
D03*
X4050000D02*
D03*
X2550000D02*
D03*
Y4550000D02*
D03*
X4050000D02*
D03*
X5600000D02*
D03*
X7150000D02*
D03*
X8650000D02*
D03*
X10200000D02*
D03*
X11700000D02*
D03*
X13200000D02*
D03*
X14750000D02*
D03*
X16300000D02*
D03*
X17800000D02*
D03*
Y6200000D02*
D03*
X16300000D02*
D03*
X14750000D02*
D03*
X13200000D02*
D03*
X11700000D02*
D03*
X10200000D02*
D03*
X8650000D02*
D03*
X7150000D02*
D03*
X5600000D02*
D03*
X4050000D02*
D03*
X2550000D02*
D03*
X17850000Y7950000D02*
D03*
X16300000D02*
D03*
X14750000Y7900000D02*
D03*
X13200000D02*
D03*
X11700000D02*
D03*
X10200000D02*
D03*
X8650000D02*
D03*
X7150000D02*
D03*
X5600000D02*
D03*
X4050000D02*
D03*
X2550000D02*
D03*
Y9550000D02*
D03*
X4050000D02*
D03*
X5600000D02*
D03*
X7150000D02*
D03*
X8650000D02*
D03*
X10200000D02*
D03*
X11700000D02*
D03*
X13200000D02*
D03*
X14750000D02*
D03*
X16300000D02*
D03*
X17800000D02*
D03*
Y11200000D02*
D03*
X16300000D02*
D03*
X14750000D02*
D03*
X13200000D02*
D03*
X11700000D02*
D03*
X10200000D02*
D03*
X8650000D02*
D03*
X7150000D02*
D03*
X5600000D02*
D03*
X4050000D02*
D03*
X2550000D02*
D03*
Y12900000D02*
D03*
X4050000D02*
D03*
X5600000D02*
D03*
X7150000D02*
D03*
X8650000D02*
D03*
X10200000D02*
D03*
X11700000D02*
D03*
X13200000D02*
D03*
X14750000D02*
D03*
X16322887Y12917149D02*
D03*
X17809680Y12922888D02*
D03*
X17900000Y14600000D02*
D03*
X16500000Y14300000D02*
D03*
X14950000D02*
D03*
X11900000D02*
D03*
X10200000Y14600000D02*
D03*
X8650000D02*
D03*
X7150000D02*
D03*
X5600000D02*
D03*
X4050000D02*
D03*
X2550000D02*
D03*
Y16250000D02*
D03*
X4050000D02*
D03*
X5600000D02*
D03*
X7150000D02*
D03*
X8650672Y16246658D02*
D03*
X10200000Y16250000D02*
D03*
X11700000D02*
D03*
X11800000Y16400000D02*
D03*
X12500000D02*
D03*
X13200000Y16250000D02*
D03*
X14750000D02*
D03*
X16300000D02*
D03*
X17800000D02*
D03*
X17750000Y18000000D02*
D03*
X16300000Y17950000D02*
D03*
X14750000D02*
D03*
X13200000D02*
D03*
X11700000D02*
D03*
X10200000D02*
D03*
X8650000D02*
D03*
X7100000D02*
D03*
X5600000D02*
D03*
X4050000D02*
D03*
X2550000D02*
D03*
X5450000Y17150000D02*
D03*
X3900000D02*
D03*
X2400000D02*
D03*
X1000000Y18650000D02*
D03*
X1150000Y19450000D02*
D03*
X12300000Y19100000D02*
D03*
X13450000Y14300000D02*
D03*
X19900000Y7600000D02*
D03*
Y9150000D02*
D03*
Y10750000D02*
D03*
X12050000Y19100000D02*
D03*
X16600000Y18650000D02*
D03*
X15050000Y19550000D02*
D03*
X16600000Y19100000D02*
D03*
X12500000Y19650000D02*
D03*
X1300000Y15650000D02*
D03*
X5800000Y19250000D02*
D03*
X5650000Y18150000D02*
D03*
X6150000Y18000000D02*
D03*
D37*
X1052500Y4755000D02*
D03*
Y4555000D02*
D03*
X1052500Y5005000D02*
D03*
X1052500Y4305000D02*
D03*
D38*
X18100000Y3600000D02*
D03*
X19500000D02*
D03*
X19500000Y16300000D02*
D03*
X1000000Y2300000D02*
D03*
X17100000Y17200000D02*
D03*
X19250000Y8000000D02*
D03*
Y9650000D02*
D03*
X4600000Y13350000D02*
D03*
X19250000Y11250000D02*
D03*
X12050000Y18750000D02*
D03*
X1550000Y13776826D02*
D03*
X12700000Y18750000D02*
D03*
X6150000Y19500000D02*
D03*
X7400000Y17800000D02*
D03*
X6550000D02*
D03*
X18100000Y7850000D02*
D03*
X18750000Y18250000D02*
D03*
Y19250000D02*
D03*
D39*
X18650000Y2000000D02*
D03*
X1050000Y3550000D02*
D03*
X19500000Y6500000D02*
D03*
Y4550000D02*
D03*
Y5550000D02*
D03*
%TF.MD5,f93bab79c9c8e352b97c91232c01b419*%
M02*
