%TF.GenerationSoftware,Altium Limited,Altium Designer,24.5.1 (21)*%
G04 Layer_Color=8388736*
%FSLAX45Y45*%
%MOMM*%
%TF.SameCoordinates,D7596F51-2DA0-4622-90E6-AC5F46AEA47A*%
%TF.FilePolarity,Negative*%
%TF.FileFunction,Soldermask,Bot*%
%TF.Part,Single*%
G01*
G75*
%TA.AperFunction,ComponentPad*%
%ADD21C,1.60000*%
%ADD22C,1.90000*%
%ADD23C,1.70000*%
%TA.AperFunction,ViaPad*%
%ADD24C,1.00000*%
%TA.AperFunction,ComponentPad*%
%ADD28C,1.80000*%
G04:AMPARAMS|DCode=45|XSize=2.6mm|YSize=2.9mm|CornerRadius=1.3mm|HoleSize=0mm|Usage=FLASHONLY|Rotation=270.000|XOffset=0mm|YOffset=0mm|HoleType=Round|Shape=RoundedRectangle|*
%AMROUNDEDRECTD45*
21,1,2.60000,0.30000,0,0,270.0*
21,1,0.00000,2.90000,0,0,270.0*
1,1,2.60000,-0.15000,0.00000*
1,1,2.60000,-0.15000,0.00000*
1,1,2.60000,0.15000,0.00000*
1,1,2.60000,0.15000,0.00000*
%
%ADD45ROUNDEDRECTD45*%
%ADD46C,2.00000*%
%TA.AperFunction,ViaPad*%
%ADD47C,1.10000*%
%TA.AperFunction,ComponentPad*%
%ADD48C,2.25000*%
%ADD49C,1.55000*%
%ADD50C,3.60000*%
%ADD51R,1.60000X1.60000*%
%ADD52R,1.60000X1.60000*%
%ADD53C,0.10000*%
%ADD54R,1.40000X1.40000*%
%ADD55C,1.40000*%
%ADD56C,0.80000*%
%TA.AperFunction,WasherPad*%
%ADD57C,3.30000*%
%TA.AperFunction,ViaPad*%
%ADD58C,0.50000*%
%TA.AperFunction,SMDPad,CuDef*%
%ADD59R,2.98000X1.22000*%
%TA.AperFunction,TestPad*%
%ADD60C,3.10000*%
%TA.AperFunction,SMDPad,CuDef*%
%ADD61C,3.10000*%
G36*
X3391336Y556281D02*
X3394002Y555281D01*
X3396001Y554281D01*
X3396334Y553615D01*
X3396668D01*
X3397667Y552282D01*
X3398667Y550949D01*
X3399667Y547616D01*
Y545950D01*
X3400000Y544617D01*
Y543950D01*
Y543617D01*
Y362997D01*
Y360664D01*
X3399334Y358331D01*
X3399000Y356665D01*
X3398334Y355332D01*
X3397334Y353666D01*
X3396668Y352999D01*
X3393668Y351333D01*
X3390669Y350333D01*
X3389669D01*
X3388670Y350000D01*
X3328018D01*
X3324020Y350333D01*
X3320354D01*
X3317021Y350667D01*
X3314022Y351000D01*
X3312023D01*
X3310690Y351333D01*
X3310356D01*
X3303025Y352666D01*
X3299692Y353666D01*
X3296693Y354332D01*
X3294360Y354999D01*
X3292694Y355665D01*
X3291361Y355999D01*
X3291028D01*
X3284696Y358665D01*
X3282030Y359998D01*
X3279364Y361330D01*
X3277365Y362663D01*
X3276032Y363663D01*
X3275032Y363996D01*
X3274699Y364330D01*
X3269700Y368329D01*
X3267367Y370328D01*
X3265701Y371994D01*
X3264035Y373661D01*
X3263035Y374994D01*
X3262369Y375660D01*
X3262035Y375993D01*
X3258370Y381325D01*
X3255704Y386657D01*
X3255037Y388657D01*
X3254371Y390323D01*
X3253704Y391656D01*
Y391989D01*
X3251705Y398988D01*
X3251038Y402320D01*
X3250705Y405319D01*
X3250372Y407985D01*
Y409985D01*
Y411651D01*
Y411984D01*
Y415650D01*
X3251038Y419316D01*
X3251371Y422315D01*
X3252038Y425314D01*
X3252704Y427314D01*
X3253038Y429313D01*
X3253704Y430313D01*
Y430646D01*
X3256370Y436645D01*
X3258036Y439311D01*
X3259369Y441310D01*
X3260702Y443310D01*
X3261702Y444642D01*
X3262369Y445309D01*
X3262702Y445642D01*
X3267034Y449974D01*
X3271033Y453307D01*
X3272699Y454307D01*
X3274032Y455306D01*
X3275032Y455640D01*
X3275365Y455973D01*
X3281031Y458639D01*
X3283697Y459639D01*
X3286362Y460305D01*
X3288362Y460972D01*
X3290028Y461305D01*
X3291361Y461638D01*
X3291694D01*
X3286696Y463638D01*
X3283030Y465637D01*
X3281364Y466637D01*
X3280364Y467303D01*
X3279698Y467970D01*
X3279364D01*
X3275699Y471302D01*
X3272699Y474302D01*
X3271700Y475635D01*
X3271033Y476634D01*
X3270367Y477301D01*
Y477634D01*
X3268034Y481966D01*
X3266034Y485965D01*
X3265368Y487631D01*
X3265035Y488964D01*
X3264701Y489631D01*
Y489964D01*
X3263368Y494963D01*
X3263035Y499628D01*
X3262702Y501628D01*
Y502961D01*
Y503961D01*
Y504294D01*
X3263035Y508959D01*
X3263368Y513625D01*
X3264368Y517291D01*
X3265035Y520956D01*
X3266034Y523622D01*
X3267034Y525622D01*
X3267367Y526955D01*
X3267701Y527288D01*
X3269700Y530954D01*
X3271700Y533953D01*
X3274032Y536952D01*
X3276365Y539285D01*
X3278365Y540951D01*
X3280031Y542617D01*
X3281031Y543284D01*
X3281364Y543617D01*
X3285029Y545950D01*
X3288695Y547949D01*
X3292361Y549616D01*
X3296027Y551282D01*
X3299026Y552282D01*
X3301359Y552948D01*
X3303025Y553615D01*
X3303691D01*
X3308690Y554614D01*
X3314022Y555614D01*
X3319354Y556281D01*
X3324686Y556614D01*
X3329018Y556947D01*
X3387670D01*
X3391336Y556281D01*
D02*
G37*
G36*
X3011433Y556614D02*
X3011766Y556281D01*
X3012099Y555947D01*
X3012766Y554948D01*
X3013432Y553948D01*
X3013766Y553281D01*
X3014099Y552948D01*
X3014432Y551282D01*
X3014765Y549616D01*
X3015099Y548283D01*
Y547616D01*
X3015432Y544950D01*
Y542284D01*
Y540285D01*
Y539951D01*
Y539618D01*
Y536286D01*
X3015099Y533953D01*
Y532287D01*
Y531620D01*
X3014765Y529287D01*
X3014432Y527621D01*
X3014099Y526622D01*
Y526288D01*
X3013432Y524955D01*
X3012766Y523956D01*
X3012099Y523622D01*
Y523289D01*
X3010433Y522623D01*
X2957447D01*
Y355665D01*
X2957113Y354666D01*
X2956780Y353666D01*
X2956447Y352999D01*
Y352666D01*
X2955447Y351666D01*
X2954447Y351333D01*
X2953448Y350667D01*
X2953114D01*
X2951115Y350333D01*
X2949116Y350000D01*
X2947449Y349667D01*
X2946783D01*
X2943450Y349334D01*
X2940118Y349000D01*
X2932453D01*
X2929121Y349334D01*
X2927121Y349667D01*
X2926455D01*
X2923455Y350000D01*
X2921456Y350333D01*
X2920123Y350667D01*
X2919790D01*
X2918123Y351333D01*
X2917124Y352000D01*
X2916790Y352333D01*
X2916457Y352666D01*
X2915791Y353666D01*
X2915124Y354666D01*
Y355332D01*
Y355665D01*
Y522623D01*
X2863471D01*
X2861805Y522956D01*
X2861138Y523289D01*
X2860138Y524289D01*
X2859472Y525289D01*
X2859139Y525955D01*
Y526288D01*
X2858472Y527954D01*
X2858139Y529621D01*
X2857806Y530954D01*
Y531620D01*
X2857472Y534286D01*
X2857139Y536952D01*
Y538952D01*
Y539285D01*
Y539618D01*
Y542951D01*
X2857472Y545283D01*
X2857806Y546950D01*
Y547616D01*
X2858139Y549949D01*
X2858472Y551615D01*
X2858805Y552615D01*
X2859139Y552948D01*
X2859805Y554281D01*
X2860472Y555281D01*
X2860805Y555614D01*
X2861138Y555947D01*
X2861805Y556614D01*
X2862804Y556947D01*
X3010433D01*
X3011433Y556614D01*
D02*
G37*
G36*
X3135401Y560280D02*
X3143399Y559280D01*
X3151064Y558280D01*
X3157396Y556947D01*
X3162394Y555281D01*
X3164727Y554614D01*
X3166393Y554281D01*
X3167726Y553615D01*
X3168726Y553281D01*
X3169392Y552948D01*
X3169726D01*
X3176391Y549949D01*
X3182389Y546283D01*
X3187721Y542617D01*
X3192387Y539285D01*
X3196052Y536286D01*
X3198718Y533620D01*
X3200385Y531953D01*
X3201051Y531287D01*
X3205383Y525955D01*
X3209382Y519957D01*
X3212715Y514291D01*
X3215381Y508959D01*
X3217380Y504294D01*
X3218713Y500628D01*
X3219380Y499295D01*
X3219713Y498295D01*
X3220046Y497629D01*
Y497296D01*
X3222046Y489631D01*
X3223712Y481633D01*
X3224712Y474302D01*
X3225711Y467303D01*
X3226045Y460972D01*
Y458306D01*
X3226378Y456306D01*
Y454307D01*
Y452974D01*
Y452307D01*
Y451974D01*
X3226045Y441977D01*
X3225378Y432979D01*
X3224378Y424981D01*
X3223379Y417983D01*
X3222712Y414983D01*
X3222379Y412317D01*
X3221712Y409985D01*
X3221379Y408318D01*
X3221046Y406652D01*
X3220713Y405652D01*
X3220379Y404986D01*
Y404653D01*
X3217713Y397655D01*
X3215047Y390990D01*
X3212048Y385324D01*
X3209049Y380659D01*
X3206383Y376993D01*
X3204383Y373994D01*
X3203050Y372328D01*
X3202384Y371661D01*
X3197719Y366996D01*
X3192720Y363330D01*
X3187721Y359998D01*
X3182722Y356998D01*
X3178723Y354999D01*
X3175391Y353666D01*
X3174058Y352999D01*
X3173058Y352666D01*
X3172725Y352333D01*
X3172392D01*
X3165393Y350333D01*
X3158062Y349000D01*
X3151064Y347667D01*
X3144732Y347001D01*
X3139067Y346668D01*
X3136401D01*
X3134401Y346334D01*
X3130402D01*
X3121405Y346668D01*
X3113407Y347334D01*
X3106075Y348667D01*
X3099744Y350000D01*
X3094745Y351333D01*
X3092412Y352000D01*
X3090746Y352666D01*
X3089413Y352999D01*
X3088413Y353333D01*
X3087747Y353666D01*
X3087413D01*
X3080748Y356665D01*
X3074750Y359998D01*
X3069418Y363663D01*
X3064753Y366996D01*
X3061087Y370328D01*
X3058421Y372661D01*
X3056755Y374327D01*
X3056088Y374994D01*
X3051756Y380659D01*
X3047757Y386324D01*
X3044424Y392323D01*
X3041758Y397655D01*
X3039759Y402320D01*
X3038426Y406319D01*
X3037759Y407652D01*
X3037426Y408652D01*
X3037093Y409318D01*
Y409651D01*
X3034760Y417316D01*
X3033094Y425314D01*
X3032094Y433312D01*
X3031095Y440310D01*
X3030761Y446309D01*
Y448975D01*
X3030428Y451307D01*
Y453307D01*
Y454640D01*
Y455306D01*
Y455640D01*
X3030761Y465304D01*
X3031428Y474302D01*
X3032428Y482300D01*
X3033427Y488964D01*
X3034094Y491964D01*
X3034760Y494630D01*
X3035427Y496962D01*
X3035760Y498962D01*
X3036093Y500295D01*
X3036426Y501295D01*
X3036760Y501961D01*
Y502294D01*
X3039092Y509293D01*
X3042092Y515624D01*
X3045091Y521290D01*
X3048090Y525955D01*
X3050756Y529954D01*
X3053089Y532620D01*
X3054422Y534286D01*
X3055088Y534953D01*
X3059754Y539618D01*
X3064753Y543617D01*
X3069751Y546950D01*
X3074417Y549616D01*
X3078749Y551615D01*
X3082081Y552948D01*
X3083414Y553615D01*
X3084414Y553948D01*
X3084747Y554281D01*
X3085081D01*
X3092079Y556281D01*
X3099077Y557947D01*
X3106075Y558947D01*
X3112407Y559946D01*
X3118072Y560280D01*
X3120405D01*
X3122404Y560613D01*
X3126403D01*
X3135401Y560280D01*
D02*
G37*
%LPC*%
G36*
X3358677Y525289D02*
X3334350D01*
X3331351Y524955D01*
X3328685Y524622D01*
X3326352Y524289D01*
X3324686Y523956D01*
X3323353Y523622D01*
X3322687Y523289D01*
X3322353D01*
X3318354Y521956D01*
X3315355Y520290D01*
X3313356Y518957D01*
X3312689Y518290D01*
X3310023Y515624D01*
X3308024Y512958D01*
X3307024Y510959D01*
X3306691Y510292D01*
Y509959D01*
X3305358Y506293D01*
X3305024Y502628D01*
X3304691Y501295D01*
Y499962D01*
Y499295D01*
Y498962D01*
X3305024Y494963D01*
X3305691Y491630D01*
X3306024Y490297D01*
X3306357Y489298D01*
X3306691Y488631D01*
Y488298D01*
X3308357Y484632D01*
X3310023Y481966D01*
X3311356Y479967D01*
X3311689Y479634D01*
X3312023Y479300D01*
X3315022Y476968D01*
X3318021Y474968D01*
X3319021Y474635D01*
X3320021Y473968D01*
X3320687Y473635D01*
X3321020D01*
X3323020Y472969D01*
X3325353Y472635D01*
X3330018Y471969D01*
X3332351Y471636D01*
X3358677D01*
Y525289D01*
D02*
G37*
G36*
Y440977D02*
X3330018D01*
X3326352Y440644D01*
X3323353Y440310D01*
X3320687Y439977D01*
X3318354Y439311D01*
X3317021Y438977D01*
X3316022Y438644D01*
X3315688D01*
X3310690Y436978D01*
X3308690Y435978D01*
X3307024Y434978D01*
X3305691Y433979D01*
X3304358Y433312D01*
X3304025Y432979D01*
X3303691Y432646D01*
X3300692Y429646D01*
X3298359Y426647D01*
X3297693Y425314D01*
X3297026Y424314D01*
X3296693Y423648D01*
Y423315D01*
X3295027Y418982D01*
X3294360Y414650D01*
X3294027Y412984D01*
Y411651D01*
Y410651D01*
Y410318D01*
X3294360Y405319D01*
X3295360Y401654D01*
X3295693Y399987D01*
X3296360Y398988D01*
X3296693Y398321D01*
Y397988D01*
X3298693Y394322D01*
X3301025Y391656D01*
X3303025Y389657D01*
X3303358Y389323D01*
X3303691Y388990D01*
X3307024Y386657D01*
X3310356Y384991D01*
X3312023Y384325D01*
X3313022Y383991D01*
X3313689Y383658D01*
X3314022D01*
X3318688Y382658D01*
X3323353Y382325D01*
X3325686Y381992D01*
X3358677D01*
Y440977D01*
D02*
G37*
G36*
X3130736Y525955D02*
X3128070D01*
X3122404Y525622D01*
X3117739Y525289D01*
X3113074Y524289D01*
X3109408Y523289D01*
X3106409Y522289D01*
X3104409Y521623D01*
X3102743Y520956D01*
X3102410Y520623D01*
X3098744Y518624D01*
X3095411Y515958D01*
X3092745Y513625D01*
X3090413Y511292D01*
X3088413Y508959D01*
X3087080Y507293D01*
X3086414Y505960D01*
X3086080Y505627D01*
X3083748Y501961D01*
X3082081Y498295D01*
X3080415Y494296D01*
X3079082Y490964D01*
X3078416Y487631D01*
X3077749Y485299D01*
X3077083Y483633D01*
Y482966D01*
X3075417Y472635D01*
X3075083Y467637D01*
X3074750Y463304D01*
X3074417Y459305D01*
Y455973D01*
Y453973D01*
Y453640D01*
Y453307D01*
Y447975D01*
X3074750Y442643D01*
X3075083Y437978D01*
X3075750Y433979D01*
X3076083Y430313D01*
X3076749Y427647D01*
X3077083Y425981D01*
Y425314D01*
X3078082Y420649D01*
X3079749Y416316D01*
X3081082Y412317D01*
X3082748Y408985D01*
X3084081Y406319D01*
X3085414Y403986D01*
X3086080Y402653D01*
X3086414Y402320D01*
X3089080Y398654D01*
X3091746Y395655D01*
X3094412Y392989D01*
X3097078Y390656D01*
X3099410Y388990D01*
X3101410Y387657D01*
X3102743Y386991D01*
X3103076Y386657D01*
X3107075Y384658D01*
X3111407Y383325D01*
X3115740Y382325D01*
X3120072Y381659D01*
X3123404Y381325D01*
X3126403Y380992D01*
X3129069D01*
X3134735Y381325D01*
X3139733Y381659D01*
X3144066Y382658D01*
X3148065Y383658D01*
X3151064Y384325D01*
X3153063Y385324D01*
X3154730Y385658D01*
X3155063Y385991D01*
X3158729Y387990D01*
X3161728Y390323D01*
X3164727Y392656D01*
X3167060Y394989D01*
X3168726Y396988D01*
X3170392Y398654D01*
X3171059Y399987D01*
X3171392Y400321D01*
X3173391Y403986D01*
X3175391Y407985D01*
X3176724Y411984D01*
X3178057Y415317D01*
X3178723Y418649D01*
X3179390Y420982D01*
X3180056Y422648D01*
Y423315D01*
X3181389Y433979D01*
X3181723Y438977D01*
X3182056Y443643D01*
X3182389Y447975D01*
Y450974D01*
Y452307D01*
Y453307D01*
Y453640D01*
Y453973D01*
Y459305D01*
X3182056Y464637D01*
X3181723Y469303D01*
X3181056Y473302D01*
X3180723Y476634D01*
X3180390Y479300D01*
X3180056Y480967D01*
Y481633D01*
X3179057Y486298D01*
X3177390Y490631D01*
X3176057Y494630D01*
X3174391Y497962D01*
X3173058Y500628D01*
X3172058Y502628D01*
X3171392Y503961D01*
X3171059Y504294D01*
X3168393Y507626D01*
X3165727Y510959D01*
X3162727Y513625D01*
X3160061Y515624D01*
X3157729Y517624D01*
X3155729Y518957D01*
X3154396Y519623D01*
X3154063Y519957D01*
X3150064Y521956D01*
X3145732Y523289D01*
X3141400Y524622D01*
X3137067Y525289D01*
X3133402Y525622D01*
X3130736Y525955D01*
D02*
G37*
%LPD*%
D21*
X18449992Y3592000D02*
D03*
X18450008Y4608000D02*
D03*
X18542000Y12900008D02*
D03*
X19558000Y12899992D02*
D03*
X19025726Y2003956D02*
D03*
X19250726D02*
D03*
X6549992Y18142000D02*
D03*
X6550008Y19158000D02*
D03*
X18300000Y3262000D02*
D03*
Y2754000D02*
D03*
Y2500000D02*
D03*
Y3008000D02*
D03*
X19120000Y2499000D02*
D03*
Y3262000D02*
D03*
Y2754000D02*
D03*
Y3008000D02*
D03*
X16150008Y19558000D02*
D03*
X16149992Y18542000D02*
D03*
X15699992D02*
D03*
X15700008Y19558000D02*
D03*
X15249992Y18542000D02*
D03*
X15250008Y19558000D02*
D03*
X19100000Y6250000D02*
D03*
X18850000Y6000000D02*
D03*
X17999992Y992000D02*
D03*
X18000008Y2008000D02*
D03*
X18299992Y992000D02*
D03*
X18300008Y2008000D02*
D03*
X18499992Y6542000D02*
D03*
X18500008Y7558000D02*
D03*
X19100000Y3850000D02*
D03*
X18850000Y3600000D02*
D03*
X1550000Y15146001D02*
D03*
Y15400000D02*
D03*
Y15653999D02*
D03*
X18541998Y13300008D02*
D03*
X19558000Y13299992D02*
D03*
X19557999Y13699992D02*
D03*
X18542000Y13700008D02*
D03*
X6150008Y19158000D02*
D03*
X6149992Y18142000D02*
D03*
X5273000Y19060001D02*
D03*
X5527000D02*
D03*
X5019000Y19060001D02*
D03*
X5782000D02*
D03*
X5273000Y18239999D02*
D03*
X5781000Y18239999D02*
D03*
X5527000Y18239999D02*
D03*
X5019000Y18239999D02*
D03*
D22*
X13077229Y14849657D02*
D03*
X12823230Y14849657D02*
D03*
X12569230Y14849657D02*
D03*
X12315230Y14849657D02*
D03*
X13077998Y13073001D02*
D03*
X12823999Y13073001D02*
D03*
X12570000Y13073001D02*
D03*
X12316000D02*
D03*
X12062000D02*
D03*
X11807999D02*
D03*
X11553999D02*
D03*
X8760000Y14850000D02*
D03*
X9014000D02*
D03*
X9268000D02*
D03*
X9521999D02*
D03*
X9776000Y14850000D02*
D03*
X10030000Y14850000D02*
D03*
X10284000D02*
D03*
X10791999Y14850000D02*
D03*
X8760001Y13073001D02*
D03*
X9013999D02*
D03*
X9267999D02*
D03*
X9776000D02*
D03*
X10284000D02*
D03*
X10538000D02*
D03*
X10791999D02*
D03*
X11046000D02*
D03*
X11299999D02*
D03*
X11554000Y14850000D02*
D03*
X11046000Y14850000D02*
D03*
X11300000Y14850000D02*
D03*
X11807230Y14849657D02*
D03*
X12061230Y14849657D02*
D03*
X10538000Y14850000D02*
D03*
X13585999Y13073001D02*
D03*
X13585229Y14849657D02*
D03*
X13331230D02*
D03*
X9521999Y13073001D02*
D03*
X13332001D02*
D03*
X10030000D02*
D03*
D23*
X19150000Y14150000D02*
D03*
Y14658000D02*
D03*
X18699998Y14150000D02*
D03*
Y14658000D02*
D03*
X7000000Y19158000D02*
D03*
Y18142000D02*
D03*
X18500000Y7842000D02*
D03*
Y8858000D02*
D03*
X17300000Y19100000D02*
D03*
X16792000D02*
D03*
X17300000Y18650000D02*
D03*
X16792000D02*
D03*
D24*
X19650000Y1700000D02*
D03*
X19150000Y12650000D02*
D03*
X9250000Y14500000D02*
D03*
X2750000Y6350000D02*
D03*
Y9700000D02*
D03*
X1050000Y3150000D02*
D03*
X850000Y17850000D02*
D03*
Y19750000D02*
D03*
X5050000Y17250000D02*
D03*
X2800000Y13050000D02*
D03*
Y13900000D02*
D03*
X2750000Y10550000D02*
D03*
Y7250000D02*
D03*
X2050000Y2500000D02*
D03*
Y600000D02*
D03*
X19100000Y18150000D02*
D03*
X1300000Y4100000D02*
D03*
X2050000D02*
D03*
X1850000Y18750000D02*
D03*
Y16050000D02*
D03*
X2050000Y18950000D02*
D03*
Y17450000D02*
D03*
X18150000Y18500000D02*
D03*
X18750000Y17500000D02*
D03*
X17800000D02*
D03*
X17550000Y16700000D02*
D03*
D28*
X18492000Y15900000D02*
D03*
X19508000D02*
D03*
X18400000Y19258000D02*
D03*
Y18242000D02*
D03*
D45*
X694500Y5312000D02*
D03*
Y3998000D02*
D03*
D46*
X18742000Y15249998D02*
D03*
X18996001Y15250000D02*
D03*
X19250000D02*
D03*
X17800000Y18800000D02*
D03*
Y19053999D02*
D03*
Y18546001D02*
D03*
D47*
X4299999Y19100000D02*
D03*
X3960999D02*
D03*
D48*
X12899998Y19850000D02*
D03*
X12079999D02*
D03*
X17460001D02*
D03*
X16639999D02*
D03*
D49*
X12289999D02*
D03*
X12489999D02*
D03*
X12689999D02*
D03*
X16850000D02*
D03*
X17050000D02*
D03*
X17250000D02*
D03*
D50*
X18900000Y5550000D02*
D03*
Y4550000D02*
D03*
D51*
X18850000Y6500000D02*
D03*
Y4100000D02*
D03*
D52*
X1550000Y14892000D02*
D03*
D53*
X19650000Y9300000D02*
D03*
X19650000Y10000000D02*
D03*
Y7700000D02*
D03*
Y8400000D02*
D03*
Y10900000D02*
D03*
Y11600000D02*
D03*
D54*
X19900000Y9900000D02*
D03*
Y8300000D02*
D03*
Y11500000D02*
D03*
D55*
Y9400000D02*
D03*
Y7800000D02*
D03*
Y11000000D02*
D03*
D56*
X450000Y2715000D02*
D03*
Y2300000D02*
D03*
D57*
X500000Y500000D02*
D03*
X19500000Y19500000D02*
D03*
X500000D02*
D03*
X19500000Y500000D02*
D03*
D58*
X692551Y2377500D02*
D03*
X700000Y2500000D02*
D03*
Y2250000D02*
D03*
X19300000Y2500000D02*
D03*
Y3850000D02*
D03*
X18700000Y4100000D02*
D03*
X17650000Y10450000D02*
D03*
X16150000D02*
D03*
X14600000D02*
D03*
X13050000D02*
D03*
X11550000D02*
D03*
X10050000D02*
D03*
X8500000D02*
D03*
X7000000D02*
D03*
X5450000D02*
D03*
X3900000D02*
D03*
X2400000D02*
D03*
X19850000Y15200000D02*
D03*
X350000Y11000000D02*
D03*
X14050000Y18350000D02*
D03*
X3100000Y18600000D02*
D03*
X7150000Y450000D02*
D03*
X19150000Y19450000D02*
D03*
X19250000Y18250000D02*
D03*
X18100000Y17750000D02*
D03*
X17650000Y17150000D02*
D03*
X16150000D02*
D03*
X14600000D02*
D03*
X13050000D02*
D03*
X11550000D02*
D03*
X10050000D02*
D03*
X8500000D02*
D03*
X7000000D02*
D03*
X2400000Y15450000D02*
D03*
X3900000D02*
D03*
X5450000D02*
D03*
X7000000D02*
D03*
X8500000D02*
D03*
X10050000D02*
D03*
X11550000D02*
D03*
X13050000D02*
D03*
X14600000D02*
D03*
X16150000D02*
D03*
X17650000D02*
D03*
X18150000Y13900000D02*
D03*
X17650000Y13800000D02*
D03*
X16150000D02*
D03*
X14600000D02*
D03*
X13050000D02*
D03*
X11550000D02*
D03*
X10050000D02*
D03*
X8500000D02*
D03*
X7000000D02*
D03*
X5450000D02*
D03*
X3900000D02*
D03*
X2400000Y13850000D02*
D03*
Y12150000D02*
D03*
X3900000D02*
D03*
X5450000D02*
D03*
X7000000D02*
D03*
X8500000D02*
D03*
X10050000D02*
D03*
X11550000D02*
D03*
X13050000D02*
D03*
X14600000D02*
D03*
X16150000D02*
D03*
X17650000D02*
D03*
Y8800000D02*
D03*
X16150000D02*
D03*
X14600000D02*
D03*
X13050000D02*
D03*
X11550000D02*
D03*
X10050000D02*
D03*
X8500000D02*
D03*
X7000000D02*
D03*
X5450000D02*
D03*
X3900000D02*
D03*
X2400000D02*
D03*
Y7150000D02*
D03*
X3900000D02*
D03*
X5450000D02*
D03*
X7000000D02*
D03*
X8500000D02*
D03*
X10050000D02*
D03*
X11550000D02*
D03*
X13050000D02*
D03*
X14600000D02*
D03*
X16150000D02*
D03*
X17650000D02*
D03*
Y5450000D02*
D03*
X16150000D02*
D03*
X14600000D02*
D03*
X13050000D02*
D03*
X11550000D02*
D03*
X10050000D02*
D03*
X8500000D02*
D03*
X7000000D02*
D03*
X5450000D02*
D03*
X3900000D02*
D03*
X2400000D02*
D03*
Y3800000D02*
D03*
X3900000D02*
D03*
X5450000D02*
D03*
X7000000D02*
D03*
X8500000D02*
D03*
X10050000D02*
D03*
X11550000D02*
D03*
X13050000D02*
D03*
X14600000D02*
D03*
X16150000D02*
D03*
X17650713Y3801839D02*
D03*
X18750000Y1023575D02*
D03*
X17650000Y2100000D02*
D03*
X16200000D02*
D03*
X14600000D02*
D03*
X13050000D02*
D03*
X11550000D02*
D03*
X10050000D02*
D03*
X8500000D02*
D03*
X7000000D02*
D03*
X5450000D02*
D03*
X3900000D02*
D03*
X2400000D02*
D03*
X1212227Y1077746D02*
D03*
X1150000Y1400000D02*
D03*
X1200000Y5150000D02*
D03*
X1300000Y5000000D02*
D03*
X800000D02*
D03*
X19162451Y1430729D02*
D03*
X19250000Y2200000D02*
D03*
X17800000Y2850000D02*
D03*
X16350000D02*
D03*
X14750000D02*
D03*
X13200000D02*
D03*
X11700000D02*
D03*
X10200000D02*
D03*
X8650000D02*
D03*
X7150000D02*
D03*
X5600000D02*
D03*
X4050000D02*
D03*
X2550000D02*
D03*
Y4550000D02*
D03*
X4050000D02*
D03*
X5600000D02*
D03*
X7150000D02*
D03*
X8650000D02*
D03*
X10200000D02*
D03*
X11700000D02*
D03*
X13200000D02*
D03*
X14750000D02*
D03*
X16300000D02*
D03*
X17800000D02*
D03*
Y6200000D02*
D03*
X16300000D02*
D03*
X14750000D02*
D03*
X13200000D02*
D03*
X11700000D02*
D03*
X10200000D02*
D03*
X8650000D02*
D03*
X7150000D02*
D03*
X5600000D02*
D03*
X4050000D02*
D03*
X2550000D02*
D03*
X17850000Y7950000D02*
D03*
X16300000D02*
D03*
X14750000Y7900000D02*
D03*
X13200000D02*
D03*
X11700000D02*
D03*
X10200000D02*
D03*
X8650000D02*
D03*
X7150000D02*
D03*
X5600000D02*
D03*
X4050000D02*
D03*
X2550000D02*
D03*
Y9550000D02*
D03*
X4050000D02*
D03*
X5600000D02*
D03*
X7150000D02*
D03*
X8650000D02*
D03*
X10200000D02*
D03*
X11700000D02*
D03*
X13200000D02*
D03*
X14750000D02*
D03*
X16300000D02*
D03*
X17800000D02*
D03*
Y11200000D02*
D03*
X16300000D02*
D03*
X14750000D02*
D03*
X13200000D02*
D03*
X11700000D02*
D03*
X10200000D02*
D03*
X8650000D02*
D03*
X7150000D02*
D03*
X5600000D02*
D03*
X4050000D02*
D03*
X2550000D02*
D03*
Y12900000D02*
D03*
X4050000D02*
D03*
X5600000D02*
D03*
X7150000D02*
D03*
X8650000D02*
D03*
X10200000D02*
D03*
X11700000D02*
D03*
X13200000D02*
D03*
X14750000D02*
D03*
X16322887Y12917149D02*
D03*
X17809680Y12922888D02*
D03*
X17900000Y14600000D02*
D03*
X16500000Y14300000D02*
D03*
X14950000D02*
D03*
X11900000D02*
D03*
X10200000Y14600000D02*
D03*
X8650000D02*
D03*
X7150000D02*
D03*
X5600000D02*
D03*
X4050000D02*
D03*
X2550000D02*
D03*
Y16250000D02*
D03*
X4050000D02*
D03*
X5600000D02*
D03*
X7150000D02*
D03*
X8650672Y16246658D02*
D03*
X10200000Y16250000D02*
D03*
X11700000D02*
D03*
X11800000Y16400000D02*
D03*
X12500000D02*
D03*
X13200000Y16250000D02*
D03*
X14750000D02*
D03*
X16300000D02*
D03*
X17800000D02*
D03*
X17750000Y18000000D02*
D03*
X16300000Y17950000D02*
D03*
X14750000D02*
D03*
X13200000D02*
D03*
X11700000D02*
D03*
X10200000D02*
D03*
X8650000D02*
D03*
X7100000D02*
D03*
X5600000D02*
D03*
X4050000D02*
D03*
X2550000D02*
D03*
X5450000Y17150000D02*
D03*
X3900000D02*
D03*
X2400000D02*
D03*
X1000000Y18650000D02*
D03*
X1150000Y19450000D02*
D03*
X12300000Y19100000D02*
D03*
X13450000Y14300000D02*
D03*
X19900000Y7600000D02*
D03*
Y9150000D02*
D03*
Y10750000D02*
D03*
X12050000Y19100000D02*
D03*
X16600000Y18650000D02*
D03*
X15050000Y19550000D02*
D03*
X16600000Y19100000D02*
D03*
X12500000Y19650000D02*
D03*
X1300000Y15650000D02*
D03*
X5800000Y19250000D02*
D03*
X5650000Y18150000D02*
D03*
X6150000Y18000000D02*
D03*
D59*
X1052500Y4755000D02*
D03*
Y4555000D02*
D03*
X1052500Y5005000D02*
D03*
X1052500Y4305000D02*
D03*
D60*
X18100000Y3600000D02*
D03*
X19500000D02*
D03*
X19500000Y16300000D02*
D03*
X1000000Y2300000D02*
D03*
X17100000Y17200000D02*
D03*
X19250000Y8000000D02*
D03*
Y9650000D02*
D03*
X4600000Y13350000D02*
D03*
X19250000Y11250000D02*
D03*
X12050000Y18750000D02*
D03*
X1550000Y13776826D02*
D03*
X12700000Y18750000D02*
D03*
X6150000Y19500000D02*
D03*
X7400000Y17800000D02*
D03*
X6550000D02*
D03*
X18100000Y7850000D02*
D03*
X18750000Y18250000D02*
D03*
Y19250000D02*
D03*
D61*
X18650000Y2000000D02*
D03*
X1050000Y3550000D02*
D03*
X19500000Y6500000D02*
D03*
Y4550000D02*
D03*
Y5550000D02*
D03*
%TF.MD5,831af16614941a0847f0bdbe05ff97f6*%
M02*
