%TF.GenerationSoftware,Altium Limited,Altium Designer,24.5.1 (21)*%
G04 Layer_Color=128*
%FSLAX45Y45*%
%MOMM*%
%TF.SameCoordinates,D7596F51-2DA0-4622-90E6-AC5F46AEA47A*%
%TF.FilePolarity,Positive*%
%TF.FileFunction,Drillmap*%
%TF.Part,Single*%
G01*
G75*
%TA.AperFunction,NonConductor*%
%ADD87C,0.12700*%
D87*
X18409991Y3592000D02*
X18489992D01*
X18449992Y3552000D02*
Y3632000D01*
X18410008Y4608000D02*
X18490009D01*
X18450008Y4568000D02*
Y4648000D01*
X579500Y5312000D02*
X809500D01*
X694500Y5197000D02*
Y5427000D01*
X579500Y3998000D02*
X809500D01*
X694500Y3883000D02*
Y4113000D01*
X18502000Y12900008D02*
X18582001D01*
X18542000Y12860008D02*
Y12940009D01*
X19517999Y12899992D02*
X19598000D01*
X19558000Y12859991D02*
Y12939992D01*
X19110001Y14150000D02*
X19189999D01*
X19150000Y14110001D02*
Y14189999D01*
X19110001Y14658000D02*
X19189999D01*
X19150000Y14617999D02*
Y14698000D01*
X18660001Y14150000D02*
X18739999D01*
X18699998Y14110001D02*
Y14189999D01*
X18660001Y14658000D02*
X18739999D01*
X18699998Y14617999D02*
Y14698000D01*
X18692000Y15249998D02*
X18792000D01*
X18742000Y15200000D02*
Y15299998D01*
X18946001Y15250000D02*
X19045999D01*
X18996001Y15200000D02*
Y15300000D01*
X19200000Y15250000D02*
X19299998D01*
X19250000Y15200000D02*
Y15300000D01*
X18437000Y15900000D02*
X18546999D01*
X18492000Y15845000D02*
Y15955000D01*
X19453000Y15900000D02*
X19563000D01*
X19508000Y15845000D02*
Y15955000D01*
X4264999Y19100000D02*
X4334999D01*
X4299999Y19064999D02*
Y19135001D01*
X3926000Y19100000D02*
X3995999D01*
X3960999Y19064999D02*
Y19135001D01*
X18985725Y2003956D02*
X19065726D01*
X19025726Y1963956D02*
Y2043956D01*
X19210725Y2003956D02*
X19290726D01*
X19250726Y1963956D02*
Y2043956D01*
X12814999Y19850000D02*
X12984999D01*
X12899998Y19764999D02*
Y19935001D01*
X11994999Y19850000D02*
X12164999D01*
X12079999Y19764999D02*
Y19935001D01*
X12239999Y19850000D02*
X12339999D01*
X12289999Y19800000D02*
Y19900000D01*
X12439999Y19850000D02*
X12539999D01*
X12489999Y19800000D02*
Y19900000D01*
X12639999Y19850000D02*
X12739999D01*
X12689999Y19800000D02*
Y19900000D01*
X6509992Y18142000D02*
X6589992D01*
X6549992Y18102000D02*
Y18182001D01*
X6510008Y19158000D02*
X6590008D01*
X6550008Y19117999D02*
Y19198000D01*
X6960000Y19158000D02*
X7040000D01*
X7000000Y19117999D02*
Y19198000D01*
X6960000Y18142000D02*
X7040000D01*
X7000000Y18102000D02*
Y18182001D01*
X18800000Y5550000D02*
X19000000D01*
X18900000Y5450000D02*
Y5650000D01*
X18800000Y4550000D02*
X19000000D01*
X18900000Y4450000D02*
Y4650000D01*
X18260001Y3262000D02*
X18339999D01*
X18300000Y3222000D02*
Y3302000D01*
X18260001Y2754000D02*
X18339999D01*
X18300000Y2714000D02*
Y2794000D01*
X18260001Y2500000D02*
X18339999D01*
X18300000Y2460000D02*
Y2540000D01*
X18260001Y3008000D02*
X18339999D01*
X18300000Y2968000D02*
Y3048000D01*
X19080000Y2499000D02*
X19160001D01*
X19120000Y2459000D02*
Y2539000D01*
X19080000Y3262000D02*
X19160001D01*
X19120000Y3222000D02*
Y3302000D01*
X19080000Y2754000D02*
X19160001D01*
X19120000Y2714000D02*
Y2794000D01*
X19080000Y3008000D02*
X19160001D01*
X19120000Y2968000D02*
Y3048000D01*
X18460001Y7842000D02*
X18539999D01*
X18500000Y7802000D02*
Y7882000D01*
X18460001Y8858000D02*
X18539999D01*
X18500000Y8818000D02*
Y8898000D01*
X17375002Y19850000D02*
X17545000D01*
X17460001Y19764999D02*
Y19935001D01*
X16555000Y19850000D02*
X16725000D01*
X16639999Y19764999D02*
Y19935001D01*
X16800000Y19850000D02*
X16900000D01*
X16850000Y19800000D02*
Y19900000D01*
X17000002Y19850000D02*
X17100000D01*
X17050000Y19800000D02*
Y19900000D01*
X17200000Y19850000D02*
X17300000D01*
X17250000Y19800000D02*
Y19900000D01*
X17260001Y19100000D02*
X17339999D01*
X17300000Y19060001D02*
Y19139999D01*
X16752000Y19100000D02*
X16832001D01*
X16792000Y19060001D02*
Y19139999D01*
X17260001Y18650000D02*
X17339999D01*
X17300000Y18610001D02*
Y18689999D01*
X16752000Y18650000D02*
X16832001D01*
X16792000Y18610001D02*
Y18689999D01*
X18345000Y19258000D02*
X18455000D01*
X18400000Y19203000D02*
Y19313000D01*
X18345000Y18242000D02*
X18455000D01*
X18400000Y18187000D02*
Y18297000D01*
X17750000Y18800000D02*
X17850000D01*
X17800000Y18750000D02*
Y18850000D01*
X17750000Y19053999D02*
X17850000D01*
X17800000Y19003999D02*
Y19103999D01*
X17750000Y18546001D02*
X17850000D01*
X17800000Y18496001D02*
Y18596001D01*
X13027229Y14849657D02*
X13127229D01*
X13077229Y14799657D02*
Y14899657D01*
X12773230Y14849657D02*
X12873230D01*
X12823230Y14799657D02*
Y14899657D01*
X12519230Y14849657D02*
X12619230D01*
X12569230Y14799657D02*
Y14899657D01*
X12265230Y14849657D02*
X12365230D01*
X12315230Y14799657D02*
Y14899657D01*
X13028000Y13073001D02*
X13127998D01*
X13077998Y13023001D02*
Y13123000D01*
X12773999Y13073001D02*
X12873999D01*
X12823999Y13023001D02*
Y13123001D01*
X12520000Y13073001D02*
X12620000D01*
X12570000Y13023001D02*
Y13123000D01*
X12266000Y13073001D02*
X12366000D01*
X12316000Y13023001D02*
Y13123000D01*
X12012000Y13073001D02*
X12112000D01*
X12062000Y13023001D02*
Y13123000D01*
X11758000Y13073001D02*
X11857999D01*
X11807999Y13023001D02*
Y13123000D01*
X11504000Y13073001D02*
X11603999D01*
X11553999Y13023001D02*
Y13123000D01*
X8710000Y14850000D02*
X8810000D01*
X8760000Y14800000D02*
Y14900000D01*
X8964000Y14850000D02*
X9064000D01*
X9014000Y14800000D02*
Y14900000D01*
X9218000Y14850000D02*
X9318000D01*
X9268000Y14800000D02*
Y14900000D01*
X9472000Y14850000D02*
X9571999D01*
X9521999Y14800000D02*
Y14900000D01*
X9726000Y14850000D02*
X9826000D01*
X9776000Y14800000D02*
Y14900000D01*
X9980000Y14850000D02*
X10080000D01*
X10030000Y14800000D02*
Y14900000D01*
X10234000Y14850000D02*
X10334000D01*
X10284000Y14800000D02*
Y14900000D01*
X10742000Y14850000D02*
X10841999D01*
X10791999Y14800000D02*
Y14900000D01*
X8710001Y13073001D02*
X8810000D01*
X8760001Y13023001D02*
Y13123000D01*
X8964000Y13073001D02*
X9063999D01*
X9013999Y13023001D02*
Y13123000D01*
X9218000Y13073001D02*
X9317999D01*
X9267999Y13023001D02*
Y13123000D01*
X9726000Y13073001D02*
X9826000D01*
X9776000Y13023001D02*
Y13123000D01*
X10234000Y13073001D02*
X10334000D01*
X10284000Y13023001D02*
Y13123000D01*
X10488000Y13073001D02*
X10588000D01*
X10538000Y13023001D02*
Y13123000D01*
X10742000Y13073001D02*
X10841999D01*
X10791999Y13023001D02*
Y13123000D01*
X10996000Y13073001D02*
X11096000D01*
X11046000Y13023001D02*
Y13123000D01*
X11250000Y13073001D02*
X11349999D01*
X11299999Y13023001D02*
Y13123000D01*
X11504000Y14850000D02*
X11604000D01*
X11554000Y14800000D02*
Y14900000D01*
X10996000Y14850000D02*
X11096000D01*
X11046000Y14800000D02*
Y14900000D01*
X11250000Y14850000D02*
X11350000D01*
X11300000Y14800000D02*
Y14900000D01*
X11757230Y14849657D02*
X11857230D01*
X11807230Y14799657D02*
Y14899657D01*
X12011230Y14849657D02*
X12111230D01*
X12061230Y14799657D02*
Y14899657D01*
X10488000Y14850000D02*
X10588000D01*
X10538000Y14800000D02*
Y14900000D01*
X13536000Y13073001D02*
X13635999D01*
X13585999Y13023001D02*
Y13123000D01*
X13535229Y14849657D02*
X13635229D01*
X13585229Y14799657D02*
Y14899657D01*
X13281230Y14849657D02*
X13381230D01*
X13331230Y14799657D02*
Y14899657D01*
X9472000Y13073001D02*
X9571999D01*
X9521999Y13023001D02*
Y13123000D01*
X13282001Y13073001D02*
X13382001D01*
X13332001Y13023001D02*
Y13123000D01*
X9980000Y13073001D02*
X10080000D01*
X10030000Y13023001D02*
Y13123000D01*
X16110008Y19558000D02*
X16190009D01*
X16150008Y19517999D02*
Y19598000D01*
X16109991Y18542000D02*
X16189992D01*
X16149992Y18502000D02*
Y18582001D01*
X15659991Y18542000D02*
X15739992D01*
X15699992Y18502000D02*
Y18582001D01*
X15660008Y19558000D02*
X15740009D01*
X15700008Y19517999D02*
Y19598000D01*
X15209991Y18542000D02*
X15289992D01*
X15249992Y18502000D02*
Y18582001D01*
X15210008Y19558000D02*
X15290009D01*
X15250008Y19517999D02*
Y19598000D01*
X19060001Y6250000D02*
X19139999D01*
X19100000Y6210000D02*
Y6290000D01*
X18810001Y6000000D02*
X18889999D01*
X18850000Y5960000D02*
Y6040000D01*
X18810001Y6500000D02*
X18889999D01*
X18850000Y6460000D02*
Y6540000D01*
X17959991Y992000D02*
X18039992D01*
X17999992Y952000D02*
Y1032000D01*
X17960008Y2008000D02*
X18040009D01*
X18000008Y1968000D02*
Y2048000D01*
X18259991Y992000D02*
X18339992D01*
X18299992Y952000D02*
Y1032000D01*
X18260008Y2008000D02*
X18340009D01*
X18300008Y1968000D02*
Y2047999D01*
X18459991Y6542000D02*
X18539992D01*
X18499992Y6502000D02*
Y6582000D01*
X18460008Y7558000D02*
X18540009D01*
X18500008Y7518000D02*
Y7598000D01*
X19060001Y3850000D02*
X19139999D01*
X19100000Y3810000D02*
Y3890000D01*
X18810001Y3600000D02*
X18889999D01*
X18850000Y3560000D02*
Y3640000D01*
X18810001Y4100000D02*
X18889999D01*
X18850000Y4060000D02*
Y4140000D01*
X1500000Y15146001D02*
X1600000D01*
X1550000Y15096001D02*
Y15196001D01*
X1500000Y14892000D02*
X1600000D01*
X1550000Y14842000D02*
Y14942000D01*
X1500000Y15400000D02*
X1600000D01*
X1550000Y15350000D02*
Y15450000D01*
X1500000Y15653999D02*
X1600000D01*
X1550000Y15603999D02*
Y15703999D01*
X19585001Y9300000D02*
X19714999D01*
X19650000Y9235000D02*
Y9365000D01*
X19585001Y10000000D02*
X19714999D01*
X19650000Y9935000D02*
Y10065000D01*
X19850000Y9900000D02*
X19950000D01*
X19900000Y9850000D02*
Y9950000D01*
X19850000Y9400000D02*
X19950000D01*
X19900000Y9350000D02*
Y9450000D01*
X19585001Y7700000D02*
X19714999D01*
X19650000Y7635000D02*
Y7765000D01*
X19585001Y8400000D02*
X19714999D01*
X19650000Y8335000D02*
Y8465000D01*
X19850000Y8300000D02*
X19950000D01*
X19900000Y8250000D02*
Y8350000D01*
X19850000Y7800000D02*
X19950000D01*
X19900000Y7750000D02*
Y7850000D01*
X19585001Y10900000D02*
X19714999D01*
X19650000Y10835000D02*
Y10965000D01*
X19585001Y11600000D02*
X19714999D01*
X19650000Y11535000D02*
Y11665000D01*
X19850000Y11500000D02*
X19950000D01*
X19900000Y11450000D02*
Y11550000D01*
X19850000Y11000000D02*
X19950000D01*
X19900000Y10950000D02*
Y11050000D01*
X18502000Y13300008D02*
X18581999D01*
X18541998Y13260008D02*
Y13340009D01*
X19517999Y13299992D02*
X19598000D01*
X19558000Y13259991D02*
Y13339992D01*
X19517999Y13699992D02*
X19598000D01*
X19557999Y13659991D02*
Y13739992D01*
X18502000Y13700008D02*
X18582001D01*
X18542000Y13660008D02*
Y13740009D01*
X6110008Y19158000D02*
X6190008D01*
X6150008Y19117999D02*
Y19198000D01*
X6109992Y18142000D02*
X6189992D01*
X6149992Y18102000D02*
Y18182001D01*
X5233000Y19060001D02*
X5313000D01*
X5273000Y19020000D02*
Y19100000D01*
X5487000Y19060001D02*
X5567000D01*
X5527000Y19020000D02*
Y19100000D01*
X4979000Y19060001D02*
X5059000D01*
X5019000Y19020000D02*
Y19100000D01*
X5742000Y19060001D02*
X5822000D01*
X5782000Y19020000D02*
Y19100000D01*
X5233000Y18239999D02*
X5313000D01*
X5273000Y18200000D02*
Y18280000D01*
X5741000Y18239999D02*
X5821000D01*
X5781000Y18200000D02*
Y18280000D01*
X5487000Y18239999D02*
X5567000D01*
X5527000Y18200000D02*
Y18280000D01*
X4979000Y18239999D02*
X5059000D01*
X5019000Y18200000D02*
Y18280000D01*
X415000Y2715000D02*
X485000D01*
X450000Y2680000D02*
Y2750000D01*
X415000Y2300000D02*
X485000D01*
X450000Y2265000D02*
Y2335000D01*
X340000Y500000D02*
X660000D01*
X500000Y340000D02*
Y660000D01*
X19339999Y19500000D02*
X19660001D01*
X19500000Y19339999D02*
Y19660001D01*
X340000Y19500000D02*
X660000D01*
X500000Y19339999D02*
Y19660001D01*
X19339999Y500000D02*
X19660001D01*
X19500000Y340000D02*
Y660000D01*
X19614439Y1700000D02*
X19685561D01*
X19650000Y1664440D02*
Y1735560D01*
X19114439Y12650000D02*
X19185561D01*
X19150000Y12614440D02*
Y12685560D01*
X9214440Y14500000D02*
X9285560D01*
X9250000Y14464439D02*
Y14535561D01*
X672551Y2377500D02*
X712551D01*
X692551Y2357500D02*
Y2397500D01*
X680000Y2500000D02*
X720000D01*
X700000Y2480000D02*
Y2520000D01*
X680000Y2250000D02*
X720000D01*
X700000Y2230000D02*
Y2270000D01*
X19280000Y2500000D02*
X19320000D01*
X19300000Y2480000D02*
Y2520000D01*
X19280000Y3850000D02*
X19320000D01*
X19300000Y3830000D02*
Y3870000D01*
X18680000Y4100000D02*
X18720000D01*
X18700000Y4080000D02*
Y4120000D01*
X17630000Y10450000D02*
X17670000D01*
X17650000Y10430000D02*
Y10470000D01*
X16130000Y10450000D02*
X16170000D01*
X16150000Y10430000D02*
Y10470000D01*
X14580000Y10450000D02*
X14620000D01*
X14600000Y10430000D02*
Y10470000D01*
X13030000Y10450000D02*
X13070000D01*
X13050000Y10430000D02*
Y10470000D01*
X11530000Y10450000D02*
X11570000D01*
X11550000Y10430000D02*
Y10470000D01*
X10030000Y10450000D02*
X10070000D01*
X10050000Y10430000D02*
Y10470000D01*
X8480000Y10450000D02*
X8520000D01*
X8500000Y10430000D02*
Y10470000D01*
X6980000Y10450000D02*
X7020000D01*
X7000000Y10430000D02*
Y10470000D01*
X5430000Y10450000D02*
X5470000D01*
X5450000Y10430000D02*
Y10470000D01*
X3880000Y10450000D02*
X3920000D01*
X3900000Y10430000D02*
Y10470000D01*
X2380000Y10450000D02*
X2420000D01*
X2400000Y10430000D02*
Y10470000D01*
X19830000Y15200000D02*
X19870000D01*
X19850000Y15180000D02*
Y15220000D01*
X330000Y11000000D02*
X370000D01*
X350000Y10980000D02*
Y11020000D01*
X14030000Y18350000D02*
X14070000D01*
X14050000Y18330000D02*
Y18370000D01*
X3080000Y18600000D02*
X3120000D01*
X3100000Y18580000D02*
Y18620000D01*
X7130000Y450000D02*
X7170000D01*
X7150000Y430000D02*
Y470000D01*
X19130000Y19450000D02*
X19170000D01*
X19150000Y19430000D02*
Y19470000D01*
X19230000Y18250000D02*
X19270000D01*
X19250000Y18230000D02*
Y18270000D01*
X18080000Y17750000D02*
X18120000D01*
X18100000Y17730000D02*
Y17770000D01*
X17630000Y17150000D02*
X17670000D01*
X17650000Y17130000D02*
Y17170000D01*
X16130000Y17150000D02*
X16170000D01*
X16150000Y17130000D02*
Y17170000D01*
X14580000Y17150000D02*
X14620000D01*
X14600000Y17130000D02*
Y17170000D01*
X13030000Y17150000D02*
X13070000D01*
X13050000Y17130000D02*
Y17170000D01*
X11530000Y17150000D02*
X11570000D01*
X11550000Y17130000D02*
Y17170000D01*
X10030000Y17150000D02*
X10070000D01*
X10050000Y17130000D02*
Y17170000D01*
X8480000Y17150000D02*
X8520000D01*
X8500000Y17130000D02*
Y17170000D01*
X6980000Y17150000D02*
X7020000D01*
X7000000Y17130000D02*
Y17170000D01*
X2380000Y15450000D02*
X2420000D01*
X2400000Y15430000D02*
Y15470000D01*
X3880000Y15450000D02*
X3920000D01*
X3900000Y15430000D02*
Y15470000D01*
X5430000Y15450000D02*
X5470000D01*
X5450000Y15430000D02*
Y15470000D01*
X6980000Y15450000D02*
X7020000D01*
X7000000Y15430000D02*
Y15470000D01*
X8480000Y15450000D02*
X8520000D01*
X8500000Y15430000D02*
Y15470000D01*
X10030000Y15450000D02*
X10070000D01*
X10050000Y15430000D02*
Y15470000D01*
X11530000Y15450000D02*
X11570000D01*
X11550000Y15430000D02*
Y15470000D01*
X13030000Y15450000D02*
X13070000D01*
X13050000Y15430000D02*
Y15470000D01*
X14580000Y15450000D02*
X14620000D01*
X14600000Y15430000D02*
Y15470000D01*
X16130000Y15450000D02*
X16170000D01*
X16150000Y15430000D02*
Y15470000D01*
X17630000Y15450000D02*
X17670000D01*
X17650000Y15430000D02*
Y15470000D01*
X18130000Y13900000D02*
X18170000D01*
X18150000Y13880000D02*
Y13920000D01*
X17630000Y13800000D02*
X17670000D01*
X17650000Y13780000D02*
Y13820000D01*
X16130000Y13800000D02*
X16170000D01*
X16150000Y13780000D02*
Y13820000D01*
X14580000Y13800000D02*
X14620000D01*
X14600000Y13780000D02*
Y13820000D01*
X13030000Y13800000D02*
X13070000D01*
X13050000Y13780000D02*
Y13820000D01*
X11530000Y13800000D02*
X11570000D01*
X11550000Y13780000D02*
Y13820000D01*
X10030000Y13800000D02*
X10070000D01*
X10050000Y13780000D02*
Y13820000D01*
X8480000Y13800000D02*
X8520000D01*
X8500000Y13780000D02*
Y13820000D01*
X6980000Y13800000D02*
X7020000D01*
X7000000Y13780000D02*
Y13820000D01*
X5430000Y13800000D02*
X5470000D01*
X5450000Y13780000D02*
Y13820000D01*
X3880000Y13800000D02*
X3920000D01*
X3900000Y13780000D02*
Y13820000D01*
X2380000Y13850000D02*
X2420000D01*
X2400000Y13830000D02*
Y13870000D01*
X2380000Y12150000D02*
X2420000D01*
X2400000Y12130000D02*
Y12170000D01*
X3880000Y12150000D02*
X3920000D01*
X3900000Y12130000D02*
Y12170000D01*
X5430000Y12150000D02*
X5470000D01*
X5450000Y12130000D02*
Y12170000D01*
X6980000Y12150000D02*
X7020000D01*
X7000000Y12130000D02*
Y12170000D01*
X8480000Y12150000D02*
X8520000D01*
X8500000Y12130000D02*
Y12170000D01*
X10030000Y12150000D02*
X10070000D01*
X10050000Y12130000D02*
Y12170000D01*
X11530000Y12150000D02*
X11570000D01*
X11550000Y12130000D02*
Y12170000D01*
X13030000Y12150000D02*
X13070000D01*
X13050000Y12130000D02*
Y12170000D01*
X14580000Y12150000D02*
X14620000D01*
X14600000Y12130000D02*
Y12170000D01*
X16130000Y12150000D02*
X16170000D01*
X16150000Y12130000D02*
Y12170000D01*
X17630000Y12150000D02*
X17670000D01*
X17650000Y12130000D02*
Y12170000D01*
X17630000Y8800000D02*
X17670000D01*
X17650000Y8780000D02*
Y8820000D01*
X16130000Y8800000D02*
X16170000D01*
X16150000Y8780000D02*
Y8820000D01*
X14580000Y8800000D02*
X14620000D01*
X14600000Y8780000D02*
Y8820000D01*
X13030000Y8800000D02*
X13070000D01*
X13050000Y8780000D02*
Y8820000D01*
X11530000Y8800000D02*
X11570000D01*
X11550000Y8780000D02*
Y8820000D01*
X10030000Y8800000D02*
X10070000D01*
X10050000Y8780000D02*
Y8820000D01*
X8480000Y8800000D02*
X8520000D01*
X8500000Y8780000D02*
Y8820000D01*
X6980000Y8800000D02*
X7020000D01*
X7000000Y8780000D02*
Y8820000D01*
X5430000Y8800000D02*
X5470000D01*
X5450000Y8780000D02*
Y8820000D01*
X3880000Y8800000D02*
X3920000D01*
X3900000Y8780000D02*
Y8820000D01*
X2380000Y8800000D02*
X2420000D01*
X2400000Y8780000D02*
Y8820000D01*
X2380000Y7150000D02*
X2420000D01*
X2400000Y7130000D02*
Y7170000D01*
X3880000Y7150000D02*
X3920000D01*
X3900000Y7130000D02*
Y7170000D01*
X5430000Y7150000D02*
X5470000D01*
X5450000Y7130000D02*
Y7170000D01*
X6980000Y7150000D02*
X7020000D01*
X7000000Y7130000D02*
Y7170000D01*
X8480000Y7150000D02*
X8520000D01*
X8500000Y7130000D02*
Y7170000D01*
X10030000Y7150000D02*
X10070000D01*
X10050000Y7130000D02*
Y7170000D01*
X11530000Y7150000D02*
X11570000D01*
X11550000Y7130000D02*
Y7170000D01*
X13030000Y7150000D02*
X13070000D01*
X13050000Y7130000D02*
Y7170000D01*
X14580000Y7150000D02*
X14620000D01*
X14600000Y7130000D02*
Y7170000D01*
X16130000Y7150000D02*
X16170000D01*
X16150000Y7130000D02*
Y7170000D01*
X17630000Y7150000D02*
X17670000D01*
X17650000Y7130000D02*
Y7170000D01*
X17630000Y5450000D02*
X17670000D01*
X17650000Y5430000D02*
Y5470000D01*
X16130000Y5450000D02*
X16170000D01*
X16150000Y5430000D02*
Y5470000D01*
X14580000Y5450000D02*
X14620000D01*
X14600000Y5430000D02*
Y5470000D01*
X13030000Y5450000D02*
X13070000D01*
X13050000Y5430000D02*
Y5470000D01*
X11530000Y5450000D02*
X11570000D01*
X11550000Y5430000D02*
Y5470000D01*
X10030000Y5450000D02*
X10070000D01*
X10050000Y5430000D02*
Y5470000D01*
X8480000Y5450000D02*
X8520000D01*
X8500000Y5430000D02*
Y5470000D01*
X6980000Y5450000D02*
X7020000D01*
X7000000Y5430000D02*
Y5470000D01*
X5430000Y5450000D02*
X5470000D01*
X5450000Y5430000D02*
Y5470000D01*
X3880000Y5450000D02*
X3920000D01*
X3900000Y5430000D02*
Y5470000D01*
X2380000Y5450000D02*
X2420000D01*
X2400000Y5430000D02*
Y5470000D01*
X2380000Y3800000D02*
X2420000D01*
X2400000Y3780000D02*
Y3820000D01*
X3880000Y3800000D02*
X3920000D01*
X3900000Y3780000D02*
Y3820000D01*
X5430000Y3800000D02*
X5470000D01*
X5450000Y3780000D02*
Y3820000D01*
X6980000Y3800000D02*
X7020000D01*
X7000000Y3780000D02*
Y3820000D01*
X8480000Y3800000D02*
X8520000D01*
X8500000Y3780000D02*
Y3820000D01*
X10030000Y3800000D02*
X10070000D01*
X10050000Y3780000D02*
Y3820000D01*
X11530000Y3800000D02*
X11570000D01*
X11550000Y3780000D02*
Y3820000D01*
X13030000Y3800000D02*
X13070000D01*
X13050000Y3780000D02*
Y3820000D01*
X14580000Y3800000D02*
X14620000D01*
X14600000Y3780000D02*
Y3820000D01*
X16130000Y3800000D02*
X16170000D01*
X16150000Y3780000D02*
Y3820000D01*
X17630713Y3801839D02*
X17670712D01*
X17650713Y3781839D02*
Y3821839D01*
X18730000Y1023575D02*
X18770000D01*
X18750000Y1003575D02*
Y1043575D01*
X17630000Y2100000D02*
X17670000D01*
X17650000Y2080000D02*
Y2120000D01*
X16180000Y2100000D02*
X16220000D01*
X16200000Y2080000D02*
Y2120000D01*
X14580000Y2100000D02*
X14620000D01*
X14600000Y2080000D02*
Y2120000D01*
X13030000Y2100000D02*
X13070000D01*
X13050000Y2080000D02*
Y2120000D01*
X11530000Y2100000D02*
X11570000D01*
X11550000Y2080000D02*
Y2120000D01*
X10030000Y2100000D02*
X10070000D01*
X10050000Y2080000D02*
Y2120000D01*
X8480000Y2100000D02*
X8520000D01*
X8500000Y2080000D02*
Y2120000D01*
X6980000Y2100000D02*
X7020000D01*
X7000000Y2080000D02*
Y2120000D01*
X5430000Y2100000D02*
X5470000D01*
X5450000Y2080000D02*
Y2120000D01*
X3880000Y2100000D02*
X3920000D01*
X3900000Y2080000D02*
Y2120000D01*
X2380000Y2100000D02*
X2420000D01*
X2400000Y2080000D02*
Y2120000D01*
X1192227Y1077746D02*
X1232227D01*
X1212227Y1057746D02*
Y1097746D01*
X1130000Y1400000D02*
X1170000D01*
X1150000Y1380000D02*
Y1420000D01*
X1180000Y5150000D02*
X1220000D01*
X1200000Y5130000D02*
Y5170000D01*
X1280000Y5000000D02*
X1320000D01*
X1300000Y4980000D02*
Y5020000D01*
X780000Y5000000D02*
X820000D01*
X800000Y4980000D02*
Y5020000D01*
X19142451Y1430729D02*
X19182451D01*
X19162451Y1410729D02*
Y1450729D01*
X19230000Y2200000D02*
X19270000D01*
X19250000Y2180000D02*
Y2220000D01*
X17780000Y2850000D02*
X17820000D01*
X17800000Y2830000D02*
Y2870000D01*
X16330000Y2850000D02*
X16370000D01*
X16350000Y2830000D02*
Y2870000D01*
X14730000Y2850000D02*
X14770000D01*
X14750000Y2830000D02*
Y2870000D01*
X13180000Y2850000D02*
X13220000D01*
X13200000Y2830000D02*
Y2870000D01*
X11680000Y2850000D02*
X11720000D01*
X11700000Y2830000D02*
Y2870000D01*
X10180000Y2850000D02*
X10220000D01*
X10200000Y2830000D02*
Y2870000D01*
X8630000Y2850000D02*
X8670000D01*
X8650000Y2830000D02*
Y2870000D01*
X7130000Y2850000D02*
X7170000D01*
X7150000Y2830000D02*
Y2870000D01*
X5580000Y2850000D02*
X5620000D01*
X5600000Y2830000D02*
Y2870000D01*
X4030000Y2850000D02*
X4070000D01*
X4050000Y2830000D02*
Y2870000D01*
X2530000Y2850000D02*
X2570000D01*
X2550000Y2830000D02*
Y2870000D01*
X2530000Y4550000D02*
X2570000D01*
X2550000Y4530000D02*
Y4570000D01*
X4030000Y4550000D02*
X4070000D01*
X4050000Y4530000D02*
Y4570000D01*
X5580000Y4550000D02*
X5620000D01*
X5600000Y4530000D02*
Y4570000D01*
X7130000Y4550000D02*
X7170000D01*
X7150000Y4530000D02*
Y4570000D01*
X8630000Y4550000D02*
X8670000D01*
X8650000Y4530000D02*
Y4570000D01*
X10180000Y4550000D02*
X10220000D01*
X10200000Y4530000D02*
Y4570000D01*
X11680000Y4550000D02*
X11720000D01*
X11700000Y4530000D02*
Y4570000D01*
X13180000Y4550000D02*
X13220000D01*
X13200000Y4530000D02*
Y4570000D01*
X14730000Y4550000D02*
X14770000D01*
X14750000Y4530000D02*
Y4570000D01*
X16280000Y4550000D02*
X16320000D01*
X16300000Y4530000D02*
Y4570000D01*
X17780000Y4550000D02*
X17820000D01*
X17800000Y4530000D02*
Y4570000D01*
X17780000Y6200000D02*
X17820000D01*
X17800000Y6180000D02*
Y6220000D01*
X16280000Y6200000D02*
X16320000D01*
X16300000Y6180000D02*
Y6220000D01*
X14730000Y6200000D02*
X14770000D01*
X14750000Y6180000D02*
Y6220000D01*
X13180000Y6200000D02*
X13220000D01*
X13200000Y6180000D02*
Y6220000D01*
X11680000Y6200000D02*
X11720000D01*
X11700000Y6180000D02*
Y6220000D01*
X10180000Y6200000D02*
X10220000D01*
X10200000Y6180000D02*
Y6220000D01*
X8630000Y6200000D02*
X8670000D01*
X8650000Y6180000D02*
Y6220000D01*
X7130000Y6200000D02*
X7170000D01*
X7150000Y6180000D02*
Y6220000D01*
X5580000Y6200000D02*
X5620000D01*
X5600000Y6180000D02*
Y6220000D01*
X4030000Y6200000D02*
X4070000D01*
X4050000Y6180000D02*
Y6220000D01*
X2530000Y6200000D02*
X2570000D01*
X2550000Y6180000D02*
Y6220000D01*
X2714440Y6350000D02*
X2785560D01*
X2750000Y6314440D02*
Y6385560D01*
X17830000Y7950000D02*
X17870000D01*
X17850000Y7930000D02*
Y7970000D01*
X16280000Y7950000D02*
X16320000D01*
X16300000Y7930000D02*
Y7970000D01*
X14730000Y7900000D02*
X14770000D01*
X14750000Y7880000D02*
Y7920000D01*
X13180000Y7900000D02*
X13220000D01*
X13200000Y7880000D02*
Y7920000D01*
X11680000Y7900000D02*
X11720000D01*
X11700000Y7880000D02*
Y7920000D01*
X10180000Y7900000D02*
X10220000D01*
X10200000Y7880000D02*
Y7920000D01*
X8630000Y7900000D02*
X8670000D01*
X8650000Y7880000D02*
Y7920000D01*
X7130000Y7900000D02*
X7170000D01*
X7150000Y7880000D02*
Y7920000D01*
X5580000Y7900000D02*
X5620000D01*
X5600000Y7880000D02*
Y7920000D01*
X4030000Y7900000D02*
X4070000D01*
X4050000Y7880000D02*
Y7920000D01*
X2530000Y7900000D02*
X2570000D01*
X2550000Y7880000D02*
Y7920000D01*
X2530000Y9550000D02*
X2570000D01*
X2550000Y9530000D02*
Y9570000D01*
X2714440Y9700000D02*
X2785560D01*
X2750000Y9664440D02*
Y9735560D01*
X4030000Y9550000D02*
X4070000D01*
X4050000Y9530000D02*
Y9570000D01*
X5580000Y9550000D02*
X5620000D01*
X5600000Y9530000D02*
Y9570000D01*
X7130000Y9550000D02*
X7170000D01*
X7150000Y9530000D02*
Y9570000D01*
X8630000Y9550000D02*
X8670000D01*
X8650000Y9530000D02*
Y9570000D01*
X10180000Y9550000D02*
X10220000D01*
X10200000Y9530000D02*
Y9570000D01*
X11680000Y9550000D02*
X11720000D01*
X11700000Y9530000D02*
Y9570000D01*
X13180000Y9550000D02*
X13220000D01*
X13200000Y9530000D02*
Y9570000D01*
X14730000Y9550000D02*
X14770000D01*
X14750000Y9530000D02*
Y9570000D01*
X16280000Y9550000D02*
X16320000D01*
X16300000Y9530000D02*
Y9570000D01*
X17780000Y9550000D02*
X17820000D01*
X17800000Y9530000D02*
Y9570000D01*
X17780000Y11200000D02*
X17820000D01*
X17800000Y11180000D02*
Y11220000D01*
X16280000Y11200000D02*
X16320000D01*
X16300000Y11180000D02*
Y11220000D01*
X14730000Y11200000D02*
X14770000D01*
X14750000Y11180000D02*
Y11220000D01*
X13180000Y11200000D02*
X13220000D01*
X13200000Y11180000D02*
Y11220000D01*
X11680000Y11200000D02*
X11720000D01*
X11700000Y11180000D02*
Y11220000D01*
X10180000Y11200000D02*
X10220000D01*
X10200000Y11180000D02*
Y11220000D01*
X8630000Y11200000D02*
X8670000D01*
X8650000Y11180000D02*
Y11220000D01*
X7130000Y11200000D02*
X7170000D01*
X7150000Y11180000D02*
Y11220000D01*
X5580000Y11200000D02*
X5620000D01*
X5600000Y11180000D02*
Y11220000D01*
X4030000Y11200000D02*
X4070000D01*
X4050000Y11180000D02*
Y11220000D01*
X2530000Y11200000D02*
X2570000D01*
X2550000Y11180000D02*
Y11220000D01*
X2530000Y12900000D02*
X2570000D01*
X2550000Y12880000D02*
Y12920000D01*
X4030000Y12900000D02*
X4070000D01*
X4050000Y12880000D02*
Y12920000D01*
X5580000Y12900000D02*
X5620000D01*
X5600000Y12880000D02*
Y12920000D01*
X7130000Y12900000D02*
X7170000D01*
X7150000Y12880000D02*
Y12920000D01*
X8630000Y12900000D02*
X8670000D01*
X8650000Y12880000D02*
Y12920000D01*
X10180000Y12900000D02*
X10220000D01*
X10200000Y12880000D02*
Y12920000D01*
X11680000Y12900000D02*
X11720000D01*
X11700000Y12880000D02*
Y12920000D01*
X13180000Y12900000D02*
X13220000D01*
X13200000Y12880000D02*
Y12920000D01*
X14730000Y12900000D02*
X14770000D01*
X14750000Y12880000D02*
Y12920000D01*
X16302885Y12917149D02*
X16342886D01*
X16322887Y12897150D02*
Y12937149D01*
X17789680Y12922888D02*
X17829680D01*
X17809680Y12902888D02*
Y12942888D01*
X17880000Y14600000D02*
X17920000D01*
X17900000Y14580000D02*
Y14620000D01*
X16480000Y14300000D02*
X16520000D01*
X16500000Y14280000D02*
Y14320000D01*
X14930000Y14300000D02*
X14970000D01*
X14950000Y14280000D02*
Y14320000D01*
X11880000Y14300000D02*
X11920000D01*
X11900000Y14280000D02*
Y14320000D01*
X10180000Y14600000D02*
X10220000D01*
X10200000Y14580000D02*
Y14620000D01*
X8630000Y14600000D02*
X8670000D01*
X8650000Y14580000D02*
Y14620000D01*
X7130000Y14600000D02*
X7170000D01*
X7150000Y14580000D02*
Y14620000D01*
X5580000Y14600000D02*
X5620000D01*
X5600000Y14580000D02*
Y14620000D01*
X4030000Y14600000D02*
X4070000D01*
X4050000Y14580000D02*
Y14620000D01*
X2530000Y14600000D02*
X2570000D01*
X2550000Y14580000D02*
Y14620000D01*
X2530000Y16250000D02*
X2570000D01*
X2550000Y16230000D02*
Y16270000D01*
X4030000Y16250000D02*
X4070000D01*
X4050000Y16230000D02*
Y16270000D01*
X5580000Y16250000D02*
X5620000D01*
X5600000Y16230000D02*
Y16270000D01*
X7130000Y16250000D02*
X7170000D01*
X7150000Y16230000D02*
Y16270000D01*
X8630672Y16246658D02*
X8670672D01*
X8650672Y16226659D02*
Y16266658D01*
X10180000Y16250000D02*
X10220000D01*
X10200000Y16230000D02*
Y16270000D01*
X11680000Y16250000D02*
X11720000D01*
X11700000Y16230000D02*
Y16270000D01*
X11780000Y16400000D02*
X11820000D01*
X11800000Y16380000D02*
Y16420000D01*
X12480000Y16400000D02*
X12520000D01*
X12500000Y16380000D02*
Y16420000D01*
X13180000Y16250000D02*
X13220000D01*
X13200000Y16230000D02*
Y16270000D01*
X14730000Y16250000D02*
X14770000D01*
X14750000Y16230000D02*
Y16270000D01*
X16280000Y16250000D02*
X16320000D01*
X16300000Y16230000D02*
Y16270000D01*
X17780000Y16250000D02*
X17820000D01*
X17800000Y16230000D02*
Y16270000D01*
X17730000Y18000000D02*
X17770000D01*
X17750000Y17980000D02*
Y18020000D01*
X16280000Y17950000D02*
X16320000D01*
X16300000Y17930000D02*
Y17970000D01*
X14730000Y17950000D02*
X14770000D01*
X14750000Y17930000D02*
Y17970000D01*
X13180000Y17950000D02*
X13220000D01*
X13200000Y17930000D02*
Y17970000D01*
X11680000Y17950000D02*
X11720000D01*
X11700000Y17930000D02*
Y17970000D01*
X10180000Y17950000D02*
X10220000D01*
X10200000Y17930000D02*
Y17970000D01*
X8630000Y17950000D02*
X8670000D01*
X8650000Y17930000D02*
Y17970000D01*
X7080000Y17950000D02*
X7120000D01*
X7100000Y17930000D02*
Y17970000D01*
X5580000Y17950000D02*
X5620000D01*
X5600000Y17930000D02*
Y17970000D01*
X4030000Y17950000D02*
X4070000D01*
X4050000Y17930000D02*
Y17970000D01*
X2530000Y17950000D02*
X2570000D01*
X2550000Y17930000D02*
Y17970000D01*
X5430000Y17150000D02*
X5470000D01*
X5450000Y17130000D02*
Y17170000D01*
X3880000Y17150000D02*
X3920000D01*
X3900000Y17130000D02*
Y17170000D01*
X1014440Y3150000D02*
X1085560D01*
X1050000Y3114440D02*
Y3185560D01*
X814440Y17850000D02*
X885560D01*
X850000Y17814439D02*
Y17885561D01*
X814440Y19750000D02*
X885560D01*
X850000Y19714439D02*
Y19785561D01*
X2380000Y17150000D02*
X2420000D01*
X2400000Y17130000D02*
Y17170000D01*
X980000Y18650000D02*
X1020000D01*
X1000000Y18630000D02*
Y18670000D01*
X1130000Y19450000D02*
X1170000D01*
X1150000Y19430000D02*
Y19470000D01*
X5014440Y17250000D02*
X5085560D01*
X5050000Y17214439D02*
Y17285561D01*
X2764440Y13050000D02*
X2835560D01*
X2800000Y13014439D02*
Y13085561D01*
X2764440Y13900000D02*
X2835560D01*
X2800000Y13864439D02*
Y13935561D01*
X2714440Y10550000D02*
X2785560D01*
X2750000Y10514440D02*
Y10585560D01*
X2714440Y7250000D02*
X2785560D01*
X2750000Y7214440D02*
Y7285560D01*
X2014440Y2500000D02*
X2085560D01*
X2050000Y2464440D02*
Y2535560D01*
X2014440Y600000D02*
X2085560D01*
X2050000Y564440D02*
Y635560D01*
X19064439Y18150000D02*
X19135561D01*
X19100000Y18114439D02*
Y18185561D01*
X1264440Y4100000D02*
X1335560D01*
X1300000Y4064440D02*
Y4135560D01*
X2014440Y4100000D02*
X2085560D01*
X2050000Y4064440D02*
Y4135560D01*
X1814440Y18750000D02*
X1885560D01*
X1850000Y18714439D02*
Y18785561D01*
X1814440Y16050000D02*
X1885560D01*
X1850000Y16014439D02*
Y16085561D01*
X2014440Y18950000D02*
X2085560D01*
X2050000Y18914439D02*
Y18985561D01*
X2014440Y17450000D02*
X2085560D01*
X2050000Y17414439D02*
Y17485561D01*
X18114439Y18500000D02*
X18185561D01*
X18150000Y18464439D02*
Y18535561D01*
X18714439Y17500000D02*
X18785561D01*
X18750000Y17464439D02*
Y17535561D01*
X17764439Y17500000D02*
X17835561D01*
X17800000Y17464439D02*
Y17535561D01*
X17514439Y16700000D02*
X17585561D01*
X17550000Y16664439D02*
Y16735561D01*
X12280000Y19100000D02*
X12320000D01*
X12300000Y19080000D02*
Y19120000D01*
X13430000Y14300000D02*
X13470000D01*
X13450000Y14280000D02*
Y14320000D01*
X19880000Y7600000D02*
X19920000D01*
X19900000Y7580000D02*
Y7620000D01*
X19880000Y9150000D02*
X19920000D01*
X19900000Y9130000D02*
Y9170000D01*
X19880000Y10750000D02*
X19920000D01*
X19900000Y10730000D02*
Y10770000D01*
X12030000Y19100000D02*
X12070000D01*
X12050000Y19080000D02*
Y19120000D01*
X16580000Y18650000D02*
X16620000D01*
X16600000Y18630000D02*
Y18670000D01*
X15030000Y19550000D02*
X15070000D01*
X15050000Y19530000D02*
Y19570000D01*
X16580000Y19100000D02*
X16620000D01*
X16600000Y19080000D02*
Y19120000D01*
X12480000Y19650000D02*
X12520000D01*
X12500000Y19630000D02*
Y19670000D01*
X1280000Y15650000D02*
X1320000D01*
X1300000Y15630000D02*
Y15670000D01*
X5780000Y19250000D02*
X5820000D01*
X5800000Y19230000D02*
Y19270000D01*
X5630000Y18150000D02*
X5670000D01*
X5650000Y18130000D02*
Y18170000D01*
X6130000Y18000000D02*
X6170000D01*
X6150000Y17980000D02*
Y18020000D01*
%TF.MD5,e53feab94e7fe7241c8b2c1c27f0107b*%
M02*
